<svg width="288" height="162" fill="none" xmlns="http://www.w3.org/2000/svg"><g filter="url(#filter0_d)" fill-rule="evenodd" clip-rule="evenodd" fill="#fff"><path d="M8.757 8.746C7.36 8.431 6.302 7.171 6 5.91l17.26-.039v.04a3.944 3.944 0 01-2.758 2.835h-4.305l-.227.08v11.303H13.29V8.825l-.227-.079H8.757zm23.896-.008h10.288c1.448-.275 2.515-1.61 2.781-2.867H29.834c.305 1.257 1.372 2.553 2.82 2.867zm76.586 0H98.951c-1.41-.314-2.477-1.61-2.781-2.867h15.85c-.305 1.257-1.334 2.592-2.781 2.867zM96.589 20.13v-8.602h15.088v8.602h-2.667v-5.735h-9.754v5.735h-2.667zm-8.116 0c1.334-.589 2.057-1.61 2.362-2.789H78.833V5.91h-2.705v14.22h12.345zM65.65 8.7h-9.526l.038 2.828h12.345v8.602H52.695c.648-1.375 1.943-2.435 3.467-2.867h9.678v-2.946H53.495V5.91h15.089c-.305 1.218-1.486 2.357-2.934 2.79zM42.94 14.355H32.653c-1.447-.314-2.514-1.61-2.82-2.867h15.89c-.267 1.257-1.334 2.592-2.782 2.867zM32.653 20.13h10.288c1.448-.275 2.515-1.61 2.781-2.867H29.834c.305 1.257 1.372 2.592 2.82 2.867zM175.303 12.58h-12.328V0h12.328v12.58zm106.842-.787V9.68h-2.583V6.39l-.087.027-2.427.755-.048.015v2.49h-3.83V8.292c0-.646.142-1.14.423-1.47.278-.326.676-.492 1.183-.492.365 0 .743.088 1.123.26l.095.043V4.405l-.045-.017c-.354-.13-.837-.194-1.435-.194-.753 0-1.438.166-2.035.497a3.516 3.516 0 00-1.397 1.403c-.328.6-.494 1.292-.494 2.059v1.526h-1.799v2.114h1.799v8.909h2.582v-8.909H277v5.661c0 2.332 1.082 3.514 3.216 3.514.351 0 .72-.042 1.096-.124.384-.084.645-.168.799-.257l.034-.02v-2.135l-.105.07c-.14.096-.315.173-.519.23a1.944 1.944 0 01-.51.089c-.5 0-.87-.137-1.1-.407-.232-.273-.349-.75-.349-1.417v-5.204h2.583zm-19.123 7.028c-.937 0-1.676-.316-2.197-.938-.524-.625-.789-1.517-.789-2.65 0-1.169.265-2.084.789-2.72.521-.633 1.253-.953 2.176-.953.896 0 1.608.306 2.119.911.513.608.773 1.516.773 2.698 0 1.197-.244 2.117-.727 2.732-.48.61-1.201.92-2.144.92zm-4.106-7.825c1.012-1.05 2.433-1.583 4.221-1.583 1.684 0 3.021.51 3.97 1.515.95 1.004 1.431 2.403 1.431 4.156 0 1.774-.513 3.214-1.525 4.278-1.012 1.065-2.404 1.605-4.138 1.605-1.663 0-3.008-.512-3.996-1.524-.988-1.011-1.489-2.4-1.489-4.125 0-1.817.514-3.271 1.526-4.322zm-5.689-1.583c-1.217 0-2.223.316-2.991.94-.774.627-1.166 1.45-1.166 2.445 0 .518.085.978.251 1.367.168.392.427.736.772 1.025.342.287.87.587 1.57.893.588.246 1.026.454 1.305.618.272.16.466.322.575.48.106.153.16.364.16.624 0 .74-.546 1.101-1.669 1.101-.416 0-.891-.088-1.411-.262a5.275 5.275 0 01-1.446-.745l-.107-.079v2.527l.039.02c.366.17.826.315 1.369.429a7.233 7.233 0 001.462.172c1.32 0 2.383-.318 3.159-.945.78-.632 1.176-1.474 1.176-2.504 0-.743-.213-1.38-.633-1.894-.417-.51-1.14-.978-2.149-1.391-.804-.328-1.319-.6-1.532-.81-.205-.202-.309-.487-.309-.849 0-.32.129-.577.392-.785.266-.21.636-.315 1.099-.315.43 0 .871.069 1.309.204a4.18 4.18 0 011.142.538l.106.074V9.894l-.041-.018c-.296-.13-.686-.24-1.16-.33a6.974 6.974 0 00-1.272-.133zm-13.086 8.47c.521.622 1.26.938 2.197.938.943 0 1.664-.31 2.143-.92.483-.615.728-1.535.728-2.732 0-1.182-.26-2.09-.773-2.698-.511-.605-1.224-.911-2.119-.911-.923 0-1.655.32-2.176.953-.524.636-.789 1.551-.789 2.72 0 1.133.265 2.025.789 2.65zm2.312-8.47c-1.789 0-3.209.533-4.221 1.583-1.012 1.05-1.526 2.505-1.526 4.322 0 1.726.501 3.114 1.489 4.125.988 1.012 2.333 1.524 3.996 1.524 1.734 0 3.126-.54 4.138-1.605 1.012-1.064 1.525-2.504 1.525-4.278 0-1.753-.481-3.152-1.431-4.156-.95-1.006-2.286-1.515-3.97-1.515zm-9.667.266v1.909h.027c.239-.62.55-1.117.982-1.48a2.588 2.588 0 011.706-.62c.425 0 .761.051.999.154l.041.018v2.614l-.107-.08c-.118-.086-.319-.168-.595-.244a2.946 2.946 0 00-.767-.114c-.678 0-1.233.297-1.65.885-.422.595-.636 1.383-.636 2.342V20.7h-2.551V9.68h2.551zm-7.119-.266c-1.17 0-2.214.255-3.102.758a5.068 5.068 0 00-2.046 2.138c-.466.913-.703 1.98-.703 3.168 0 1.042.23 1.997.683 2.84a4.843 4.843 0 001.909 1.962c.812.457 1.75.689 2.789.689 1.212 0 2.247-.247 3.077-.733l.034-.02V17.84l-.108.08c-.375.278-.796.5-1.248.66-.45.16-.861.241-1.222.241-1.001 0-1.804-.318-2.388-.946-.584-.628-.881-1.51-.881-2.621 0-1.118.31-2.023.919-2.69.607-.667 1.412-1.004 2.392-1.004.839 0 1.656.288 2.429.858l.107.08V9.993l-.035-.02c-.291-.165-.687-.302-1.18-.405a6.935 6.935 0 00-1.426-.156zm-10.158.266h2.551V20.7h-2.551V9.68zm1.301-4.696c-.42 0-.786.145-1.087.433a1.44 1.44 0 00-.455 1.081c0 .422.151.78.451 1.06.297.28.664.423 1.091.423a1.56 1.56 0 001.097-.422c.303-.282.456-.638.456-1.06 0-.415-.149-.775-.444-1.07a1.507 1.507 0 00-1.109-.445zM210.445 20.7V8.865h-.084l-4.62 11.836h-1.846l-4.693-11.837h-.084v11.837h-2.446V5.321h3.749l4.445 11.424 4.58-11.425h3.603v15.381h-2.604zm-34.32-8.12h12.328V0h-12.328v12.58zM175.303 26h-12.328V13.42h12.328V26zm.822 0h12.328V13.42h-12.328V26zM36.395 65H22.761l-.619 1.647c5.406.256 9.703 4.32 9.703 9.296 0 4.625-3.713 8.462-8.577 9.186l-.584 1.767h13.711a2.875 2.875 0 002.05-.85c.545-.548.851-1.292.851-2.069V67.91c0-1.62-1.3-2.909-2.9-2.909zM11.433 75.944c0 4.071 2.888 7.665 6.905 8.97l-.701 1.982H6.894C5.296 86.896 4 85.572 4 83.956V67.93c-.001-1.616 1.294-2.928 2.894-2.93h11.09l-.695 1.955c-3.348 1.796-5.856 5.408-5.856 8.987zm100.575 2.412h-6.335v8.629h6.296c2.28 0 2.434-2.226 2.434-3.436V81.01c0-1.523-.773-2.655-2.395-2.655zm.424 5.427v-2.46c.04-.546-.346-1.17-.926-1.17h-3.864v5.036h3.709c.695 0 1.081-.665 1.081-1.406zm-9.479-.153c.466-.392.775-.98.775-2.546 0-1.764-1.201-2.743-2.595-2.743h-5.696v8.658h1.938v-2.547h3.331c.775 0 1.163.627 1.163.98v1.567h1.859v-1.802c0-.51-.155-1.253-.775-1.567zm-5.58-.98h3.565c.737 0 .93-.9.93-1.33 0-.433-.193-1.176-1.163-1.176h-3.331v2.507zm-7.32-4.292h-2.549l-3.436 7.415v1.21h1.544l.695-1.562h4.935l.704 1.562h2.009l-3.902-8.625zm-1.274 1.6l-1.661 3.669h3.314l-1.653-3.669zm-13.67 7.034v-8.643h1.974v3.246h.85l3.366-3.246h2.631l-4.14 4.067 3.443 3.442v1.134h-1.47l-3.675-3.599h-1.005v3.599h-1.974zM64.742 84.95v-4.562c0-.974 1.042-2.026 1.967-2.026h4.746c1.235.038 1.967 1.326 1.967 2.066v.74h-1.966c-.04-.39-.387-.974-.695-.974h-3.396c-.771 0-.655.78-.655.78v3.43c0 .624.385.78.617.78h3.356c.733 0 .811-.624.811-1.014h1.929v.78c0 1.287-.887 2.027-1.967 2.027H66.75c-1.467 0-2.007-1.13-2.007-2.027zm-4.779-6.61h-2.557L53.416 87h2.091l.698-1.567h4.951L61.862 87h2.015l-3.913-8.66zm-1.279 1.606L57.02 83.63h3.293l-1.628-3.683zm-7.481-1.593h-6.222v8.633h1.97v-2.422h4.251c1.16 0 2.474-.664 2.474-3.086 0-2.46-1.43-3.125-2.473-3.125zm-4.252 4.414h3.788c.85 0 .85-.898.85-1.288s0-1.329-.966-1.329h-3.671v2.617zm-1.97-17.627v8.633h1.97v-3.437h5.14v3.438h1.971V65.14h-1.97v3.4h-5.14v-3.4H44.98zm12.462-.005h6.577v1.8H58.06v1.604h4.953v1.8H58.06v1.642h5.959v1.799h-6.693c-.774 0-1.238-.626-1.238-1.134v-6.22c0-.783.464-1.291 1.354-1.291zm22.457.009v7.338c0 .664.503 1.288 1.391 1.288h5.795v-1.795h-5.215v-6.831h-1.97zm22.443 1.79v6.846h-1.973v-6.846h-2.844v-1.8h7.701v1.8h-2.884zm9.126 6.851v-6.855h2.886V65.13h-7.709v1.802h2.848v6.855h1.975zM89.507 65.14h6.573v1.797h-5.954v1.603h4.949v1.797h-4.949v1.642h5.954v1.797h-6.689c-.774 0-1.237-.625-1.237-1.133V66.43c0-.783.463-1.29 1.353-1.29zm-14.991 8.65c-.582 0-1.144-.882-1.26-1.314l-1.453-4.527-1.9 5.841h-1.201c-.582 0-1.086-.901-1.203-1.332l-2.364-7.33h1.977l1.823 5.918 1.938-5.88h1.86l1.937 5.88 1.822-5.919h1.977l-2.79 8.663h-1.163zm42.509-8.714a1.845 1.845 0 011.357.565c.373.376.56.831.56 1.366a1.887 1.887 0 01-.56 1.374c-.374.379-.827.569-1.357.569-.532 0-.983-.19-1.355-.57a1.891 1.891 0 01-.555-1.373 1.874 1.874 0 01.56-1.366 1.833 1.833 0 011.35-.565zm1.166 3.117c-.304.32-.727.498-1.166.49a1.57 1.57 0 01-1.166-.49 1.637 1.637 0 01-.478-1.187c0-.46.16-.853.48-1.178.322-.327.709-.49 1.165-.49.455 0 .844.163 1.166.49.32.325.479.718.479 1.178 0 .465-.159.86-.48 1.187zM19.046 65l-5.194 14.667v.001h2.194l2.54-7.06h.692c.46 0 .46.34.384.718l-2.27 6.342h2.27s1.962-5.36 2.309-6.493c.345-1.133-.347-1.7-1.694-1.7H18.97L21.277 65h-2.23zm5.035 6.439h3.59c1.081 0 2.202.568 1.623 2.123l-1.66 4.625c-.31.872-.58 1.479-2.201 1.479h-2.03l-2.294 6.52h-2.201l5.173-14.748zm2.973 1.706s-1.621 4.511-1.66 4.739c-.039.227-.232.644-.618.644h-.974l2.094-5.952h.965c.348 0 .309.266.193.569zM222.025 77.271h7.106l-3.757-5.99-6.898 10.83h-3.138l8.389-13.009a1.986 1.986 0 011.647-.843c.652 0 1.26.307 1.613.822l8.422 13.03h-3.138l-1.481-2.42h-7.196l-1.569-2.42zm32.605 2.42v-11.3h-2.663v12.406c0 .34.132.668.386.92s.597.394.973.394h12.147l1.57-2.42H254.63zm-39.381-6.658c0 2.563-2.1 4.632-4.686 4.632h-1.216l5.35 4.446h-3.869l-7.951-6.865 7.509.01a2.226 2.226 0 002.233-2.222 2.226 2.226 0 00-2.233-2.223h-8.813v11.3h-2.663v-13.72h11.653c2.586 0 4.686 2.08 4.686 4.642zm-32.73 9.078c-3.823 0-6.926-3.066-6.926-6.855 0-3.788 3.103-6.865 6.926-6.865h8.049c3.824 0 6.925 3.076 6.925 6.865s-3.101 6.855-6.925 6.855h-8.049zm12.353-6.855c0 2.453-2.006 4.435-4.483 4.435h-7.692c-2.476 0-4.483-1.982-4.483-4.435 0-2.452 2.007-4.445 4.483-4.445h7.692c2.477 0 4.483 1.993 4.483 4.445zm46.097 6.855c-3.824 0-6.93-3.066-6.93-6.855 0-3.788 3.106-6.865 6.93-6.865h9.561l-1.559 2.42h-7.825c-2.476 0-4.488 1.993-4.488 4.445 0 2.453 2.012 4.435 4.488 4.435h9.605l-1.57 2.42h-8.212zm28.262-5.65a4.47 4.47 0 004.311 3.23h9.604l-1.569 2.42h-8.212c-3.825 0-6.93-3.066-6.93-6.855 0-3.789 3.105-6.866 6.93-6.866h9.571l-1.58 2.42h-7.814a4.483 4.483 0 00-4.311 3.23h12.954l-1.57 2.42h-11.384zM27.873 140.156H24.42l1.155-1.129h6.16l-.906.893c-.169.152-.281.325-.281.577v4.931c-2.875.787-5.364 1.208-8.167 1.208-5.78 0-10.381-3.743-10.381-9.958 0-4.365 3.45-9.678 10.997-9.678 3.437 0 5.843 1.051 7.503 2.157l-2.626 2.584v-1.558c-1.4-1.249-2.966-2.146-5.656-2.146-4.252 0-7.3 3.246-7.3 7.872 0 4.718 3.37 9.548 9.103 9.548 1.414 0 2.775-.187 3.852-.528v-4.773zm11.603-6.611c-4.271 0-6.918 3.019-6.918 6.224 0 2.765 2.132 6.049 6.452 6.049 4.156 0 6.706-3.025 6.706-6.285 0-3.037-2.492-5.986-6.24-5.986v-.002zm-.708.881c3.011 0 4.352 3.794 4.352 6.501 0 4.025-3.122 4.105-3.495 4.105-1.429 0-2.427-.835-3.175-1.931-.658-1.009-1.301-2.885-1.301-4.717 0-1.826.618-2.717 1.59-3.373a3.816 3.816 0 012.028-.585zm28.67-.881c-3.605 0-5.555 2.369-5.555 5.014 0 2.014 1.39 4.286 4.257 4.286h.725s-.197.498-.198.979c0 .71.245 1.108.767 1.722-4.934.312-6.916 2.377-6.916 4.597 0 1.944 1.793 3.857 5.562 3.857 4.462 0 6.772-2.571 6.772-5.094 0-1.779-.853-2.754-3.016-4.436-.635-.513-.759-.839-.759-1.223 0-.54.306-.901.427-1.044l.006-.007c.135-.148.335-.31.494-.438.082-.066.153-.123.198-.165.727-.639 1.753-1.584 1.753-3.471 0-1.295-.519-2.408-1.7-3.451h1.442l1.084-1.125h-5.343v-.001zm-.994.842c.654 0 1.2.24 1.777.738.64.599 1.661 2.208 1.661 4.198 0 2.148-1.607 2.736-2.478 2.736-.425 0-.936-.124-1.368-.431-.96-.646-1.912-2.365-1.912-4.412 0-1.846 1.06-2.829 2.32-2.829zm1.9 11.997s-.198-.023-.473-.023c-3.702.054-5.05 1.503-5.05 3.187 0 2.032 1.968 3.277 4.544 3.277 2.346 0 3.795-1.271 3.795-2.892 0-1.18-.658-1.842-1.714-2.708-.453-.359-1.102-.841-1.102-.841zm10.29-.566h-5.236l.96-.944a.716.716 0 00.23-.547v-16.179h-1.736L74.014 127h4.465l-.944.933a.717.717 0 00-.25.565v15.619c0 .334.24.679.645.728l1.501.185-.797.788zm.797-6.38c0-3.785 3.143-5.893 6.102-5.893h.001c3.14 0 4.505 1.626 4.99 3.241l-8.387 3.168c.8 2.943 3.09 4.545 5.464 4.545 1.25 0 2.19-.357 3.343-.901a6.094 6.094 0 01-2.318 1.746c-.81.348-1.675.474-2.726.474-4.214 0-6.469-3.254-6.469-6.38zm8.29-2.85c0-.956-1.148-2.177-2.736-2.177-1.049 0-3.177.736-3.177 3.486 0 .656.14 1.263.14 1.263l5.155-1.949c.41-.151.618-.314.618-.623zm-33.443-3.043c-4.271 0-6.918 3.019-6.918 6.224 0 2.765 2.132 6.049 6.452 6.049 4.156 0 6.706-3.025 6.706-6.285 0-3.037-2.492-5.986-6.24-5.986v-.002zm-.708.881c3.011 0 4.352 3.794 4.352 6.501 0 4.025-3.122 4.105-3.495 4.105-1.429 0-2.427-.835-3.175-1.931-.658-1.009-1.301-2.885-1.301-4.717 0-1.826.618-2.717 1.59-3.373a3.816 3.816 0 012.028-.585zM174.444 130.273v2.865l.566-.036c7.283-.248 12.04 5.99 12.04 5.99s-5.453 6.653-11.131 6.653c-.496 0-.98-.047-1.464-.13v1.776c.402.047.815.082 1.216.082 5.288 0 9.113-2.71 12.819-5.907.277.225.941.591 1.634.974.843.465 1.729.954 2.014 1.24-3.518 2.959-11.722 5.339-16.372 5.339-.449 0-.874-.024-1.299-.071v2.498h20.09v-21.273h-20.113zm0 6.345v-1.917l.011-.001a8.58 8.58 0 01.555-.023c5.241-.166 8.676 4.522 8.676 4.522s-3.706 5.161-7.684 5.161a4.861 4.861 0 01-1.547-.249v-5.824c1.923.234 2.402 1.045 3.466 2.849l.205.347 2.727-2.296s-1.995-2.616-5.347-2.616a8.031 8.031 0 00-1.062.047zm0 0v1.657h-.012c-2.042-.248-3.647 1.67-3.647 1.67s.908 3.231 3.659 4.166v1.516c-4.887-.876-6.245-5.978-6.245-5.978s2.349-2.605 6.245-3.031zm.011-1.918h-.011v.001c-5.788.455-8.676 4.734-8.676 4.734s2.207 7.151 8.676 7.956v1.657c-8.818-.829-11.958-9.944-11.958-9.944s5.548-5.445 11.969-5.966v1.562zm25.859-.336v13.897h3.989V137.47l3.111.012c1.022 0 1.734.247 2.221.765.629.659.879 1.73.879 3.672v6.342h3.871v-7.672c0-5.484-3.527-6.225-6.971-6.225h-7.1zm31.11.023v13.886h3.955v-13.886h-3.955zm6.377 13.886v-13.886h5.545c3.159 0 5.272.377 6.721 2.319.819 1.082 1.283 2.824 1.283 4.777 0 2.13-.547 4.083-1.402 4.966-1.199 1.259-2.315 1.824-5.735 1.824h-6.412zm3.918-10.873h1.698c2.47 0 4.061 1.094 4.061 3.942s-1.591 3.954-4.061 3.954h-1.698V137.4zm-19.295 7.99l3.301-11.003h4.037l-4.56 13.886h-5.699l-4.513-13.886h4.275l3.159 11.003zm30.778 2.883h3.954v-13.886h-3.954v13.886zm5.569-.012l5.522-13.874h5.284l5.569 13.862h-4.239l-.832-2.447h-6.531l-.878 2.459h-3.895zm8.086-11.344l2.399 6.496h-4.868l2.469-6.496z"/></g><defs><filter id="filter0_d" x="0" y="0" width="287.146" height="162" filterUnits="userSpaceOnUse" color-interpolation-filters="sRGB"><feFlood flood-opacity="0" result="BackgroundImageFix"/><feColorMatrix in="SourceAlpha" values="0 0 0 0 0 0 0 0 0 0 0 0 0 0 0 0 0 0 127 0"/><feOffset dy="4"/><feGaussianBlur stdDeviation="2"/><feColorMatrix values="0 0 0 0 0 0 0 0 0 0 0 0 0 0 0 0 0 0 0.25 0"/><feBlend in2="BackgroundImageFix" result="effect1_dropShadow"/><feBlend in="SourceGraphic" in2="effect1_dropShadow" result="shape"/></filter></defs></svg>