<svg width="317" height="460" fill="none" xmlns="http://www.w3.org/2000/svg"><g filter="url(#filter0_d)"><path fill-rule="evenodd" clip-rule="evenodd" d="M75.629 55.342H191.24c11.088 0 20.077 8.541 20.077 19.077v261.162c0 10.536-8.989 19.077-20.077 19.077H75.629c-11.088 0-20.077-8.541-20.077-19.077V74.419c0-10.536 8.989-19.077 20.077-19.077z" fill="#213648"/></g><g fill-rule="evenodd" clip-rule="evenodd"><path opacity=".596" d="M191.688 55H75.113c-5.443.33-10.462 2.794-15.058 7.394 2.956-2.56 8.228-5.987 15.198-5.987h116.295c6.971 0 12.243 3.427 15.199 5.987-4.597-4.6-9.616-7.065-15.059-7.394z" fill="url(#paint0_linear)" fill-opacity=".65"/><path opacity=".75" d="M208.163 332.603V75.989c0-6.885-2.549-9.43-4.071-11.065-1.521-1.634-1.585-2.468.6-1.234 2.186 1.234 6.557 4.828 6.557 12.3v256.613c0 7.47-4.371 11.064-6.557 12.298-2.185 1.234-2.121.401-.6-1.234 1.522-1.634 4.071-4.179 4.071-11.064z" fill="url(#paint1_linear)"/><path opacity=".75" d="M58.638 332.603V75.989c0-6.885 2.55-9.43 4.07-11.065 1.522-1.634 1.587-2.468-.599-1.234-2.185 1.234-6.556 4.828-6.556 12.3v256.613c0 7.47 4.37 11.064 6.556 12.298s2.12.401.6-1.234c-1.521-1.634-4.07-4.179-4.07-11.064z" fill="url(#paint2_linear)"/></g><g fill-rule="evenodd" clip-rule="evenodd" fill="#2E423C"><path d="M54 117.435a1.5 1.5 0 113.001 0v35.609a1.5 1.5 0 01-3.001 0v-35.609zM209.696 148.927a1.501 1.501 0 113.002 0v25.168a1.501 1.501 0 11-3.002 0v-25.168z"/></g><g><path fill-rule="evenodd" clip-rule="evenodd" d="M119.701 62.467H74.718c-6.713 0-11.605 4.538-11.605 10.465v253.433c0 7.728 7.559 14.576 16.105 14.576h108.418c8.233 0 16.105-6.901 16.105-14.576V73.617c0-7.104-5.313-11.108-11.604-11.15H146.44c-.173.028-3.312 1.309-4.639 4.538-1.327 3.229-3.996 5.803-6.919 5.803h-3.394c-1.39 0-5.047-1.338-6.899-5.803-1.852-4.465-4.714-4.51-4.888-4.538z" fill="#fff"/><mask id="a" maskUnits="userSpaceOnUse" x="63" y="62" width="141" height="279"><path fill-rule="evenodd" clip-rule="evenodd" d="M119.701 62.467H74.718c-6.713 0-11.605 4.538-11.605 10.465v253.433c0 7.728 7.559 14.576 16.105 14.576h108.418c8.233 0 16.105-6.901 16.105-14.576V73.617c0-7.104-5.313-11.108-11.604-11.15H146.44c-.173.028-3.312 1.309-4.639 4.538-1.327 3.229-3.996 5.803-6.919 5.803h-3.394c-1.39 0-5.047-1.338-6.899-5.803-1.852-4.465-4.714-4.51-4.888-4.538z" fill="#fff"/></mask><g mask="url(#a)"><path fill="url(#paint3_linear)" d="M63 62h141v279H63z"/><path fill-rule="evenodd" clip-rule="evenodd" d="M127.452 136.639V139h-10.273v-2.093c0-.704.132-1.313.397-1.828a4.476 4.476 0 011.049-1.344 8.259 8.259 0 011.432-1.004 34.8 34.8 0 011.562-.816 20.449 20.449 0 001.437-.772c.435-.26.785-.549 1.049-.869.264-.32.397-.698.397-1.133 0-.557-.195-1.011-.586-1.363-.39-.352-.923-.528-1.6-.528-.703 0-1.3.201-1.79.605-.49.403-.793 1.011-.909 1.824h-2.699c.013-.884.221-1.685.624-2.405.403-.72 1.008-1.291 1.814-1.714.806-.422 1.818-.633 3.037-.633 1.045 0 1.946.176 2.704.528.757.352 1.342.841 1.755 1.468.413.628.619 1.36.619 2.199 0 .697-.129 1.299-.387 1.805a4.135 4.135 0 01-1.025 1.296 7.845 7.845 0 01-1.403.94c-.509.269-1.017.519-1.523.749a18.53 18.53 0 00-1.398.706c-.425.24-.767.51-1.025.811a1.61 1.61 0 00-.387 1.085v.125h7.129zm-13.455-11.52V139h-2.863v-10.397h-2.496v-1.584c.8 0 1.446-.075 1.939-.225.494-.151.863-.368 1.108-.653a1.85 1.85 0 00.435-1.022h1.877zm18.427 7.2v-3.005h-3.096v3.005h3.096zm0 3.628v2.996h-3.096v-2.996h3.096zM143.567 139v-3.072h2.157v-2.352h-2.157v-8.457h-2.776l-6.375 8.505v2.304h6.443l-.01 3.072h2.718zm-6.539-5.424h3.831v-5.088l-3.831 5.088zm15.235 5.635c1.225 0 2.28-.273 3.163-.82.884-.548 1.562-1.373 2.036-2.477.474-1.104.711-2.485.711-4.143 0-1.388-.23-2.596-.691-3.624-.461-1.027-1.122-1.82-1.983-2.38-.861-.56-1.885-.84-3.071-.84-1.058 0-1.98.201-2.767.604-.787.404-1.399.96-1.838 1.671-.438.71-.657 1.52-.657 2.429 0 .902.207 1.681.623 2.337.416.656.99 1.162 1.722 1.517s1.572.533 2.52.533c.522 0 .996-.069 1.422-.207a3.504 3.504 0 001.117-.585c.319-.253.569-.549.75-.888.077 1.107-.011 2.003-.266 2.688s-.635 1.184-1.142 1.497c-.506.314-1.094.471-1.765.471-.606 0-1.109-.168-1.509-.504a2.29 2.29 0 01-.774-1.311h-2.689c.058.813.326 1.522.803 2.127a4.741 4.741 0 001.848 1.406 5.966 5.966 0 002.437.499zm-1.422-8.02c.426.4.984.6 1.674.6.393 0 .775-.088 1.146-.264.371-.176.675-.399.914-.668.239-.268.358-.547.358-.835.006-.621-.092-1.153-.295-1.598-.203-.445-.487-.786-.851-1.023a2.291 2.291 0 00-1.272-.355 2.31 2.31 0 00-1.19.307 2.18 2.18 0 00-.822.864c-.2.372-.3.8-.3 1.287 0 .723.213 1.285.638 1.685z" fill="#fff"/></g></g><g clip-path="url(#clip0)"><g filter="url(#filter1_d)"><rect x="66.805" y="155" width="131.255" height="53.191" rx="5" fill="#FBFCFE"/></g><g fill-rule="evenodd" clip-rule="evenodd"><path d="M78.886 170.285v-1.859l1.515-2.561h-.96l-.991 1.791-1.003-1.791h-.95l1.51 2.558v1.862h.88zm3.285.061c.317 0 .587-.069.811-.208a1.36 1.36 0 00.515-.573c.12-.244.179-.524.179-.842 0-.339-.061-.632-.184-.881a1.359 1.359 0 00-.52-.576 1.52 1.52 0 00-.798-.203c-.307 0-.574.069-.8.208-.225.138-.4.332-.523.581a1.935 1.935 0 00-.186.871c0 .332.062.619.186.862.123.242.298.43.523.562.226.133.492.199.797.199zm-.386-.807a.52.52 0 00.389.144.512.512 0 00.373-.138.803.803 0 00.206-.362 1.77 1.77 0 00.065-.491c0-.167-.02-.325-.059-.474a.758.758 0 00-.2-.36.528.528 0 00-.385-.138.534.534 0 00-.375.13.755.755 0 00-.21.352 1.701 1.701 0 00-.066.49c0 .165.02.324.06.476.04.151.108.275.202.371zm3.622.807c.122 0 .247-.019.375-.057a.789.789 0 00.34-.204.803.803 0 00.203-.427l.102.627h.663v-3.161h-.87v2.057c0 .163-.05.29-.152.381a.592.592 0 01-.411.136c-.183 0-.321-.047-.416-.141a.485.485 0 01-.141-.36v-2.073h-.88v2.186c0 .169.035.318.105.446.069.128.16.236.275.324.115.088.242.154.381.199.14.045.282.067.426.067zm3.275-1.791v1.73h-.879v-3.161h.846v.749c.05-.161.121-.302.213-.423a.943.943 0 01.855-.383.177.177 0 01.055.014v.85a.198.198 0 00-.065-.015 3.41 3.41 0 01-.067-.006 1.566 1.566 0 00-.443.015.701.701 0 00-.298.125.513.513 0 00-.165.217.775.775 0 00-.052.288zm3.516 1.73l.365-1.024h1.565l.356 1.024h.876l-1.557-4.42h-.927l-1.56 4.42h.882zm.56-1.804h1.16l-.576-1.754-.584 1.754zm4.022 2.788v-1.458c.045.075.096.145.156.209a1.03 1.03 0 00.446.285.963.963 0 00.283.041c.245 0 .465-.059.66-.177.194-.118.347-.3.459-.546.111-.246.167-.56.167-.943 0-.369-.052-.673-.155-.913a1.143 1.143 0 00-.426-.531 1.116 1.116 0 00-.617-.173 1.132 1.132 0 00-.796.31.977.977 0 00-.17.206l-.004-.455h-.882v4.145h.88zm.297-1.718c.1.094.225.141.378.141.19 0 .35-.081.48-.242.13-.161.194-.415.194-.764 0-.306-.062-.545-.185-.717a.574.574 0 00-.49-.258.551.551 0 00-.506.28c-.112.186-.168.418-.168.695 0 .177.025.342.074.495.05.153.124.276.223.37zm3.337 1.718v-1.458c.044.075.096.145.155.209a1.006 1.006 0 00.73.326c.245 0 .465-.059.659-.177.195-.118.348-.3.459-.546.112-.246.168-.56.168-.943 0-.369-.052-.673-.155-.913a1.151 1.151 0 00-.426-.531 1.12 1.12 0 00-.618-.173 1.15 1.15 0 00-.966.516l-.003-.455h-.882v4.145h.879zm.297-1.718a.526.526 0 00.377.141.596.596 0 00.481-.242c.129-.161.194-.415.194-.764 0-.306-.062-.545-.185-.717a.576.576 0 00-.49-.258.55.55 0 00-.507.28c-.111.186-.167.418-.167.695 0 .177.025.342.074.495a.852.852 0 00.223.37z" fill="#BA4270"/><path opacity=".5" d="M164.691 170.218c-.133.085-.322.128-.567.128-.155 0-.3-.018-.435-.055a2.543 2.543 0 01-.27-.083l.039-.541c.063.023.134.051.216.084a.784.784 0 00.302.051c.197 0 .332-.055.405-.165.073-.11.11-.296.11-.557v-3.215h.557v3.377c0 .235-.026.435-.078.6a.668.668 0 01-.279.376zm2.833.062a1.151 1.151 0 01-.411.066 1.564 1.564 0 01-.459-.072 1.163 1.163 0 01-.381-.203.947.947 0 01-.26-.335 1.08 1.08 0 01-.095-.466v-2.146h.557v2.088c0 .206.063.373.188.501.125.129.315.193.568.193.228 0 .412-.061.552-.182.139-.121.209-.302.209-.543v-2.057h.554v3.161h-.442l-.058-.605a.84.84 0 01-.194.385.823.823 0 01-.328.215zm2.997.066c.253 0 .468-.038.646-.115a.916.916 0 00.409-.324.865.865 0 00.143-.499.881.881 0 00-.035-.243.771.771 0 00-.34-.454 1.14 1.14 0 00-.356-.153l-.624-.159a1.152 1.152 0 01-.391-.161.309.309 0 01-.132-.264c0-.169.062-.294.186-.375a.885.885 0 01.485-.12c.191 0 .343.044.456.133.113.088.18.208.2.359h.491c-.008-.298-.116-.523-.324-.677-.207-.154-.48-.231-.817-.231-.263 0-.483.041-.659.122a.906.906 0 00-.398.333.885.885 0 00-.129.489c0 .235.075.417.226.548.15.13.351.226.602.287l.644.162c.14.033.244.084.311.154a.387.387 0 01.101.28.403.403 0 01-.192.367.957.957 0 01-.506.119c-.131 0-.251-.021-.361-.062a.68.68 0 01-.276-.187.69.69 0 01-.152-.31h-.506c.033.226.11.412.232.558.123.145.277.252.462.321.186.068.387.102.604.102zm3.442-.061c-.077.01-.173.015-.287.015-.215 0-.381-.029-.5-.088a.5.5 0 01-.248-.263 1.147 1.147 0 01-.071-.428v-1.984h-.506v-.413h.521l.136-.92h.409v.917h.701v.416h-.701v1.965c0 .112.012.194.035.246a.17.17 0 00.117.1.965.965 0 00.227.021h.34v.379a.83.83 0 01-.173.037zm3.015 0V166.8l2.336 3.485h.497v-4.42h-.557v3.436l-2.3-3.436h-.533v4.42h.557zm5.884-.145c-.21.137-.469.206-.778.206-.287 0-.538-.063-.753-.188a1.255 1.255 0 01-.499-.552c-.119-.242-.178-.539-.178-.889 0-.33.055-.62.166-.869.11-.248.272-.441.486-.579.214-.137.473-.206.778-.206.287 0 .536.064.748.191.212.127.376.314.492.561.117.246.175.547.175.902 0 .322-.054.605-.161.85a1.292 1.292 0 01-.476.573zm-.778-.24a.765.765 0 01-.503-.159.929.929 0 01-.283-.431 1.923 1.923 0 01-.09-.606c0-.25.034-.465.101-.645a.87.87 0 01.296-.411.792.792 0 01.479-.142c.205 0 .371.053.498.159a.897.897 0 01.279.43c.058.18.087.383.087.609 0 .247-.033.46-.099.639a.884.884 0 01-.292.413.769.769 0 01-.473.144zm4.04-1.948l-.674 2.333h-.545l-.961-3.161h.515l.714 2.43h.048l.701-2.43h.422l.728 2.424h.048l.684-2.424h.521l-.943 3.161h-.548l-.71-2.333z" fill="#36536B"/></g><path d="M76.15 177.353v-.553h3.555v.553h-1.433v4.147h-.605v-4.147H76.15zm4.207 4.147v-4.83h.585v1.963a1.116 1.116 0 01.575-.458c.136-.052.294-.078.474-.078.22 0 .418.041.595.124.178.08.319.195.423.344a.91.91 0 01.156.533v2.402h-.602v-2.282a.554.554 0 00-.208-.464c-.136-.111-.315-.166-.536-.166-.15 0-.29.025-.422.075a.72.72 0 00-.322.221.567.567 0 00-.12.373v2.243h-.598zm4.174-1.541c0 .213.034.406.104.579a.926.926 0 00.322.409.921.921 0 00.542.153 1 1 0 00.553-.149.67.67 0 00.299-.433h.569c-.042.228-.133.42-.273.576a1.36 1.36 0 01-.51.354c-.2.078-.408.117-.625.117-.314 0-.59-.068-.829-.205a1.418 1.418 0 01-.559-.588c-.134-.256-.201-.562-.201-.92 0-.353.06-.663.182-.929.121-.267.297-.475.526-.624.232-.15.51-.225.836-.225.316 0 .584.069.802.205.22.137.385.33.498.579.115.247.172.54.172.88v.221h-2.408zm.003-.406h1.826c0-.193-.032-.366-.097-.52a.796.796 0 00-.299-.367.863.863 0 00-.5-.137.86.86 0 00-.524.153.938.938 0 00-.308.387 1.17 1.17 0 00-.098.484zm4.684 2.994v-4.408h.598l.007.585c.039-.069.088-.141.149-.217.063-.076.139-.147.228-.212a1.223 1.223 0 01.727-.221c.27 0 .505.062.709.186.206.121.366.307.481.559.115.251.172.57.172.955 0 .386-.056.712-.169.978a1.3 1.3 0 01-.48.605c-.211.139-.465.208-.761.208-.15 0-.283-.022-.4-.065a1.065 1.065 0 01-.517-.384 1.737 1.737 0 01-.14-.224v1.655h-.604zm1.547-1.45a.844.844 0 00.68-.315c.175-.213.263-.542.263-.988 0-.384-.08-.688-.241-.914-.16-.225-.394-.338-.702-.338-.312 0-.548.116-.709.348-.16.23-.24.531-.24.904 0 .24.036.459.107.656.072.197.178.354.319.471.14.117.315.176.523.176zm3.197.468c-.216 0-.408-.038-.575-.114a.925.925 0 01-.393-.335.952.952 0 01-.14-.526c0-.373.13-.65.39-.832.26-.182.677-.28 1.251-.293l.602-.016v-.263c0-.206-.062-.368-.186-.488-.123-.121-.315-.182-.575-.182a.998.998 0 00-.51.137c-.145.089-.24.234-.283.435h-.53c.013-.218.075-.403.186-.552.11-.152.264-.267.461-.345.2-.078.435-.117.705-.117.293 0 .536.042.728.124a.89.89 0 01.436.364c.097.16.146.357.146.591v2.347h-.513l-.043-.631c-.13.263-.295.445-.497.546-.2.1-.42.15-.66.15zm.182-.432a.956.956 0 00.335-.062c.113-.041.216-.096.309-.166a.894.894 0 00.22-.237.528.528 0 00.089-.273v-.575l-.5.01c-.256.004-.471.03-.644.077a.761.761 0 00-.387.225.605.605 0 00-.127.399c0 .189.065.336.195.442.132.107.302.16.51.16zm2.781 1.44c-.197 0-.332-.015-.406-.043l-.11-.042v-.39l.34.007c.127.004.23-.005.313-.026a.585.585 0 00.198-.088.403.403 0 00.114-.124.933.933 0 00.068-.13l.117-.318-1.313-3.28h.608l.991 2.594.985-2.594h.588l-1.417 3.615a1.684 1.684 0 01-.292.497.881.881 0 01-.358.25 1.22 1.22 0 01-.426.072zm3.135-1.073v-3.361h.578v.488c.093-.147.221-.276.384-.387.162-.11.374-.166.634-.166.121 0 .244.021.37.062.128.041.245.103.351.185a.86.86 0 01.247.303c.104-.165.245-.297.423-.397.177-.102.378-.153.601-.153.117 0 .239.019.367.056a.95.95 0 01.624.562c.069.158.104.362.104.611v2.197h-.604v-2.139c0-.203-.033-.36-.098-.471a.543.543 0 00-.257-.237.815.815 0 00-.334-.068c-.104 0-.215.02-.332.061a.691.691 0 00-.299.208.603.603 0 00-.123.4v2.246h-.598v-2.314a.511.511 0 00-.108-.332.656.656 0 00-.263-.201.764.764 0 00-.312-.068.944.944 0 00-.348.068.693.693 0 00-.292.218.593.593 0 00-.117.383v2.246h-.598zm6.053-1.541c0 .213.034.406.104.579a.923.923 0 00.322.409.92.92 0 00.542.153 1 1 0 00.553-.149.673.673 0 00.299-.433h.569c-.042.228-.133.42-.273.576a1.359 1.359 0 01-.511.354 1.695 1.695 0 01-.624.117 1.63 1.63 0 01-.828-.205 1.411 1.411 0 01-.559-.588c-.135-.256-.202-.562-.202-.92 0-.353.061-.663.182-.929.121-.267.297-.475.527-.624.231-.15.51-.225.835-.225.316 0 .584.069.803.205a1.3 1.3 0 01.497.579c.115.247.172.54.172.88v.221h-2.408zm.003-.406h1.827c0-.193-.033-.366-.098-.52a.797.797 0 00-.299-.367.862.862 0 00-.5-.137.86.86 0 00-.524.153.938.938 0 00-.308.387c-.068.156-.1.317-.098.484zm3.23 1.947v-3.361h.582v.488c.054-.093.129-.181.224-.263.098-.083.215-.149.351-.199.139-.049.298-.074.478-.074.212 0 .407.042.585.127.18.084.323.216.429.396.108.178.163.407.163.689v2.197h-.602v-2.139c0-.262-.069-.456-.208-.581a.747.747 0 00-.533-.192c-.151 0-.293.025-.425.075a.714.714 0 00-.322.221.555.555 0 00-.124.37v2.246h-.598zm5.3-2.922h-.757v2.09c0 .119.012.207.036.263a.185.185 0 00.127.104c.06.015.143.023.247.023h.367v.403a.945.945 0 01-.189.039 2.397 2.397 0 01-.308.016c-.232 0-.412-.031-.54-.094a.538.538 0 01-.27-.28 1.233 1.233 0 01-.074-.454v-2.11h-.546v-.439h.562l.146-.978h.442v.975h.757v.442zm2.362 2.922v-4.83h.585v1.963a1.13 1.13 0 01.575-.458c.137-.052.295-.078.475-.078.219 0 .417.041.594.124.178.08.319.195.423.344a.91.91 0 01.156.533v2.402h-.601v-2.282a.556.556 0 00-.208-.464c-.137-.111-.316-.166-.537-.166-.149 0-.29.025-.422.075a.725.725 0 00-.322.221.568.568 0 00-.12.373v2.243h-.598zm4.662.065a1.37 1.37 0 01-.575-.114.93.93 0 01-.394-.335.953.953 0 01-.139-.526c0-.373.13-.65.39-.832.26-.182.677-.28 1.251-.293l.601-.016v-.263a.65.65 0 00-.185-.488c-.124-.121-.315-.182-.575-.182a1.002 1.002 0 00-.511.137c-.145.089-.239.234-.282.435h-.53c.013-.218.075-.403.185-.552.111-.152.264-.267.462-.345.199-.078.434-.117.705-.117.292 0 .535.042.728.124.195.082.34.204.435.364.098.16.147.357.147.591v2.347h-.514l-.042-.631c-.13.263-.296.445-.497.546-.2.1-.42.15-.66.15zm.182-.432a.959.959 0 00.335-.062c.112-.041.215-.096.308-.166a.878.878 0 00.221-.237.521.521 0 00.088-.273v-.575l-.5.01c-.256.004-.471.03-.644.077a.764.764 0 00-.387.225.607.607 0 00-.126.399c0 .189.065.336.195.442.132.107.302.16.51.16zm3.693.432c-.234 0-.452-.036-.653-.107a1.19 1.19 0 01-.498-.342 1.155 1.155 0 01-.25-.594h.546a.752.752 0 00.163.331c.08.087.18.153.299.198.119.044.249.065.39.065.225 0 .407-.042.546-.126a.427.427 0 00.208-.39.399.399 0 00-.111-.296.647.647 0 00-.335-.166l-.695-.172a1.531 1.531 0 01-.65-.306c-.163-.138-.244-.332-.244-.581a.93.93 0 01.14-.52.96.96 0 01.429-.355c.191-.086.428-.13.712-.13.364 0 .657.083.88.247.226.163.343.402.351.719h-.529a.554.554 0 00-.218-.381c-.121-.095-.285-.143-.491-.143a.956.956 0 00-.523.13c-.134.085-.202.217-.202.397 0 .119.048.213.143.283.096.067.237.123.423.169l.673.169c.156.041.284.095.383.162a.902.902 0 01.241.224.917.917 0 01.165.517.908.908 0 01-.156.533.99.99 0 01-.442.345c-.19.08-.422.12-.695.12zm5.267 0c-.197 0-.364-.026-.501-.078a1.025 1.025 0 01-.533-.449 1.477 1.477 0 01-.104-.227l-.065.689h-.458v-4.83h.605v2.002a.982.982 0 01.351-.38 1.261 1.261 0 01.75-.218c.421 0 .754.147 1.001.439.249.293.374.724.374 1.294 0 .353-.053.662-.159.926a1.344 1.344 0 01-.475.614c-.21.145-.472.218-.786.218zm-.107-.462a.819.819 0 00.666-.315c.171-.212.257-.549.257-1.011 0-.392-.081-.695-.241-.91-.158-.216-.39-.325-.695-.325-.224 0-.403.049-.54.147a.837.837 0 00-.299.419 2.13 2.13 0 00-.097.669c0 .471.072.81.217 1.018.148.206.391.308.732.308zm2.741-1.144c0 .213.034.406.104.579a.923.923 0 00.322.409.92.92 0 00.542.153 1 1 0 00.553-.149.673.673 0 00.299-.433h.569c-.042.228-.133.42-.273.576a1.359 1.359 0 01-.511.354 1.695 1.695 0 01-.624.117 1.63 1.63 0 01-.828-.205 1.411 1.411 0 01-.559-.588c-.135-.256-.202-.562-.202-.92 0-.353.061-.663.182-.929.121-.267.297-.475.527-.624.231-.15.51-.225.835-.225.316 0 .584.069.803.205a1.3 1.3 0 01.497.579c.115.247.172.54.172.88v.221h-2.408zm.003-.406h1.827c0-.193-.033-.366-.098-.52a.797.797 0 00-.299-.367.862.862 0 00-.5-.137.86.86 0 00-.524.153.938.938 0 00-.308.387c-.068.156-.1.317-.098.484zm3.659.406c0 .213.035.406.104.579a.93.93 0 00.322.409.92.92 0 00.543.153c.214 0 .399-.05.552-.149a.67.67 0 00.299-.433h.569a1.14 1.14 0 01-.273.576 1.363 1.363 0 01-.51.354 1.695 1.695 0 01-.624.117c-.314 0-.591-.068-.829-.205a1.418 1.418 0 01-.559-.588c-.134-.256-.201-.562-.201-.92 0-.353.06-.663.182-.929.121-.267.296-.475.526-.624.232-.15.51-.225.835-.225.317 0 .584.069.803.205.219.137.385.33.497.579.115.247.173.54.173.88v.221h-2.409zm.004-.406h1.826c0-.193-.032-.366-.097-.52a.797.797 0 00-.299-.367.865.865 0 00-.501-.137.86.86 0 00-.832.54 1.16 1.16 0 00-.097.484zm3.23 1.947v-3.361h.582v.488c.054-.093.129-.181.224-.263.097-.083.214-.149.351-.199.139-.049.298-.074.478-.074.212 0 .407.042.585.127.18.084.323.216.429.396.108.178.162.407.162.689v2.197h-.601v-2.139c0-.262-.069-.456-.208-.581a.748.748 0 00-.533-.192c-.152 0-.294.025-.426.075a.725.725 0 00-.322.221.555.555 0 00-.123.37v2.246h-.598zm5.249 1.047v-4.408h.598l.007.585a1.258 1.258 0 01.377-.429 1.224 1.224 0 01.728-.221c.269 0 .505.062.708.186.206.121.367.307.481.559.115.251.173.57.173.955 0 .386-.057.712-.169.978a1.305 1.305 0 01-.481.605c-.21.139-.464.208-.761.208-.149 0-.283-.022-.4-.065a1.08 1.08 0 01-.516-.384 1.687 1.687 0 01-.14-.224v1.655h-.605zm1.547-1.45a.846.846 0 00.68-.315c.175-.213.263-.542.263-.988 0-.384-.08-.688-.241-.914-.16-.225-.394-.338-.702-.338-.312 0-.548.116-.708.348-.16.23-.241.531-.241.904 0 .24.036.459.108.656.071.197.177.354.318.471a.791.791 0 00.523.176zm2.313.403v-3.361h.572v.647c.056-.16.135-.292.237-.396a.992.992 0 01.348-.238 1.109 1.109 0 01.556-.068.32.32 0 01.11.033v.581a.397.397 0 00-.127-.029 1.102 1.102 0 00-.126-.01 1.36 1.36 0 00-.377.026.854.854 0 00-.309.127.649.649 0 00-.211.241.773.773 0 00-.075.357v2.09h-.598zm3.779.065c-.309 0-.58-.066-.812-.198a1.362 1.362 0 01-.54-.589c-.127-.257-.191-.573-.191-.945 0-.351.059-.659.178-.923.12-.265.294-.469.524-.615.232-.147.512-.221.841-.221.31 0 .579.069.806.205.23.135.408.333.533.595.126.262.189.582.189.959 0 .342-.059.643-.176.903-.114.26-.286.464-.513.611-.225.145-.505.218-.839.218zm0-.475c.202 0 .372-.05.511-.152a.94.94 0 00.315-.439c.071-.191.107-.417.107-.679 0-.241-.031-.456-.094-.647a.955.955 0 00-.302-.458c-.137-.113-.316-.169-.537-.169a.863.863 0 00-.516.152.925.925 0 00-.322.436 1.946 1.946 0 00-.107.686c0 .236.032.45.097.643a.968.968 0 00.306.458c.138.113.319.169.542.169zm3.654-3.016c.24 0 .457.047.65.14.192.091.35.221.471.39.123.169.2.369.231.598h-.533a.749.749 0 00-.137-.322.754.754 0 00-.276-.234.883.883 0 00-.403-.087.885.885 0 00-.702.312c-.18.208-.27.526-.27.955 0 .388.082.699.247.933.167.232.412.348.735.348a.793.793 0 00.676-.325.802.802 0 00.133-.319h.523a1.202 1.202 0 01-.702.969 1.503 1.503 0 01-.643.133c-.302 0-.569-.066-.803-.198a1.371 1.371 0 01-.546-.585c-.132-.258-.198-.574-.198-.949 0-.351.059-.658.178-.92.122-.264.297-.47.527-.618a1.54 1.54 0 01.842-.221zm2.594 1.885c0 .213.034.406.104.579a.92.92 0 00.321.409.92.92 0 00.543.153 1 1 0 00.553-.149.673.673 0 00.299-.433h.568a1.14 1.14 0 01-.273.576 1.363 1.363 0 01-.51.354 1.695 1.695 0 01-.624.117c-.314 0-.59-.068-.829-.205a1.424 1.424 0 01-.559-.588c-.134-.256-.201-.562-.201-.92 0-.353.06-.663.182-.929.121-.267.297-.475.526-.624.232-.15.511-.225.836-.225.316 0 .583.069.802.205.219.137.385.33.498.579.114.247.172.54.172.88v.221h-2.408zm.003-.406h1.826c0-.193-.032-.366-.097-.52a.797.797 0 00-.299-.367.863.863 0 00-.501-.137.86.86 0 00-.523.153.948.948 0 00-.309.387 1.176 1.176 0 00-.097.484zm4.397 2.012c-.234 0-.451-.036-.653-.107a1.187 1.187 0 01-.497-.342 1.147 1.147 0 01-.25-.594h.546a.74.74 0 00.162.331c.08.087.18.153.299.198.119.044.249.065.39.065.226 0 .408-.042.546-.126a.425.425 0 00.208-.39.402.402 0 00-.11-.296.651.651 0 00-.335-.166l-.696-.172a1.543 1.543 0 01-.65-.306c-.162-.138-.243-.332-.243-.581a.93.93 0 01.139-.52.972.972 0 01.429-.355c.191-.086.428-.13.712-.13.364 0 .658.083.881.247.225.163.342.402.351.719h-.53a.547.547 0 00-.218-.381c-.121-.095-.284-.143-.49-.143a.96.96 0 00-.524.13c-.134.085-.201.217-.201.397 0 .119.048.213.143.283.095.067.236.123.422.169l.673.169c.156.041.284.095.384.162a.882.882 0 01.24.224.917.917 0 01.166.517.908.908 0 01-.156.533.996.996 0 01-.442.345 1.8 1.8 0 01-.696.12zm3.27 0c-.234 0-.452-.036-.654-.107a1.187 1.187 0 01-.497-.342 1.147 1.147 0 01-.25-.594h.546a.74.74 0 00.162.331c.08.087.18.153.299.198.119.044.249.065.39.065.226 0 .408-.042.546-.126a.425.425 0 00.208-.39.402.402 0 00-.11-.296.651.651 0 00-.335-.166l-.695-.172a1.531 1.531 0 01-.65-.306c-.163-.138-.244-.332-.244-.581a.922.922 0 01.14-.52.96.96 0 01.429-.355c.19-.086.427-.13.711-.13.364 0 .658.083.881.247.225.163.342.402.351.719h-.53a.549.549 0 00-.217-.381c-.122-.095-.285-.143-.491-.143a.953.953 0 00-.523.13c-.135.085-.202.217-.202.397 0 .119.048.213.143.283.095.067.236.123.423.169l.672.169c.156.041.284.095.384.162a.882.882 0 01.24.224.917.917 0 01.166.517.908.908 0 01-.156.533.996.996 0 01-.442.345c-.191.08-.422.12-.695.12zm2.562-1.606c0 .213.035.406.104.579a.923.923 0 00.322.409.92.92 0 00.542.153 1 1 0 00.553-.149.67.67 0 00.299-.433h.569a1.14 1.14 0 01-.273.576 1.359 1.359 0 01-.511.354 1.695 1.695 0 01-.624.117 1.63 1.63 0 01-.828-.205 1.411 1.411 0 01-.559-.588c-.135-.256-.202-.562-.202-.92 0-.353.061-.663.182-.929a1.43 1.43 0 01.527-.624c.232-.15.51-.225.835-.225.316 0 .584.069.803.205.219.137.384.33.497.579.115.247.172.54.172.88v.221h-2.408zm.003-.406h1.827c0-.193-.033-.366-.098-.52a.791.791 0 00-.299-.367.862.862 0 00-.5-.137.863.863 0 00-.524.153.938.938 0 00-.308.387c-.067.156-.1.317-.098.484zm4.443 2.012c-.436 0-.781-.15-1.037-.449-.256-.299-.383-.735-.383-1.309 0-.349.05-.654.152-.914.104-.26.258-.461.462-.604.203-.143.457-.215.76-.215.161 0 .303.021.426.062.126.041.234.093.325.156a1.108 1.108 0 01.351.38v-2.002h.605v4.83h-.459l-.065-.689a1.307 1.307 0 01-.104.227 1.09 1.09 0 01-.201.251c-.087.08-.198.146-.335.198-.134.052-.3.078-.497.078zm.107-.462c.34 0 .583-.102.728-.308.147-.208.221-.547.221-1.018a2.066 2.066 0 00-.101-.669.809.809 0 00-.299-.419c-.134-.098-.313-.147-.536-.147a.859.859 0 00-.676.296c-.173.197-.26.51-.26.939 0 .421.078.747.234.979.158.232.388.347.689.347zm2.407.397v-.767h.715v.767h-.715zm-100.52 3.853v-.553h3.555v.553h-1.433v4.147h-.605v-4.147H76.15zm4.207 4.147v-4.83h.585v1.963a1.116 1.116 0 01.575-.458c.136-.052.294-.078.474-.078.22 0 .418.041.595.124.178.08.319.195.423.344a.91.91 0 01.156.533v2.402h-.602v-2.282a.554.554 0 00-.208-.464c-.136-.111-.315-.166-.536-.166-.15 0-.29.025-.422.075a.72.72 0 00-.322.221.567.567 0 00-.12.373v2.243h-.598zm4.174-1.541c0 .213.034.406.104.579a.926.926 0 00.322.409.921.921 0 00.542.153 1 1 0 00.553-.149.67.67 0 00.299-.433h.569c-.042.228-.133.42-.273.576a1.36 1.36 0 01-.51.354c-.2.078-.408.117-.625.117-.314 0-.59-.068-.829-.205a1.418 1.418 0 01-.559-.588c-.134-.256-.201-.562-.201-.92 0-.353.06-.663.182-.929.121-.267.297-.475.526-.624.232-.15.51-.225.836-.225.316 0 .584.069.802.205.22.137.385.33.498.579.115.247.172.54.172.88v.221h-2.408zm.003-.406h1.826c0-.193-.032-.366-.097-.52a.796.796 0 00-.299-.367.863.863 0 00-.5-.137.86.86 0 00-.524.153.938.938 0 00-.308.387 1.17 1.17 0 00-.098.484zm6.391-.975h-.757v2.09c0 .119.012.207.036.263a.186.186 0 00.127.104c.06.015.142.023.246.023h.368v.403a.95.95 0 01-.189.039 2.41 2.41 0 01-.308.016c-.232 0-.412-.031-.54-.094a.538.538 0 01-.27-.28 1.214 1.214 0 01-.075-.454v-2.11h-.546v-.439h.563l.146-.978h.442v.975h.757v.442zm2.11 2.987c-.31 0-.58-.066-.812-.198a1.361 1.361 0 01-.54-.589c-.127-.257-.191-.573-.191-.945 0-.351.06-.659.179-.923.119-.265.293-.469.523-.615a1.54 1.54 0 01.842-.221c.31 0 .578.069.806.205.23.135.407.333.533.595.125.262.188.582.188.959 0 .342-.058.643-.175.903-.115.26-.286.464-.514.611-.225.145-.505.218-.838.218zm0-.475c.202 0 .372-.05.51-.152a.932.932 0 00.316-.439c.072-.191.107-.417.107-.679a2.06 2.06 0 00-.094-.647.949.949 0 00-.302-.458c-.137-.113-.315-.169-.536-.169a.864.864 0 00-.517.152.925.925 0 00-.322.436 1.957 1.957 0 00-.107.686c0 .236.032.45.097.643a.97.97 0 00.306.458c.139.113.32.169.543.169zm3.914-2.512h-.757v2.09c0 .119.012.207.036.263a.186.186 0 00.126.104c.061.015.143.023.247.023h.368v.403a.95.95 0 01-.189.039 2.409 2.409 0 01-.309.016c-.231 0-.411-.031-.54-.094a.538.538 0 01-.269-.28 1.216 1.216 0 01-.075-.454v-2.11h-.546v-.439h.563l.146-.978h.442v.975h.757v.442zm1.768 2.987c-.217 0-.409-.038-.576-.114a.925.925 0 01-.393-.335.952.952 0 01-.14-.526c0-.373.13-.65.39-.832.26-.182.678-.28 1.252-.293l.601-.016v-.263c0-.206-.062-.368-.185-.488-.124-.121-.316-.182-.575-.182a.998.998 0 00-.51.137c-.146.089-.24.234-.284.435h-.53c.014-.218.076-.403.186-.552.11-.152.264-.267.462-.345.199-.078.434-.117.705-.117.292 0 .535.042.728.124.195.082.34.204.435.364.098.16.147.357.147.591v2.347h-.514l-.042-.631c-.13.263-.296.445-.498.546-.199.1-.419.15-.66.15zm.182-.432a.956.956 0 00.335-.062c.112-.041.215-.096.308-.166a.894.894 0 00.221-.237.528.528 0 00.088-.273v-.575l-.5.01c-.256.004-.47.03-.644.077a.761.761 0 00-.387.225.605.605 0 00-.126.399c0 .189.064.336.194.442.133.107.303.16.51.16zm3.405.409c-.182 0-.329-.025-.442-.075a.615.615 0 01-.256-.201.769.769 0 01-.121-.289 2.024 2.024 0 01-.029-.342v-3.965h.592v3.907c0 .169.032.296.097.38a.375.375 0 00.28.14l.182.003v.39a1.268 1.268 0 01-.303.052zm3.516.023a1.37 1.37 0 01-.575-.114.93.93 0 01-.394-.335.953.953 0 01-.139-.526c0-.373.13-.65.39-.832.26-.182.677-.28 1.251-.293l.601-.016v-.263a.65.65 0 00-.185-.488c-.124-.121-.315-.182-.575-.182a1.002 1.002 0 00-.511.137c-.145.089-.239.234-.282.435h-.53c.013-.218.075-.403.185-.552.111-.152.264-.267.462-.345.199-.078.434-.117.705-.117.292 0 .535.042.728.124.195.082.34.204.435.364.098.16.147.357.147.591v2.347h-.514l-.042-.631c-.13.263-.296.445-.497.546-.2.1-.42.15-.66.15zm.182-.432a.963.963 0 00.335-.062c.112-.041.215-.096.308-.166a.894.894 0 00.221-.237.521.521 0 00.088-.273v-.575l-.5.01c-.256.004-.471.03-.644.077a.764.764 0 00-.387.225.607.607 0 00-.126.399c0 .189.065.336.195.442.132.107.302.16.51.16zm2.557.367v-3.361h.579v.488c.093-.147.221-.276.383-.387.163-.11.374-.166.634-.166a1.197 1.197 0 01.722.247.872.872 0 01.247.303 1.16 1.16 0 01.422-.397c.178-.102.378-.153.601-.153.117 0 .24.019.368.056a.922.922 0 01.354.188c.11.089.2.214.27.374.069.158.104.362.104.611v2.197h-.605v-2.139c0-.203-.032-.36-.097-.471a.543.543 0 00-.257-.237.82.82 0 00-.335-.068 1 1 0 00-.331.061.691.691 0 00-.299.208.598.598 0 00-.124.4v2.246h-.598v-2.314a.516.516 0 00-.107-.332.662.662 0 00-.263-.201.764.764 0 00-.312-.068.944.944 0 00-.348.068.696.696 0 00-.293.218.593.593 0 00-.117.383v2.246h-.598zm6.96.065a1.61 1.61 0 01-.812-.198 1.362 1.362 0 01-.54-.589c-.128-.257-.192-.573-.192-.945 0-.351.06-.659.179-.923a1.38 1.38 0 01.523-.615c.232-.147.513-.221.842-.221.31 0 .579.069.806.205.23.135.407.333.533.595.126.262.189.582.189.959 0 .342-.059.643-.176.903-.115.26-.286.464-.513.611-.226.145-.505.218-.839.218zm0-.475c.202 0 .372-.05.51-.152a.935.935 0 00.316-.439c.071-.191.107-.417.107-.679 0-.241-.032-.456-.094-.647a.95.95 0 00-.303-.458c-.136-.113-.315-.169-.536-.169a.864.864 0 00-.517.152.917.917 0 00-.321.436 1.945 1.945 0 00-.108.686c0 .236.033.45.098.643a.974.974 0 00.305.458c.139.113.32.169.543.169zm3.492.475a1.751 1.751 0 01-.497-.075 1.27 1.27 0 01-.41-.218 1.02 1.02 0 01-.282-.354 1.146 1.146 0 01-.101-.497v-2.282h.601v2.22c0 .219.067.397.202.533.136.137.341.205.614.205.247 0 .445-.064.595-.192.151-.13.227-.323.227-.578v-2.188h.598v3.361h-.478l-.061-.644a.886.886 0 01-.212.41.886.886 0 01-.354.231c-.136.047-.284.07-.442.068zm2.529-.065v-3.361h.582v.488c.054-.093.129-.181.224-.263.098-.083.215-.149.351-.199.139-.049.298-.074.478-.074.212 0 .407.042.585.127.18.084.323.216.429.396.108.178.162.407.162.689v2.197h-.601v-2.139c0-.262-.069-.456-.208-.581a.747.747 0 00-.533-.192 1.2 1.2 0 00-.426.075.716.716 0 00-.321.221.55.55 0 00-.124.37v2.246h-.598zm5.3-2.922h-.757v2.09c0 .119.012.207.036.263a.185.185 0 00.127.104c.06.015.143.023.247.023h.367v.403a.945.945 0 01-.189.039 2.397 2.397 0 01-.308.016c-.232 0-.412-.031-.54-.094a.538.538 0 01-.27-.28 1.212 1.212 0 01-.074-.454v-2.11h-.546v-.439h.562l.146-.978h.442v.975h.757v.442zm3.492 2.987c-.436 0-.782-.15-1.037-.449-.256-.299-.384-.735-.384-1.309 0-.349.051-.654.153-.914.104-.26.258-.461.462-.604.203-.143.457-.215.76-.215.16 0 .302.021.426.062.125.041.234.093.325.156a1.137 1.137 0 01.351.38v-2.002h.604v4.83h-.458l-.065-.689a1.387 1.387 0 01-.104.227 1.118 1.118 0 01-.201.251c-.087.08-.199.146-.335.198-.135.052-.3.078-.497.078zm.107-.462c.34 0 .583-.102.728-.308.147-.208.221-.547.221-1.018a2.066 2.066 0 00-.101-.669.809.809 0 00-.299-.419c-.134-.098-.313-.147-.536-.147a.857.857 0 00-.676.296c-.174.197-.26.51-.26.939 0 .421.078.747.234.979.158.232.388.347.689.347zm2.975-1.144c0 .213.035.406.104.579a.93.93 0 00.322.409.92.92 0 00.543.153c.214 0 .398-.05.552-.149a.67.67 0 00.299-.433h.569a1.14 1.14 0 01-.273.576 1.363 1.363 0 01-.51.354c-.2.078-.408.117-.624.117-.315 0-.591-.068-.829-.205a1.411 1.411 0 01-.559-.588c-.135-.256-.202-.562-.202-.92 0-.353.061-.663.182-.929a1.43 1.43 0 01.527-.624c.232-.15.51-.225.835-.225.316 0 .584.069.803.205.219.137.384.33.497.579.115.247.172.54.172.88v.221h-2.408zm.003-.406h1.827c0-.193-.033-.366-.098-.52a.791.791 0 00-.299-.367.862.862 0 00-.5-.137.858.858 0 00-.832.54c-.067.156-.1.317-.098.484zm4.443 2.012c-.436 0-.781-.15-1.037-.449-.256-.299-.383-.735-.383-1.309 0-.349.051-.654.152-.914.104-.26.258-.461.462-.604.204-.143.457-.215.76-.215.161 0 .303.021.426.062.126.041.234.093.325.156a1.108 1.108 0 01.351.38v-2.002h.605v4.83h-.459l-.065-.689a1.307 1.307 0 01-.104.227 1.064 1.064 0 01-.201.251c-.087.08-.198.146-.335.198-.134.052-.3.078-.497.078zm.107-.462c.34 0 .583-.102.728-.308.147-.208.221-.547.221-1.018a2.066 2.066 0 00-.101-.669.803.803 0 00-.299-.419c-.134-.098-.313-.147-.536-.147a.859.859 0 00-.676.296c-.173.197-.26.51-.26.939 0 .421.078.747.234.979.158.232.388.347.689.347zm3.781.462a1.751 1.751 0 01-.497-.075 1.265 1.265 0 01-.409-.218 1.011 1.011 0 01-.283-.354 1.16 1.16 0 01-.101-.497v-2.282h.601v2.22c0 .219.068.397.202.533.136.137.341.205.614.205.247 0 .445-.064.595-.192.152-.13.227-.323.227-.578v-2.188h.598v3.361h-.477l-.062-.644a.885.885 0 01-.211.41.897.897 0 01-.355.231c-.136.047-.283.07-.442.068zm3.824-3.491c.241 0 .457.047.65.14.193.091.35.221.471.39.124.169.201.369.231.598h-.533a.765.765 0 00-.413-.556.88.88 0 00-.403-.087.885.885 0 00-.702.312c-.179.208-.269.526-.269.955 0 .388.082.699.247.933.166.232.411.348.734.348.154 0 .287-.03.4-.088a.78.78 0 00.276-.237.788.788 0 00.133-.319h.524a1.203 1.203 0 01-.702.969 1.508 1.508 0 01-.644.133c-.301 0-.569-.066-.803-.198a1.383 1.383 0 01-.546-.585c-.132-.258-.198-.574-.198-.949 0-.351.06-.658.179-.92.121-.264.297-.47.526-.618.232-.147.513-.221.842-.221zm3.764.504h-.757v2.09c0 .119.012.207.036.263a.185.185 0 00.127.104c.06.015.143.023.247.023h.367v.403a.945.945 0 01-.189.039 2.397 2.397 0 01-.308.016c-.232 0-.412-.031-.54-.094a.538.538 0 01-.27-.28 1.233 1.233 0 01-.074-.454v-2.11h-.546v-.439h.562l.146-.978h.442v.975h.757v.442zm1.204 1.381c0 .213.035.406.104.579a.93.93 0 00.322.409.92.92 0 00.543.153c.214 0 .398-.05.552-.149a.67.67 0 00.299-.433h.569a1.14 1.14 0 01-.273.576 1.363 1.363 0 01-.51.354c-.2.078-.408.117-.624.117-.315 0-.591-.068-.829-.205a1.411 1.411 0 01-.559-.588c-.135-.256-.202-.562-.202-.92 0-.353.061-.663.182-.929a1.43 1.43 0 01.527-.624c.232-.15.51-.225.835-.225.316 0 .584.069.803.205.219.137.384.33.497.579.115.247.172.54.172.88v.221h-2.408zm.003-.406h1.827c0-.193-.033-.366-.098-.52a.791.791 0 00-.299-.367.862.862 0 00-.5-.137.858.858 0 00-.832.54c-.067.156-.1.317-.098.484zm4.443 2.012c-.436 0-.781-.15-1.037-.449-.256-.299-.383-.735-.383-1.309 0-.349.051-.654.152-.914.104-.26.258-.461.462-.604.204-.143.457-.215.76-.215.161 0 .303.021.426.062.126.041.234.093.325.156a1.108 1.108 0 01.351.38v-2.002h.605v4.83h-.459l-.065-.689a1.307 1.307 0 01-.104.227 1.064 1.064 0 01-.201.251c-.087.08-.198.146-.335.198-.134.052-.3.078-.497.078zm.107-.462c.34 0 .583-.102.728-.308.147-.208.221-.547.221-1.018a2.066 2.066 0 00-.101-.669.803.803 0 00-.299-.419c-.134-.098-.313-.147-.536-.147a.859.859 0 00-.676.296c-.173.197-.26.51-.26.939 0 .421.078.747.234.979.158.232.388.347.689.347zm5.942-2.964v.439h-.815v2.922h-.605v-2.922h-.708v-.439h.708v-.52c0-.266.068-.469.205-.607.136-.141.34-.212.611-.212h.634l.003.426h-.504c-.136 0-.23.037-.279.111-.05.073-.075.185-.075.334v.468h.825zm.743 3.361v-3.361h.572v.647c.056-.16.135-.292.237-.396a.992.992 0 01.348-.238 1.11 1.11 0 01.556-.068.32.32 0 01.11.033v.581a.39.39 0 00-.126-.029 1.135 1.135 0 00-.127-.01 1.36 1.36 0 00-.377.026.854.854 0 00-.309.127.649.649 0 00-.211.241.773.773 0 00-.075.357v2.09h-.598zm3.78.065c-.31 0-.581-.066-.813-.198a1.354 1.354 0 01-.539-.589c-.128-.257-.192-.573-.192-.945 0-.351.059-.659.179-.923.119-.265.293-.469.523-.615a1.54 1.54 0 01.842-.221c.309 0 .578.069.806.205.229.135.407.333.533.595.125.262.188.582.188.959 0 .342-.058.643-.175.903-.115.26-.286.464-.514.611-.225.145-.505.218-.838.218zm0-.475c.201 0 .371-.05.51-.152a.927.927 0 00.315-.439c.072-.191.107-.417.107-.679 0-.241-.031-.456-.094-.647a.948.948 0 00-.302-.458c-.137-.113-.315-.169-.536-.169a.864.864 0 00-.517.152.925.925 0 00-.322.436 1.969 1.969 0 00-.107.686c0 .236.032.45.097.643a.968.968 0 00.306.458c.139.113.319.169.543.169zm2.314.41v-3.361h.578v.488c.093-.147.221-.276.384-.387.162-.11.374-.166.634-.166.121 0 .244.021.37.062.128.041.245.103.351.185a.86.86 0 01.247.303c.104-.165.245-.297.423-.397.177-.102.378-.153.601-.153.117 0 .239.019.367.056a.95.95 0 01.624.562c.069.158.104.362.104.611v2.197h-.604v-2.139c0-.203-.033-.36-.098-.471a.543.543 0 00-.257-.237.815.815 0 00-.334-.068c-.104 0-.215.02-.332.061a.691.691 0 00-.299.208.603.603 0 00-.123.4v2.246h-.598v-2.314a.511.511 0 00-.108-.332.656.656 0 00-.263-.201.764.764 0 00-.312-.068.944.944 0 00-.348.068.693.693 0 00-.292.218.593.593 0 00-.117.383v2.246h-.598zm7.409 1.073c-.197 0-.333-.015-.406-.043l-.111-.042v-.39l.341.007c.126.004.23-.005.312-.026a.584.584 0 00.199-.088.41.41 0 00.113-.124.92.92 0 00.069-.13l.117-.318-1.313-3.28h.607l.992 2.594.984-2.594h.589l-1.417 3.615a1.697 1.697 0 01-.293.497.88.88 0 01-.357.25 1.22 1.22 0 01-.426.072zm4.349-1.008c-.309 0-.58-.066-.812-.198a1.362 1.362 0 01-.54-.589c-.127-.257-.191-.573-.191-.945 0-.351.059-.659.178-.923.12-.265.294-.469.524-.615.231-.147.512-.221.841-.221.31 0 .579.069.806.205.23.135.408.333.533.595.126.262.189.582.189.959 0 .342-.059.643-.176.903-.114.26-.286.464-.513.611-.225.145-.505.218-.839.218zm0-.475c.202 0 .372-.05.511-.152a.94.94 0 00.315-.439c.071-.191.107-.417.107-.679 0-.241-.031-.456-.094-.647a.955.955 0 00-.302-.458c-.137-.113-.316-.169-.537-.169a.86.86 0 00-.516.152.925.925 0 00-.322.436 1.946 1.946 0 00-.107.686c0 .236.032.45.097.643a.968.968 0 00.306.458c.138.113.319.169.542.169zm3.492.475a1.751 1.751 0 01-.497-.075 1.265 1.265 0 01-.409-.218 1.011 1.011 0 01-.283-.354 1.16 1.16 0 01-.101-.497v-2.282h.601v2.22c0 .219.068.397.202.533.136.137.341.205.614.205.247 0 .445-.064.595-.192.152-.13.227-.323.227-.578v-2.188h.598v3.361h-.477l-.062-.644a.885.885 0 01-.211.41.897.897 0 01-.355.231c-.136.047-.283.07-.442.068zm2.53-.065v-3.361h.572v.647c.056-.16.135-.292.237-.396a.992.992 0 01.348-.238 1.105 1.105 0 01.555-.068.319.319 0 01.111.033v.581a.404.404 0 00-.127-.029 1.118 1.118 0 00-.127-.01c-.134-.008-.26 0-.377.026a.842.842 0 00-.308.127.651.651 0 00-.212.241.773.773 0 00-.074.357v2.09h-.598zm-108.225 9.065c-.217 0-.409-.038-.576-.114a.925.925 0 01-.393-.335.952.952 0 01-.14-.526c0-.373.13-.65.39-.832.26-.182.678-.28 1.252-.293l.601-.016v-.263c0-.206-.062-.368-.185-.488-.124-.121-.316-.182-.576-.182a.998.998 0 00-.51.137c-.145.089-.24.234-.283.435h-.53c.014-.218.075-.403.186-.552.11-.152.264-.267.462-.345.199-.078.434-.117.705-.117.292 0 .535.042.728.124a.89.89 0 01.435.364c.098.16.147.357.147.591v2.347h-.514l-.042-.631c-.13.263-.296.445-.498.546-.199.1-.419.15-.66.15zm.182-.432a.957.957 0 00.335-.062c.112-.041.215-.096.308-.166a.896.896 0 00.221-.237.53.53 0 00.088-.273v-.575l-.5.01c-.256.004-.47.03-.644.077a.76.76 0 00-.387.225.605.605 0 00-.127.399c0 .189.066.336.195.442.133.107.303.16.51.16zm3.896-3.059c.24 0 .457.047.65.14a1.2 1.2 0 01.471.39c.124.169.2.369.231.598h-.533a.758.758 0 00-.413-.556.883.883 0 00-.403-.087.884.884 0 00-.702.312c-.18.208-.27.526-.27.955 0 .388.083.699.248.933.166.232.411.348.734.348a.785.785 0 00.676-.325c.07-.1.114-.206.133-.319h.524a1.2 1.2 0 01-.702.969c-.191.089-.406.133-.644.133-.301 0-.569-.066-.803-.198a1.373 1.373 0 01-.546-.585c-.132-.258-.198-.574-.198-.949 0-.351.06-.658.179-.92.121-.264.297-.47.526-.618a1.54 1.54 0 01.842-.221zm3.504 0c.24 0 .457.047.65.14a1.2 1.2 0 01.471.39c.124.169.2.369.231.598h-.533a.759.759 0 00-.413-.556.883.883 0 00-.403-.087.884.884 0 00-.702.312c-.18.208-.27.526-.27.955 0 .388.083.699.248.933.166.232.411.348.734.348a.786.786 0 00.676-.325c.07-.1.114-.206.133-.319h.524a1.2 1.2 0 01-.702.969c-.191.089-.406.133-.644.133-.301 0-.569-.066-.803-.198a1.372 1.372 0 01-.546-.585c-.132-.258-.198-.574-.198-.949 0-.351.06-.658.179-.92.121-.264.297-.47.526-.618a1.54 1.54 0 01.842-.221zm3.5 3.491c-.31 0-.58-.066-.812-.198a1.36 1.36 0 01-.54-.589c-.127-.257-.191-.573-.191-.945 0-.351.06-.659.179-.923.119-.265.293-.469.523-.615a1.54 1.54 0 01.842-.221c.31 0 .578.069.806.205.23.135.407.333.533.595.125.262.188.582.188.959 0 .342-.058.643-.175.903-.115.26-.286.464-.514.611-.225.145-.505.218-.838.218zm0-.475c.202 0 .372-.05.511-.152a.932.932 0 00.315-.439c.072-.191.108-.417.108-.679 0-.241-.032-.456-.095-.647a.95.95 0 00-.302-.458c-.137-.113-.315-.169-.536-.169a.864.864 0 00-.517.152.924.924 0 00-.322.436 1.957 1.957 0 00-.107.686c0 .236.033.45.098.643a.97.97 0 00.305.458c.139.113.32.169.543.169zm3.493.475a1.75 1.75 0 01-.498-.075 1.272 1.272 0 01-.409-.218 1.024 1.024 0 01-.283-.354 1.158 1.158 0 01-.1-.497v-2.282h.6v2.22c0 .219.068.397.202.533.137.137.342.205.615.205.246 0 .445-.064.594-.192.152-.13.228-.323.228-.578v-2.188h.598v3.361h-.478l-.062-.644a.88.88 0 01-.211.41.893.893 0 01-.354.231c-.137.047-.284.07-.442.068zm2.529-.065v-3.361h.582v.488c.054-.093.129-.181.224-.263a1.14 1.14 0 01.35-.199 1.43 1.43 0 01.479-.074c.212 0 .407.042.585.127.18.084.322.216.429.396.108.178.162.407.162.689v2.197h-.601v-2.139c0-.262-.07-.456-.208-.581a.748.748 0 00-.533-.192c-.152 0-.294.025-.426.075a.72.72 0 00-.322.221.553.553 0 00-.123.37v2.246h-.598zm5.3-2.922h-.757v2.09c0 .119.012.207.035.263a.186.186 0 00.127.104c.06.015.143.023.247.023h.367v.403a.949.949 0 01-.188.039 2.407 2.407 0 01-.309.016c-.232 0-.411-.031-.54-.094a.538.538 0 01-.269-.28 1.216 1.216 0 01-.075-.454v-2.11h-.546v-.439h.563l.146-.978h.442v.975h.757v.442zm3.012-.439v3.361h-.582v-3.361h.582zm.013-1.335v.624h-.615v-.624h.615zm2.237 4.761c-.234 0-.452-.036-.653-.107a1.184 1.184 0 01-.498-.342 1.155 1.155 0 01-.25-.594h.546c.03.132.085.242.163.331.08.087.179.153.299.198.119.044.249.065.39.065.225 0 .407-.042.546-.126a.427.427 0 00.208-.39.399.399 0 00-.111-.296.647.647 0 00-.335-.166l-.695-.172a1.531 1.531 0 01-.65-.306c-.163-.138-.244-.332-.244-.581a.922.922 0 01.14-.52.96.96 0 01.429-.355c.19-.086.428-.13.712-.13.364 0 .657.083.88.247.226.163.343.402.351.719h-.529a.554.554 0 00-.218-.381c-.122-.095-.285-.143-.491-.143a.956.956 0 00-.523.13c-.135.085-.202.217-.202.397 0 .119.048.213.143.283.096.067.236.123.423.169l.673.169c.156.041.283.095.383.162a.902.902 0 01.241.224.917.917 0 01.165.517.908.908 0 01-.156.533.996.996 0 01-.442.345c-.19.08-.422.12-.695.12zm7.3-1.856c0 .379-.062.709-.185.988a1.344 1.344 0 01-.601.644c-.275.149-.641.224-1.096.224-.457 0-.823-.076-1.098-.228a1.35 1.35 0 01-.598-.653c-.121-.281-.182-.617-.182-1.007V193.8h.965v2.948c0 .351.085.608.254.77.169.161.389.241.659.241.18 0 .34-.035.478-.104a.757.757 0 00.325-.328c.08-.15.12-.343.12-.579V193.8h.959v2.909zm2.708 1.856c-.232 0-.459-.029-.682-.088a2.131 2.131 0 01-.611-.263 1.573 1.573 0 01-.458-.439 1.305 1.305 0 01-.215-.617h.972a.756.756 0 00.185.36.885.885 0 00.345.225 1.3 1.3 0 00.461.078c.173 0 .332-.022.475-.065a.822.822 0 00.344-.195c.087-.089.13-.2.13-.332a.41.41 0 00-.107-.292.767.767 0 00-.283-.186 2.455 2.455 0 00-.406-.117l-.813-.165c-.355-.067-.637-.208-.845-.423-.208-.216-.315-.505-.321-.864-.003-.295.075-.55.234-.764.16-.217.377-.384.65-.501.275-.117.582-.175.923-.175.405 0 .745.064 1.02.192.277.125.488.297.631.513a1.3 1.3 0 01.224.718h-.952a.72.72 0 00-.15-.393.692.692 0 00-.318-.211 1.379 1.379 0 00-.439-.065c-.126 0-.241.014-.345.042a.8.8 0 00-.26.12.55.55 0 00-.165.179.473.473 0 00-.059.234c0 .137.046.247.137.332.091.084.261.154.51.208l.806.165c.288.057.517.14.686.251a1.19 1.19 0 01.552.799c.028.143.042.275.042.397 0 .253-.08.482-.24.685a1.607 1.607 0 01-.663.481 2.581 2.581 0 01-.995.176zm5.891 0c-.563 0-1.02-.113-1.371-.338-.351-.228-.553-.577-.605-1.05l.988-.019a.783.783 0 00.335.49c.173.111.39.166.65.166.156 0 .293-.025.413-.075a.725.725 0 00.286-.208.477.477 0 00.104-.302c0-.173-.056-.302-.166-.387-.111-.086-.281-.156-.51-.208l-.771-.165c-.357-.072-.644-.214-.861-.426-.214-.215-.324-.502-.328-.861-.002-.295.077-.55.237-.764.163-.217.383-.384.66-.501.279-.117.592-.175.939-.175.355 0 .662.064.92.192.26.125.459.295.598.51.141.212.209.447.205.705l-.959.016a.902.902 0 00-.208-.49c-.108-.119-.288-.179-.54-.179-.13 0-.246.014-.347.042a.843.843 0 00-.264.12.542.542 0 00-.169.179.505.505 0 00-.055.234.41.41 0 00.137.325c.093.078.267.151.523.218l.757.185c.427.102.735.276.923.523.191.247.286.548.286.901 0 .271-.075.507-.224.708a1.41 1.41 0 01-.627.468c-.271.111-.59.166-.956.166zm-.406-5.437h.822v.845h-.822v-.845zm-.016 5.148h.819v.845h-.819v-.845zm3.667.224v-3.52h-.839v-.536a2.3 2.3 0 00.65-.075.785.785 0 00.374-.221.635.635 0 00.146-.348h.631v4.7h-.962zm3.761-4.765c.559 0 1 .21 1.323.628.323.416.484 1.015.484 1.797 0 .778-.159 1.375-.477 1.791-.319.414-.762.621-1.33.621-.569 0-1.015-.207-1.335-.621-.319-.414-.478-1.01-.478-1.788 0-.52.074-.961.221-1.323.147-.361.356-.635.627-.822.271-.188.593-.283.965-.283zm0 4.06c.28 0 .485-.125.615-.374.13-.251.195-.671.195-1.258 0-.6-.066-1.03-.199-1.29-.132-.26-.336-.39-.614-.39-.277 0-.484.131-.621.393-.134.262-.201.691-.201 1.287 0 .585.067 1.003.201 1.255a.665.665 0 00.624.377zm4.486-3.995h.933v2.864h.725v.796h-.725v1.04h-.913l.003-1.04h-2.165v-.78l2.142-2.88zm-1.264 2.864h1.287v-1.723l-1.287 1.723zm3.43 1.836v-1.034h1.04v1.034h-1.04zm3.442.072c-.292 0-.565-.057-.819-.17a1.59 1.59 0 01-.62-.474 1.287 1.287 0 01-.27-.722h.903a.789.789 0 00.26.446.768.768 0 00.507.169c.226 0 .423-.053.592-.16.171-.106.299-.275.383-.507.087-.231.117-.535.091-.91a.958.958 0 01-.253.303c-.106.084-.231.15-.374.198a1.586 1.586 0 01-.478.068c-.318 0-.601-.059-.848-.179a1.405 1.405 0 01-.578-.513 1.47 1.47 0 01-.208-.793c0-.308.073-.582.221-.822a1.53 1.53 0 01.617-.566c.264-.136.574-.205.93-.205.398 0 .742.096 1.03.286.29.189.512.458.666.807.156.346.234.755.234 1.225 0 .561-.08 1.029-.24 1.404-.159.372-.386.652-.683.838-.297.184-.651.277-1.063.277zm.085-2.513c.132 0 .26-.029.383-.088a.947.947 0 00.309-.227.425.425 0 00.12-.283c.002-.21-.031-.39-.1-.539a.782.782 0 00-.286-.348.76.76 0 00-.426-.12.733.733 0 00-.676.396.914.914 0 00-.101.436c0 .245.072.435.215.572.143.134.33.201.562.201zm4.269-2.324c.559 0 1 .21 1.322.628.323.416.485 1.015.485 1.797 0 .778-.16 1.375-.478 1.791-.319.414-.762.621-1.329.621-.57 0-1.015-.207-1.336-.621-.319-.414-.478-1.01-.478-1.788 0-.52.074-.961.221-1.323.148-.361.357-.635.627-.822.271-.188.593-.283.966-.283zm0 4.06a.648.648 0 00.614-.374c.13-.251.195-.671.195-1.258 0-.6-.066-1.03-.198-1.29s-.337-.39-.615-.39c-.277 0-.484.131-.62.393-.135.262-.202.691-.202 1.287 0 .585.067 1.003.202 1.255a.663.663 0 00.624.377zm2.447.705v-.767h.715v.767h-.715z" fill="#36536B"/></g><defs><linearGradient id="paint0_linear" x1="60.055" y1="55" x2="60.055" y2="62.394" gradientUnits="userSpaceOnUse"><stop stop-color="#454545"/><stop offset=".226" stop-color="#999"/><stop offset="1" stop-color="#fff"/></linearGradient><linearGradient id="paint1_linear" x1="211.249" y1="106.448" x2="205.529" y2="106.448" gradientUnits="userSpaceOnUse"><stop stop-color="#fff" stop-opacity=".01"/><stop offset=".222" stop-color="#BABABA"/><stop offset=".547" stop-color="#fff" stop-opacity=".01"/><stop offset="1" stop-color="#fff" stop-opacity=".01"/></linearGradient><linearGradient id="paint2_linear" x1="55.553" y1="106.292" x2="61.281" y2="106.292" gradientUnits="userSpaceOnUse"><stop stop-color="#fff" stop-opacity=".01"/><stop offset=".222" stop-color="#BABABA"/><stop offset=".547" stop-color="#fff" stop-opacity=".01"/><stop offset="1" stop-color="#fff" stop-opacity=".01"/></linearGradient><linearGradient id="paint3_linear" x1="63.549" y1="62" x2="63.549" y2="338.828" gradientUnits="userSpaceOnUse"><stop stop-color="#9CB6CD"/><stop offset=".421" stop-color="#9AB3CA"/><stop offset=".717" stop-color="#557496"/><stop offset="1" stop-color="#475178"/></linearGradient><filter id="filter0_d" x=".552" y=".342" width="315.765" height="459.317" filterUnits="userSpaceOnUse" color-interpolation-filters="sRGB"><feFlood flood-opacity="0" result="BackgroundImageFix"/><feColorMatrix in="SourceAlpha" values="0 0 0 0 0 0 0 0 0 0 0 0 0 0 0 0 0 0 127 0"/><feOffset dx="25" dy="25"/><feGaussianBlur stdDeviation="40"/><feColorMatrix values="0 0 0 0 0.212302 0 0 0 0 0.32521 0 0 0 0 0.419299 0 0 0 0.300727 0"/><feBlend in2="BackgroundImageFix" result="effect1_dropShadow"/><feBlend in="SourceGraphic" in2="effect1_dropShadow" result="shape"/></filter><filter id="filter1_d" x="61.805" y="150" width="161.255" height="83.192" filterUnits="userSpaceOnUse" color-interpolation-filters="sRGB"><feFlood flood-opacity="0" result="BackgroundImageFix"/><feColorMatrix in="SourceAlpha" values="0 0 0 0 0 0 0 0 0 0 0 0 0 0 0 0 0 0 127 0"/><feMorphology radius="10" in="SourceAlpha" result="effect1_dropShadow"/><feOffset dx="10" dy="10"/><feGaussianBlur stdDeviation="12.5"/><feColorMatrix values="0 0 0 0 0.212302 0 0 0 0 0.32521 0 0 0 0 0.419299 0 0 0 0.25 0"/><feBlend in2="BackgroundImageFix" result="effect1_dropShadow"/><feBlend in="SourceGraphic" in2="effect1_dropShadow" result="shape"/></filter><clipPath id="clip0"><path fill="#fff" transform="translate(66.805 155)" d="M0 0h132v54H0z"/></clipPath></defs></svg>