<svg width="285" height="400" fill="none" xmlns="http://www.w3.org/2000/svg"><g filter="url(#filter0_d)"><path fill-rule="evenodd" clip-rule="evenodd" d="M71.303 55.273h92.49c8.87 0 16.061 6.833 16.061 15.262v208.93c0 8.429-7.191 15.262-16.061 15.262h-92.49c-8.87 0-16.061-6.833-16.061-15.262V70.535c0-8.429 7.19-15.262 16.061-15.262z" fill="#213648"/></g><path opacity=".596" fill-rule="evenodd" clip-rule="evenodd" d="M164.151 55h-93.26c-4.355.264-8.37 2.235-12.047 5.916 2.364-2.05 6.582-4.79 12.159-4.79h93.035c5.577 0 9.795 2.74 12.159 4.79-3.677-3.68-7.692-5.652-12.046-5.916z" fill="url(#paint0_linear)" fill-opacity=".65"/><path opacity=".75" fill-rule="evenodd" clip-rule="evenodd" d="M177.331 277.082V71.792c0-5.509-2.04-7.545-3.257-8.852-1.217-1.308-1.269-1.975.48-.988 1.748.988 5.245 3.863 5.245 9.84v205.29c0 5.977-3.497 8.852-5.245 9.839-1.749.987-1.697.32-.48-.987 1.217-1.308 3.257-3.344 3.257-8.852z" fill="url(#paint1_linear)"/><path opacity=".75" fill-rule="evenodd" clip-rule="evenodd" d="M57.71 277.082V71.792c0-5.509 2.04-7.545 3.257-8.852 1.217-1.308 1.269-1.975-.48-.988-1.748.988-5.245 3.863-5.245 9.84v205.29c0 5.977 3.497 8.852 5.245 9.839 1.749.987 1.697.32.48-.987-1.217-1.308-3.256-3.344-3.256-8.852z" fill="url(#paint2_linear)"/><path fill-rule="evenodd" clip-rule="evenodd" d="M54 104.948a1.2 1.2 0 012.401 0v28.487a1.2 1.2 0 11-2.401 0v-28.487zM178.557 130.141a1.2 1.2 0 012.401 0v20.135a1.2 1.2 0 11-2.401 0v-20.135z" fill="#2E423C"/><path fill-rule="evenodd" clip-rule="evenodd" d="M106.561 60.973H70.575c-5.371 0-9.284 3.63-9.284 8.372v202.747c0 6.182 6.046 11.66 12.884 11.66h86.734c6.586 0 12.884-5.52 12.884-11.66V69.893c0-5.683-4.251-8.886-9.284-8.92h-36.557c-.138.023-2.65 1.047-3.711 3.63-1.061 2.584-3.197 4.643-5.535 4.643h-2.716c-1.111 0-4.037-1.07-5.519-4.642-1.481-3.573-3.771-3.608-3.91-3.63z" fill="#fff"/><mask id="a" maskUnits="userSpaceOnUse" x="61" y="60" width="113" height="224"><path fill-rule="evenodd" clip-rule="evenodd" d="M106.561 60.973H70.575c-5.371 0-9.284 3.63-9.284 8.372v202.747c0 6.182 6.046 11.66 12.884 11.66h86.734c6.586 0 12.884-5.52 12.884-11.66V69.893c0-5.683-4.251-8.886-9.284-8.92h-36.557c-.138.023-2.65 1.047-3.711 3.63-1.061 2.584-3.197 4.643-5.535 4.643h-2.716c-1.111 0-4.037-1.07-5.519-4.642-1.481-3.573-3.771-3.608-3.91-3.63z" fill="#fff"/></mask><g mask="url(#a)"><path fill="url(#paint3_linear)" d="M61 61h113v223H61z"/><path fill-rule="evenodd" clip-rule="evenodd" d="M112.762 120.311v1.889h-8.219v-1.674c0-.564.106-1.051.318-1.463a3.59 3.59 0 01.839-1.076c.348-.304.73-.572 1.146-.802.415-.231.831-.448 1.249-.653.418-.205.801-.411 1.149-.618.349-.208.629-.439.84-.695.212-.256.317-.558.317-.907 0-.445-.156-.809-.468-1.09-.312-.282-.739-.423-1.281-.423-.562 0-1.039.162-1.431.484-.392.323-.635.809-.728 1.46h-2.159a3.995 3.995 0 01.5-1.924c.322-.576.806-1.033 1.45-1.371.645-.338 1.455-.507 2.43-.507.836 0 1.557.141 2.163.422.606.282 1.075.674 1.405 1.175.33.502.495 1.088.495 1.759 0 .558-.103 1.039-.31 1.444-.206.404-.479.75-.82 1.037-.34.286-.714.537-1.122.752-.407.215-.814.415-1.219.599-.405.185-.777.373-1.118.565-.34.192-.614.408-.82.649-.207.24-.31.53-.31.868v.1h5.704zm-10.765-9.216V122.2h-2.29v-8.318H97.71v-1.267c.64 0 1.157-.06 1.552-.18.394-.121.69-.295.886-.523.196-.227.312-.5.348-.817h1.501zm14.742 5.76v-2.404h-2.476v2.404h2.476zm0 2.903v2.396h-2.476v-2.396h2.476zm8.915 2.442v-2.458h1.725v-1.881h-1.725v-6.766h-2.221l-5.1 6.804v1.843h5.154l-.008 2.458h2.175zm-5.231-4.339h3.064v-4.071l-3.064 4.071zm12.188 4.508c.98 0 1.823-.219 2.53-.657.707-.438 1.25-1.098 1.629-1.981.379-.884.569-1.988.569-3.314 0-1.111-.185-2.078-.554-2.899-.368-.822-.897-1.457-1.586-1.905-.689-.448-1.508-.672-2.457-.672-.846 0-1.584.161-2.213.484a3.626 3.626 0 00-1.47 1.336c-.351.568-.527 1.216-.527 1.943 0 .722.167 1.345.5 1.87.332.525.791.929 1.377 1.214.585.284 1.257.426 2.016.426.418 0 .797-.055 1.137-.165.341-.11.639-.266.894-.469.256-.202.455-.439.6-.71.062.886-.009 1.602-.213 2.15-.204.548-.508.947-.913 1.198s-.876.377-1.412.377c-.485 0-.888-.135-1.208-.404a1.834 1.834 0 01-.619-1.048h-2.151c.047.65.261 1.217.642 1.701.382.484.875.859 1.478 1.125a4.77 4.77 0 001.951.4zm-1.138-6.417c.34.32.787.48 1.339.48.314 0 .62-.07.917-.211.296-.141.54-.319.731-.534.191-.215.286-.438.286-.668.005-.497-.073-.923-.236-1.279a1.869 1.869 0 00-.681-.818 1.825 1.825 0 00-1.017-.284 1.84 1.84 0 00-.952.246 1.74 1.74 0 00-.658.691c-.16.297-.24.64-.24 1.029 0 .579.17 1.028.511 1.348z" fill="#fff"/></g><g clip-path="url(#clip0)"><g filter="url(#filter1_d)"><rect x="64.244" y="135" width="105.004" height="42.553" rx="2" fill="#FBFCFE"/></g><path d="M72.115 152.31v-.425h2.735v.425h-1.102v3.19h-.466v-3.19h-1.167zm3.236 3.19v-3.715h.45v1.51a.871.871 0 01.442-.353c.106-.04.227-.06.366-.06.168 0 .32.032.457.095.137.062.245.15.325.265a.7.7 0 01.12.41v1.848h-.462v-1.755a.429.429 0 00-.16-.358.635.635 0 00-.413-.127.92.92 0 00-.325.057.567.567 0 00-.247.17.438.438 0 00-.093.288v1.725h-.46zm3.211-1.185c0 .163.027.312.08.445a.712.712 0 00.248.315c.111.078.25.117.417.117a.762.762 0 00.425-.115.512.512 0 00.23-.332h.438a.884.884 0 01-.21.443c-.109.119-.24.21-.393.272-.153.06-.313.09-.48.09a1.25 1.25 0 01-.637-.158 1.091 1.091 0 01-.43-.452 1.507 1.507 0 01-.155-.708c0-.271.046-.51.14-.715.093-.205.228-.365.405-.48a1.16 1.16 0 01.642-.172c.243 0 .45.052.618.157a.995.995 0 01.382.445c.088.19.133.416.133.678v.17h-1.853zm.003-.313h1.405c0-.148-.025-.281-.075-.4a.609.609 0 00-.23-.282.664.664 0 00-.385-.105.664.664 0 00-.403.117.72.72 0 00-.237.298.9.9 0 00-.075.372zm3.603 2.303v-3.39h.46l.005.45a.974.974 0 01.29-.33c.07-.05.15-.091.242-.123.093-.031.2-.047.318-.047.206 0 .388.047.545.142a.933.933 0 01.37.43c.088.194.132.439.132.735 0 .297-.043.548-.13.753a1.005 1.005 0 01-.37.465c-.162.107-.356.16-.585.16a.89.89 0 01-.54-.175.976.976 0 01-.272-.343v1.273h-.465zm1.19-1.115a.649.649 0 00.522-.243c.135-.163.203-.416.203-.76 0-.295-.062-.529-.185-.702-.124-.173-.304-.26-.54-.26-.24 0-.422.089-.545.267-.124.177-.185.409-.185.695 0 .185.027.354.082.505a.824.824 0 00.245.363c.109.09.243.135.403.135zm2.46.36a1.05 1.05 0 01-.443-.088.713.713 0 01-.303-.257.736.736 0 01-.107-.405c0-.287.1-.5.3-.64.2-.14.52-.215.962-.225l.463-.013v-.202a.498.498 0 00-.143-.375c-.095-.093-.242-.14-.442-.14a.77.77 0 00-.393.105.49.49 0 00-.217.335h-.408a.777.777 0 01.143-.425.78.78 0 01.355-.265c.153-.06.334-.09.542-.09.225 0 .412.032.56.095.15.063.262.157.335.28a.86.86 0 01.113.455v1.805h-.395l-.033-.485c-.1.202-.227.342-.382.42a1.114 1.114 0 01-.508.115zm.14-.333a.724.724 0 00.257-.047.92.92 0 00.237-.128.69.69 0 00.17-.182.403.403 0 00.068-.21v-.443l-.385.008a1.996 1.996 0 00-.495.06.588.588 0 00-.298.172.468.468 0 00-.097.308c0 .145.05.258.15.34a.605.605 0 00.392.122zm2.139 1.108a1.03 1.03 0 01-.313-.032l-.085-.033v-.3l.263.005a.848.848 0 00.24-.02.46.46 0 00.152-.067.32.32 0 00.088-.095.761.761 0 00.052-.1l.09-.246-1.01-2.522h.468l.762 1.995.757-1.995h.453l-1.09 2.78a1.307 1.307 0 01-.225.383.683.683 0 01-.275.192.937.937 0 01-.328.055zm2.41-.825v-2.585h.445v.375c.072-.113.17-.213.296-.298a.85.85 0 01.487-.127.931.931 0 01.555.19.658.658 0 01.19.232.916.916 0 01.787-.422c.09 0 .185.014.283.042a.742.742 0 01.48.433c.053.122.08.278.08.47v1.69h-.465v-1.645a.722.722 0 00-.075-.363.418.418 0 00-.197-.182.636.636 0 00-.258-.053.762.762 0 00-.255.048.527.527 0 00-.23.16.46.46 0 00-.095.307v1.728h-.46v-1.78a.392.392 0 00-.082-.255.507.507 0 00-.203-.155.595.595 0 00-.24-.053.735.735 0 00-.267.053.546.546 0 00-.225.167.46.46 0 00-.09.295v1.728h-.46zm4.657-1.185c0 .163.026.312.08.445a.712.712 0 00.247.315c.112.078.251.117.418.117a.762.762 0 00.425-.115.513.513 0 00.23-.332H97a.884.884 0 01-.21.443c-.108.119-.239.21-.392.272-.154.06-.314.09-.48.09a1.25 1.25 0 01-.638-.158 1.09 1.09 0 01-.43-.452 1.505 1.505 0 01-.155-.708c0-.271.047-.51.14-.715.094-.205.228-.365.405-.48a1.16 1.16 0 01.643-.172c.243 0 .449.052.617.157a.995.995 0 01.383.445c.088.19.132.416.132.678v.17h-1.852zm.002-.313h1.405c0-.148-.025-.281-.075-.4a.609.609 0 00-.23-.282.664.664 0 00-.385-.105.664.664 0 00-.402.117.72.72 0 00-.238.298.9.9 0 00-.075.372zm2.485 1.498v-2.585h.448v.375a.808.808 0 01.442-.355c.107-.038.23-.058.368-.058.163 0 .313.033.45.098a.749.749 0 01.33.305c.083.137.125.313.125.53v1.69h-.463v-1.645c0-.202-.053-.351-.16-.448a.577.577 0 00-.41-.147.927.927 0 00-.327.057.567.567 0 00-.248.17.426.426 0 00-.095.285v1.728h-.46zm4.077-2.248h-.582v1.608c0 .092.009.159.027.202.02.042.053.069.098.08a.79.79 0 00.19.018h.282v.31a.674.674 0 01-.145.03 1.91 1.91 0 01-.237.013.962.962 0 01-.415-.073.411.411 0 01-.208-.215.947.947 0 01-.057-.35v-1.623h-.42v-.337h.432l.113-.753h.34v.75h.582v.34zm1.817 2.248v-3.715h.45v1.51a.865.865 0 01.442-.353c.105-.04.227-.06.365-.06.168 0 .321.032.458.095a.78.78 0 01.325.265.7.7 0 01.12.41v1.848h-.463v-1.755a.428.428 0 00-.16-.358.634.634 0 00-.412-.127.918.918 0 00-.325.057.566.566 0 00-.248.17.437.437 0 00-.092.288v1.725h-.46zm3.586.05c-.167 0-.314-.029-.443-.088a.71.71 0 01-.302-.257.733.733 0 01-.108-.405c0-.287.1-.5.3-.64.2-.14.521-.215.963-.225l.462-.013v-.202a.497.497 0 00-.142-.375c-.095-.093-.243-.14-.443-.14a.767.767 0 00-.392.105.492.492 0 00-.218.335h-.407a.776.776 0 01.142-.425.783.783 0 01.355-.265c.154-.06.334-.09.543-.09.225 0 .411.032.56.095.15.063.261.157.335.28a.86.86 0 01.112.455v1.805h-.395l-.032-.485c-.1.202-.228.342-.383.42a1.111 1.111 0 01-.507.115zm.14-.333a.725.725 0 00.257-.047.924.924 0 00.238-.128.708.708 0 00.17-.182.4.4 0 00.067-.21v-.443l-.385.008a2.004 2.004 0 00-.495.06.586.586 0 00-.297.172.468.468 0 00-.098.308c0 .145.05.258.15.34a.607.607 0 00.393.122zm2.841.333a1.47 1.47 0 01-.503-.083.903.903 0 01-.382-.262.889.889 0 01-.193-.458h.42a.566.566 0 00.125.255.596.596 0 00.23.153c.092.033.192.05.3.05a.8.8 0 00.42-.098.326.326 0 00.16-.3.305.305 0 00-.085-.227.505.505 0 00-.257-.128l-.535-.132a1.176 1.176 0 01-.5-.235.558.558 0 01-.188-.448.706.706 0 01.108-.4.74.74 0 01.33-.272c.146-.067.329-.1.547-.1.28 0 .506.063.678.19.173.125.263.309.27.552h-.408a.423.423 0 00-.167-.292.6.6 0 00-.378-.11.726.726 0 00-.402.1c-.104.065-.155.167-.155.305 0 .092.036.164.11.217a.961.961 0 00.325.13l.517.131c.12.031.218.073.295.124.078.052.14.11.185.173a.699.699 0 01.128.397c0 .159-.04.295-.12.41a.764.764 0 01-.34.265 1.374 1.374 0 01-.535.093zm4.051 0c-.152 0-.28-.02-.385-.06a.794.794 0 01-.49-.52l-.05.53h-.353v-3.715h.465v1.54a.815.815 0 01.27-.293 1.003 1.003 0 01.578-.167c.323 0 .58.112.77.337.192.225.287.557.287.995 0 .272-.04.51-.122.713a1.03 1.03 0 01-.365.472 1.037 1.037 0 01-.605.168zm-.083-.355c.21 0 .381-.081.513-.243.132-.163.197-.422.197-.777 0-.302-.061-.535-.185-.7-.121-.167-.3-.25-.535-.25a.7.7 0 00-.415.112.649.649 0 00-.23.323 1.667 1.667 0 00-.075.515c0 .362.056.622.168.782.113.159.301.238.562.238zm2.109-.88c0 .163.027.312.08.445a.713.713 0 00.248.315c.111.078.25.117.417.117a.761.761 0 00.425-.115.511.511 0 00.23-.332h.438a.89.89 0 01-.21.443c-.109.119-.24.21-.393.272-.153.06-.313.09-.48.09-.242 0-.454-.052-.637-.158a1.085 1.085 0 01-.43-.452 1.498 1.498 0 01-.155-.708c0-.271.046-.51.14-.715.093-.205.228-.365.405-.48.178-.115.392-.172.642-.172.243 0 .449.052.618.157a.998.998 0 01.382.445c.088.19.133.416.133.678v.17h-1.853zm.003-.313h1.405c0-.148-.025-.281-.075-.4a.61.61 0 00-.23-.282.664.664 0 00-.385-.105.665.665 0 00-.403.117.716.716 0 00-.237.298.89.89 0 00-.075.372zm2.814.313c0 .163.027.312.08.445a.713.713 0 00.248.315.712.712 0 00.417.117.761.761 0 00.425-.115.511.511 0 00.23-.332h.438a.89.89 0 01-.21.443c-.108.119-.239.21-.393.272-.153.06-.313.09-.48.09a1.25 1.25 0 01-.637-.158 1.091 1.091 0 01-.43-.452 1.51 1.51 0 01-.155-.708c0-.271.047-.51.14-.715.093-.205.228-.365.405-.48.178-.115.392-.172.642-.172.244 0 .45.052.618.157a.992.992 0 01.382.445c.089.19.133.416.133.678v.17h-1.853zm.003-.313h1.405c0-.148-.025-.281-.075-.4a.61.61 0 00-.23-.282.664.664 0 00-.385-.105.665.665 0 00-.403.117.716.716 0 00-.237.298.89.89 0 00-.075.372zm2.485 1.498v-2.585h.447v.375a.807.807 0 01.443-.355c.106-.038.229-.058.367-.058.164 0 .314.033.45.098a.741.741 0 01.33.305c.084.137.125.313.125.53v1.69h-.462v-1.645c0-.202-.054-.351-.16-.448a.577.577 0 00-.41-.147.93.93 0 00-.328.057.568.568 0 00-.247.17.423.423 0 00-.095.285v1.728h-.46zm4.038.805v-3.39h.46l.005.45a.977.977 0 01.29-.33.965.965 0 01.242-.123c.094-.031.2-.047.318-.047.207 0 .388.047.545.142a.933.933 0 01.37.43c.088.194.132.439.132.735 0 .297-.043.548-.13.753a1.002 1.002 0 01-.37.465c-.161.107-.356.16-.585.16a.886.886 0 01-.54-.175.976.976 0 01-.272-.343v1.273h-.465zm1.19-1.115a.648.648 0 00.522-.243c.135-.163.203-.416.203-.76 0-.295-.062-.529-.185-.702-.123-.173-.303-.26-.54-.26-.24 0-.422.089-.545.267-.123.177-.185.409-.185.695 0 .185.027.354.082.505a.827.827 0 00.245.363c.109.09.243.135.403.135zm1.779.31v-2.585h.44v.497a.816.816 0 01.182-.305.765.765 0 01.268-.182.848.848 0 01.427-.052.228.228 0 01.085.024v.448a.294.294 0 00-.097-.023.773.773 0 00-.098-.007c-.103-.007-.2 0-.29.02a.644.644 0 00-.237.097.503.503 0 00-.163.185.605.605 0 00-.057.275v1.608h-.46zm2.907.05c-.238 0-.447-.051-.625-.153a1.042 1.042 0 01-.415-.452 1.631 1.631 0 01-.147-.728c0-.27.045-.506.137-.71a1.06 1.06 0 01.403-.472c.178-.113.394-.17.647-.17.238 0 .445.052.62.157.177.104.313.256.41.458.097.202.145.447.145.737 0 .264-.045.495-.135.695-.088.2-.22.357-.395.47a1.163 1.163 0 01-.645.168zm0-.365a.643.643 0 00.393-.118.716.716 0 00.242-.337 1.49 1.49 0 00.083-.523c0-.185-.025-.35-.073-.497a.74.74 0 00-.232-.353.632.632 0 00-.413-.13.66.66 0 00-.397.118.708.708 0 00-.248.335 1.504 1.504 0 00-.082.527c0 .182.025.347.075.495.05.149.128.266.235.353.106.087.245.13.417.13zm2.81-2.32c.185 0 .352.036.5.107.148.07.269.17.363.3.095.13.154.284.177.46h-.41a.57.57 0 00-.105-.247.575.575 0 00-.212-.18.677.677 0 00-.31-.068.68.68 0 00-.54.24c-.139.16-.208.405-.208.735 0 .299.063.538.19.718.128.178.317.267.565.267a.601.601 0 00.623-.495h.402a.925.925 0 01-.54.745 1.15 1.15 0 01-.495.103c-.232 0-.437-.051-.617-.153a1.042 1.042 0 01-.42-.45 1.58 1.58 0 01-.153-.73c0-.27.046-.505.138-.707.093-.203.228-.362.405-.475.178-.113.394-.17.647-.17zm1.995 1.45c0 .163.027.312.08.445a.713.713 0 00.248.315.712.712 0 00.417.117.761.761 0 00.425-.115.511.511 0 00.23-.332h.438a.89.89 0 01-.21.443c-.108.119-.239.21-.393.272-.153.06-.313.09-.48.09a1.25 1.25 0 01-.637-.158 1.091 1.091 0 01-.43-.452 1.51 1.51 0 01-.155-.708c0-.271.047-.51.14-.715.093-.205.228-.365.405-.48.178-.115.392-.172.642-.172.244 0 .45.052.618.157a.992.992 0 01.382.445c.089.19.133.416.133.678v.17h-1.853zm.003-.313h1.405c0-.148-.025-.281-.075-.4a.61.61 0 00-.23-.282.664.664 0 00-.385-.105.665.665 0 00-.403.117.716.716 0 00-.237.298.89.89 0 00-.075.372zm3.383 1.548a1.47 1.47 0 01-.503-.083.903.903 0 01-.382-.262.889.889 0 01-.193-.458h.42a.577.577 0 00.125.255.603.603 0 00.23.153c.092.033.192.05.3.05a.796.796 0 00.42-.098.326.326 0 00.16-.3.305.305 0 00-.085-.227.505.505 0 00-.257-.128l-.535-.132a1.176 1.176 0 01-.5-.235.558.558 0 01-.188-.448.714.714 0 01.108-.4.74.74 0 01.33-.272c.146-.067.329-.1.547-.1.28 0 .506.063.678.19.173.125.263.309.27.552h-.408a.42.42 0 00-.167-.292.598.598 0 00-.378-.11.726.726 0 00-.402.1c-.104.065-.155.167-.155.305 0 .092.036.164.11.217a.961.961 0 00.325.13l.517.131c.12.031.219.073.295.124.079.052.14.11.185.173a.699.699 0 01.128.397c0 .159-.04.295-.12.41a.764.764 0 01-.34.265 1.374 1.374 0 01-.535.093zm2.514 0c-.18 0-.347-.027-.502-.083a.912.912 0 01-.383-.262.896.896 0 01-.192-.458h.42a.566.566 0 00.125.255.596.596 0 00.23.153c.092.033.192.05.3.05a.8.8 0 00.42-.098.326.326 0 00.16-.3.305.305 0 00-.085-.227.504.504 0 00-.258-.128l-.535-.132a1.182 1.182 0 01-.5-.235.557.557 0 01-.187-.448.714.714 0 01.107-.4.75.75 0 01.33-.272c.147-.067.33-.1.548-.1.28 0 .506.063.677.19.174.125.264.309.27.552h-.407a.424.424 0 00-.168-.292.595.595 0 00-.377-.11.732.732 0 00-.403.1c-.103.065-.155.167-.155.305 0 .092.037.164.11.217a.98.98 0 00.325.13l.518.131c.12.031.218.073.295.124.078.052.14.11.185.173a.699.699 0 01.127.397c0 .159-.04.295-.12.41a.753.753 0 01-.34.265 1.37 1.37 0 01-.535.093zm1.972-1.235c0 .163.026.312.08.445a.711.711 0 00.247.315.713.713 0 00.418.117.763.763 0 00.425-.115.515.515 0 00.23-.332h.437a.89.89 0 01-.21.443 1.06 1.06 0 01-.392.272 1.31 1.31 0 01-.48.09 1.25 1.25 0 01-.638-.158 1.091 1.091 0 01-.43-.452 1.51 1.51 0 01-.155-.708c0-.271.047-.51.14-.715.093-.205.228-.365.405-.48a1.16 1.16 0 01.643-.172c.243 0 .449.052.617.157a1 1 0 01.383.445c.088.19.132.416.132.678v.17h-1.852zm.002-.313h1.405c0-.148-.025-.281-.075-.4a.61.61 0 00-.23-.282.664.664 0 00-.385-.105.66.66 0 00-.64.415.89.89 0 00-.075.372zm3.417 1.548c-.335 0-.6-.115-.797-.345-.197-.23-.295-.566-.295-1.008 0-.268.039-.502.117-.702.08-.2.199-.355.355-.465a.995.995 0 01.585-.165.985.985 0 01.578.167.885.885 0 01.27.293v-1.54h.465v3.715h-.353l-.05-.53c-.016.05-.043.108-.08.175a.772.772 0 01-.412.345c-.103.04-.231.06-.383.06zm.083-.355c.262 0 .448-.079.56-.238.113-.16.17-.42.17-.782a1.604 1.604 0 00-.078-.515.625.625 0 00-.23-.323.684.684 0 00-.412-.112.662.662 0 00-.52.227c-.133.152-.2.393-.2.723 0 .323.06.574.18.752a.6.6 0 00.53.268zm1.851.305v-.59h.55v.59h-.55zm-77.323 3.81v-.425h2.735v.425h-1.102v3.19h-.466v-3.19h-1.167zm3.236 3.19v-3.715h.45v1.51a.871.871 0 01.442-.353c.106-.04.227-.06.366-.06.168 0 .32.032.457.095.137.062.245.15.325.265a.7.7 0 01.12.41v1.848h-.462v-1.755a.429.429 0 00-.16-.358.635.635 0 00-.413-.127.92.92 0 00-.325.057.567.567 0 00-.247.17.438.438 0 00-.093.288v1.725h-.46zm3.211-1.185c0 .163.027.312.08.445a.712.712 0 00.248.315c.111.078.25.117.417.117a.762.762 0 00.425-.115.512.512 0 00.23-.332h.438a.884.884 0 01-.21.443c-.109.119-.24.21-.393.272-.153.06-.313.09-.48.09a1.25 1.25 0 01-.637-.158 1.091 1.091 0 01-.43-.452 1.507 1.507 0 01-.155-.708c0-.271.046-.51.14-.715.093-.205.228-.365.405-.48a1.16 1.16 0 01.642-.172c.243 0 .45.052.618.157a.995.995 0 01.382.445c.088.19.133.416.133.678v.17h-1.853zm.003-.313h1.405c0-.148-.025-.281-.075-.4a.609.609 0 00-.23-.282.664.664 0 00-.385-.105.664.664 0 00-.403.117.72.72 0 00-.237.298.9.9 0 00-.075.372zm4.916-.75h-.582v1.608c0 .092.009.159.027.202a.14.14 0 00.097.08c.047.012.11.018.19.018h.283v.31a.67.67 0 01-.145.03 1.924 1.924 0 01-.237.013.964.964 0 01-.416-.073.413.413 0 01-.207-.215.938.938 0 01-.058-.35v-1.623h-.42v-.337h.433l.112-.753h.34v.75h.583v.34zm1.623 2.298c-.238 0-.446-.051-.625-.153a1.042 1.042 0 01-.415-.452 1.627 1.627 0 01-.147-.728c0-.27.046-.506.137-.71a1.06 1.06 0 01.403-.472c.178-.113.394-.17.647-.17.239 0 .445.052.62.157.177.104.314.256.41.458.097.202.145.447.145.737 0 .264-.045.495-.135.695-.088.2-.22.357-.395.47a1.165 1.165 0 01-.645.168zm0-.365a.64.64 0 00.393-.118.712.712 0 00.242-.337c.055-.147.083-.321.083-.523 0-.185-.024-.35-.073-.497a.738.738 0 00-.232-.353.63.63 0 00-.413-.13c-.156 0-.289.04-.397.118a.71.71 0 00-.248.335 1.503 1.503 0 00-.082.527c0 .182.025.347.075.495a.75.75 0 00.235.353.64.64 0 00.417.13zm3.01-1.933h-.582v1.608c0 .092.01.159.028.202a.14.14 0 00.097.08c.047.012.11.018.19.018h.283v.31a.67.67 0 01-.145.03 1.924 1.924 0 01-.238.013.964.964 0 01-.415-.073.413.413 0 01-.207-.215.938.938 0 01-.058-.35v-1.623h-.42v-.337h.433l.112-.753h.34v.75h.583v.34zm1.36 2.298c-.166 0-.314-.029-.442-.088a.711.711 0 01-.302-.257.735.735 0 01-.108-.405c0-.287.1-.5.3-.64.2-.14.52-.215.963-.225l.462-.013v-.202a.498.498 0 00-.142-.375c-.096-.093-.243-.14-.443-.14a.769.769 0 00-.392.105.49.49 0 00-.218.335h-.407a.777.777 0 01.142-.425.78.78 0 01.355-.265c.153-.06.334-.09.542-.09.225 0 .412.032.56.095.15.063.262.157.336.28a.86.86 0 01.112.455v1.805h-.395l-.032-.485c-.1.202-.228.342-.383.42a1.115 1.115 0 01-.507.115zm.14-.333a.725.725 0 00.258-.047.923.923 0 00.237-.128.693.693 0 00.17-.182.405.405 0 00.068-.21v-.443l-.385.008a1.995 1.995 0 00-.495.06.588.588 0 00-.297.172.468.468 0 00-.098.308c0 .145.05.258.15.34a.605.605 0 00.393.122zm2.62.316a.855.855 0 01-.34-.058.476.476 0 01-.197-.155.587.587 0 01-.093-.223 1.502 1.502 0 01-.022-.262v-3.05h.455v3.005c0 .13.025.227.075.292a.29.29 0 00.215.108l.14.002v.3a.898.898 0 01-.233.041zm2.704.017a1.05 1.05 0 01-.442-.088.713.713 0 01-.303-.257.736.736 0 01-.107-.405c0-.287.1-.5.3-.64.2-.14.52-.215.962-.225l.463-.013v-.202a.498.498 0 00-.143-.375c-.095-.093-.242-.14-.442-.14a.77.77 0 00-.393.105.49.49 0 00-.217.335h-.408a.777.777 0 01.143-.425.78.78 0 01.355-.265c.153-.06.334-.09.542-.09.225 0 .412.032.56.095.15.063.262.157.335.28a.86.86 0 01.113.455v1.805h-.395l-.033-.485c-.1.202-.227.342-.382.42a1.114 1.114 0 01-.508.115zm.14-.333a.724.724 0 00.258-.047.92.92 0 00.237-.128.69.69 0 00.17-.182.403.403 0 00.068-.21v-.443l-.385.008a1.996 1.996 0 00-.495.06.588.588 0 00-.298.172.468.468 0 00-.097.308c0 .145.05.258.15.34a.605.605 0 00.392.122zm1.968.283v-2.585h.445v.375c.071-.113.17-.213.295-.298a.85.85 0 01.487-.127.931.931 0 01.555.19.658.658 0 01.19.232.916.916 0 01.787-.422c.09 0 .185.014.283.042a.723.723 0 01.48.433c.053.122.08.278.08.47v1.69h-.465v-1.645a.722.722 0 00-.075-.363.418.418 0 00-.197-.182.636.636 0 00-.258-.053.762.762 0 00-.255.048.527.527 0 00-.23.16.46.46 0 00-.095.307v1.728h-.46v-1.78a.392.392 0 00-.082-.255.507.507 0 00-.203-.155.595.595 0 00-.24-.053.735.735 0 00-.267.053.546.546 0 00-.225.167.46.46 0 00-.09.295v1.728h-.46zm5.353.05a1.24 1.24 0 01-.625-.153 1.048 1.048 0 01-.415-.452 1.631 1.631 0 01-.147-.728c0-.27.046-.506.137-.71a1.06 1.06 0 01.403-.472c.178-.113.394-.17.647-.17.239 0 .445.052.62.157.177.104.314.256.41.458.097.202.145.447.145.737 0 .264-.045.495-.135.695-.088.2-.22.357-.395.47a1.163 1.163 0 01-.645.168zm0-.365a.643.643 0 00.393-.118.716.716 0 00.242-.337 1.49 1.49 0 00.083-.523c0-.185-.024-.35-.073-.497a.74.74 0 00-.232-.353.632.632 0 00-.413-.13.662.662 0 00-.397.118.708.708 0 00-.248.335 1.504 1.504 0 00-.082.527c0 .182.025.347.075.495.05.149.128.266.235.353.106.087.246.13.417.13zm2.686.365a1.357 1.357 0 01-.382-.058.991.991 0 01-.315-.167.79.79 0 01-.218-.273.898.898 0 01-.077-.382v-1.755h.462v1.707a.56.56 0 00.155.41c.105.105.263.158.473.158.19 0 .342-.049.457-.148.117-.1.175-.248.175-.445v-1.682h.46v2.585h-.367l-.048-.495a.666.666 0 01-.435.492.966.966 0 01-.34.053zm1.946-.05v-2.585h.447v.375a.828.828 0 01.443-.355c.107-.038.229-.058.367-.058.164 0 .314.033.45.098a.741.741 0 01.33.305c.084.137.125.313.125.53v1.69h-.462v-1.645c0-.202-.053-.351-.16-.448a.577.577 0 00-.41-.147.93.93 0 00-.328.057.568.568 0 00-.247.17.428.428 0 00-.095.285v1.728h-.46zm4.077-2.248h-.583v1.608c0 .092.01.159.028.202a.14.14 0 00.097.08c.047.012.11.018.19.018h.283v.31a.674.674 0 01-.145.03 1.928 1.928 0 01-.238.013.968.968 0 01-.415-.073.413.413 0 01-.207-.215.945.945 0 01-.058-.35v-1.623h-.42v-.337h.433l.112-.753h.34v.75h.583v.34zm2.686 2.298c-.335 0-.601-.115-.798-.345-.197-.23-.295-.566-.295-1.008 0-.268.039-.502.118-.702.08-.2.198-.355.355-.465a.99.99 0 01.585-.165.985.985 0 01.577.167.885.885 0 01.27.293v-1.54h.465v3.715h-.352l-.05-.53a.854.854 0 01-.235.367.788.788 0 01-.258.153c-.103.04-.231.06-.382.06zm.082-.355c.262 0 .448-.079.56-.238.113-.16.17-.42.17-.782a1.606 1.606 0 00-.077-.515.631.631 0 00-.23-.323.69.69 0 00-.413-.112.662.662 0 00-.52.227c-.133.152-.2.393-.2.723 0 .323.06.574.18.752a.6.6 0 00.53.268zm2.289-.88c0 .163.026.312.08.445a.711.711 0 00.247.315.713.713 0 00.418.117.763.763 0 00.425-.115.515.515 0 00.23-.332h.437a.89.89 0 01-.21.443 1.06 1.06 0 01-.392.272 1.31 1.31 0 01-.48.09 1.25 1.25 0 01-.638-.158 1.091 1.091 0 01-.43-.452 1.51 1.51 0 01-.155-.708c0-.271.047-.51.14-.715.093-.205.228-.365.405-.48a1.16 1.16 0 01.643-.172c.243 0 .449.052.617.157a1 1 0 01.383.445c.088.19.132.416.132.678v.17h-1.852zm.002-.313h1.405c0-.148-.025-.281-.075-.4a.61.61 0 00-.23-.282.664.664 0 00-.385-.105.66.66 0 00-.64.415.89.89 0 00-.075.372zm3.418 1.548c-.335 0-.601-.115-.798-.345-.197-.23-.295-.566-.295-1.008 0-.268.039-.502.118-.702.08-.2.198-.355.355-.465a.99.99 0 01.585-.165.985.985 0 01.577.167.885.885 0 01.27.293v-1.54h.465v3.715h-.352l-.05-.53a.854.854 0 01-.235.367.788.788 0 01-.258.153c-.103.04-.231.06-.382.06zm.082-.355c.262 0 .448-.079.56-.238.113-.16.17-.42.17-.782a1.606 1.606 0 00-.077-.515.631.631 0 00-.23-.323.69.69 0 00-.413-.112.662.662 0 00-.52.227c-.133.152-.2.393-.2.723 0 .323.06.574.18.752a.6.6 0 00.53.268zm2.909.355a1.364 1.364 0 01-.383-.058.991.991 0 01-.315-.167.776.776 0 01-.217-.273.883.883 0 01-.078-.382v-1.755h.463v1.707c0 .169.051.305.155.41.105.105.262.158.472.158.19 0 .343-.049.458-.148.116-.1.175-.248.175-.445v-1.682h.46v2.585h-.368l-.047-.495a.676.676 0 01-.163.315.683.683 0 01-.272.177.97.97 0 01-.34.053zm2.941-2.685c.185 0 .352.036.5.107.148.07.269.17.362.3.095.13.155.284.178.46h-.41a.57.57 0 00-.105-.247.57.57 0 00-.213-.18.672.672 0 00-.31-.068.682.682 0 00-.54.24c-.138.16-.207.405-.207.735 0 .299.063.538.19.718.128.178.317.267.565.267a.656.656 0 00.307-.067.596.596 0 00.315-.428h.403a.925.925 0 01-.54.745 1.15 1.15 0 01-.495.103c-.232 0-.438-.051-.618-.153a1.054 1.054 0 01-.42-.45 1.593 1.593 0 01-.152-.73c0-.27.046-.505.137-.707.094-.203.229-.362.405-.475a1.19 1.19 0 01.648-.17zm2.896.387h-.583v1.608c0 .092.009.159.028.202a.14.14 0 00.097.08c.047.012.11.018.19.018h.283v.31a.674.674 0 01-.145.03 1.94 1.94 0 01-.238.013.965.965 0 01-.415-.073.413.413 0 01-.207-.215.925.925 0 01-.058-.35v-1.623h-.42v-.337h.433l.112-.753h.34v.75h.583v.34zm.925 1.063c0 .163.027.312.08.445a.713.713 0 00.248.315.712.712 0 00.417.117.761.761 0 00.425-.115.511.511 0 00.23-.332h.438a.89.89 0 01-.21.443c-.108.119-.239.21-.393.272-.153.06-.313.09-.48.09a1.25 1.25 0 01-.637-.158 1.091 1.091 0 01-.43-.452 1.51 1.51 0 01-.155-.708c0-.271.047-.51.14-.715.093-.205.228-.365.405-.48.178-.115.392-.172.642-.172.244 0 .45.052.618.157a.992.992 0 01.382.445c.089.19.133.416.133.678v.17h-1.853zm.003-.313h1.405c0-.148-.025-.281-.075-.4a.61.61 0 00-.23-.282.664.664 0 00-.385-.105.665.665 0 00-.403.117.716.716 0 00-.237.298.89.89 0 00-.075.372zm3.417 1.548c-.335 0-.6-.115-.797-.345-.197-.23-.295-.566-.295-1.008 0-.268.039-.502.117-.702.08-.2.199-.355.355-.465a.995.995 0 01.585-.165.985.985 0 01.578.167.885.885 0 01.27.293v-1.54h.465v3.715h-.353l-.05-.53c-.016.05-.043.108-.08.175a.772.772 0 01-.412.345c-.103.04-.231.06-.383.06zm.083-.355c.262 0 .448-.079.56-.238.113-.16.17-.42.17-.782a1.604 1.604 0 00-.078-.515.625.625 0 00-.23-.323.684.684 0 00-.412-.112.662.662 0 00-.52.227c-.133.152-.2.393-.2.723 0 .323.06.574.18.752a.6.6 0 00.53.268zm4.571-2.28v.337h-.628v2.248h-.465v-2.248h-.545v-.337h.545v-.4c0-.205.053-.361.158-.468.105-.108.262-.162.47-.162h.487l.003.327h-.388c-.105 0-.176.029-.215.085a.47.47 0 00-.057.258v.36h.635zm.571 2.585v-2.585h.44v.497a.805.805 0 01.45-.487.856.856 0 01.428-.052.234.234 0 01.085.024v.448a.3.3 0 00-.098-.023.758.758 0 00-.097-.007c-.104-.007-.2 0-.29.02a.65.65 0 00-.238.097.51.51 0 00-.162.185.592.592 0 00-.058.275v1.608h-.46zm2.907.05a1.24 1.24 0 01-.625-.153 1.048 1.048 0 01-.415-.452 1.631 1.631 0 01-.147-.728c0-.27.046-.506.137-.71a1.06 1.06 0 01.403-.472c.178-.113.394-.17.647-.17.239 0 .445.052.62.157.177.104.314.256.41.458.097.202.145.447.145.737 0 .264-.045.495-.135.695-.088.2-.22.357-.395.47a1.163 1.163 0 01-.645.168zm0-.365a.643.643 0 00.393-.118.71.71 0 00.242-.337 1.49 1.49 0 00.083-.523c0-.185-.024-.35-.073-.497a.733.733 0 00-.232-.353.632.632 0 00-.413-.13.662.662 0 00-.397.118.715.715 0 00-.248.335 1.504 1.504 0 00-.082.527c0 .182.025.347.075.495.05.149.128.266.235.353a.64.64 0 00.417.13zm1.781.315v-2.585h.445v.375a1.02 1.02 0 01.295-.298.849.849 0 01.487-.127.934.934 0 01.555.19.655.655 0 01.19.232.918.918 0 01.788-.422c.09 0 .184.014.282.042a.723.723 0 01.48.433c.053.122.08.278.08.47v1.69h-.465v-1.645a.722.722 0 00-.075-.363.42.42 0 00-.197-.182.637.637 0 00-.258-.053.762.762 0 00-.255.048.525.525 0 00-.23.16.462.462 0 00-.095.307v1.728h-.46v-1.78a.392.392 0 00-.082-.255.511.511 0 00-.203-.155.595.595 0 00-.24-.053.734.734 0 00-.267.053.537.537 0 00-.225.167.46.46 0 00-.09.295v1.728h-.46zm5.699.825c-.152 0-.256-.011-.313-.032a8.673 8.673 0 00-.085-.033v-.3l.263.005a.845.845 0 00.24-.02.457.457 0 00.152-.067.313.313 0 00.088-.095.69.69 0 00.052-.1l.09-.246-1.01-2.522h.468l.762 1.995.758-1.995h.452l-1.09 2.78a1.277 1.277 0 01-.225.383.676.676 0 01-.275.192.935.935 0 01-.327.055zm3.346-.775c-.239 0-.447-.051-.625-.153a1.036 1.036 0 01-.415-.452 1.617 1.617 0 01-.148-.728c0-.27.046-.506.138-.71.091-.203.225-.36.402-.472.178-.113.394-.17.648-.17.238 0 .445.052.62.157.176.104.313.256.41.458.096.202.145.447.145.737 0 .264-.045.495-.135.695-.089.2-.22.357-.395.47a1.168 1.168 0 01-.645.168zm0-.365a.64.64 0 00.392-.118.711.711 0 00.243-.337c.055-.147.082-.321.082-.523 0-.185-.024-.35-.072-.497a.742.742 0 00-.233-.353.63.63 0 00-.412-.13c-.157 0-.29.04-.398.118a.707.707 0 00-.247.335 1.502 1.502 0 00-.083.527c0 .182.025.347.075.495.05.149.128.266.235.353a.64.64 0 00.418.13zm2.686.365a1.364 1.364 0 01-.383-.058.991.991 0 01-.315-.167.787.787 0 01-.295-.655v-1.755h.463v1.707a.56.56 0 00.155.41c.105.105.262.158.472.158.19 0 .343-.049.458-.148.117-.1.175-.248.175-.445v-1.682h.46v2.585h-.368l-.047-.495a.676.676 0 01-.163.315.676.676 0 01-.272.177.966.966 0 01-.34.053zm1.945-.05v-2.585h.44v.497a.83.83 0 01.183-.305.76.76 0 01.267-.182.856.856 0 01.428-.052.228.228 0 01.085.024v.448a.3.3 0 00-.098-.023.747.747 0 00-.097-.007c-.103-.007-.2 0-.29.02a.656.656 0 00-.238.097.51.51 0 00-.162.185.604.604 0 00-.058.275v1.608h-.46zm-83.25 7.05c-.166 0-.314-.029-.442-.088a.712.712 0 01-.302-.257.735.735 0 01-.108-.405c0-.287.1-.5.3-.64.2-.14.52-.215.962-.225l.463-.013v-.202a.498.498 0 00-.142-.375c-.096-.093-.243-.14-.443-.14a.769.769 0 00-.392.105.49.49 0 00-.218.335h-.407a.777.777 0 01.142-.425.78.78 0 01.355-.265c.153-.06.334-.09.543-.09.224 0 .411.032.56.095.15.063.261.157.334.28a.86.86 0 01.113.455v1.805h-.395l-.032-.485c-.1.202-.228.342-.383.42a1.114 1.114 0 01-.508.115zm.14-.333a.724.724 0 00.258-.047.921.921 0 00.237-.128.691.691 0 00.17-.182.405.405 0 00.068-.21v-.443l-.385.008a1.995 1.995 0 00-.495.06.588.588 0 00-.297.172.468.468 0 00-.098.308c0 .145.05.258.15.34a.605.605 0 00.392.122zm2.998-2.352c.185 0 .351.036.5.107.148.07.269.17.362.3.095.13.154.284.178.46h-.41a.57.57 0 00-.105-.247.577.577 0 00-.213-.18.675.675 0 00-.31-.068.68.68 0 00-.54.24c-.138.16-.207.405-.207.735 0 .299.063.538.19.718.128.178.316.267.565.267a.604.604 0 00.623-.495h.402a.922.922 0 01-.54.745 1.149 1.149 0 01-.495.103 1.23 1.23 0 01-.618-.153 1.05 1.05 0 01-.42-.45 1.584 1.584 0 01-.152-.73c0-.27.046-.505.137-.707.094-.203.229-.362.405-.475.179-.113.394-.17.648-.17zm2.695 0c.185 0 .352.036.5.107.148.07.27.17.363.3.095.13.154.284.177.46h-.41a.57.57 0 00-.105-.247.577.577 0 00-.212-.18.675.675 0 00-.31-.068.68.68 0 00-.54.24c-.139.16-.208.405-.208.735 0 .299.063.538.19.718.128.178.317.267.565.267a.604.604 0 00.623-.495h.402a.922.922 0 01-.54.745 1.149 1.149 0 01-.495.103 1.23 1.23 0 01-.617-.153 1.05 1.05 0 01-.42-.45 1.584 1.584 0 01-.153-.73c0-.27.046-.505.138-.707.093-.203.228-.362.405-.475.178-.113.394-.17.647-.17zm2.693 2.685c-.238 0-.447-.051-.625-.153a1.042 1.042 0 01-.415-.452 1.627 1.627 0 01-.148-.728c0-.27.046-.506.138-.71a1.06 1.06 0 01.402-.472c.179-.113.395-.17.648-.17.238 0 .445.052.62.157.177.104.313.256.41.458.097.202.145.447.145.737 0 .264-.045.495-.135.695-.088.2-.22.357-.395.47a1.165 1.165 0 01-.645.168zm0-.365a.64.64 0 00.392-.118.712.712 0 00.243-.337c.055-.147.082-.321.082-.523 0-.185-.024-.35-.072-.497a.738.738 0 00-.233-.353.63.63 0 00-.412-.13c-.157 0-.29.04-.398.118a.71.71 0 00-.247.335 1.503 1.503 0 00-.083.527c0 .182.025.347.075.495a.75.75 0 00.235.353.64.64 0 00.418.13zm2.686.365a1.36 1.36 0 01-.382-.058.983.983 0 01-.315-.167.784.784 0 01-.295-.655v-1.755h.462v1.707c0 .169.052.305.155.41.105.105.263.158.473.158.19 0 .342-.049.457-.148.117-.1.175-.248.175-.445v-1.682h.46v2.585h-.367l-.048-.495a.677.677 0 01-.162.315.681.681 0 01-.273.177.968.968 0 01-.34.053zm1.946-.05v-2.585h.447v.375a.808.808 0 01.443-.355c.106-.038.229-.058.367-.058.163 0 .313.033.45.098a.749.749 0 01.33.305c.083.137.125.313.125.53v1.69h-.462v-1.645c0-.202-.054-.351-.16-.448a.577.577 0 00-.41-.147.927.927 0 00-.328.057.567.567 0 00-.247.17.426.426 0 00-.095.285v1.728h-.46zm4.077-2.248h-.583v1.608c0 .092.01.159.028.202a.14.14 0 00.097.08c.047.012.11.018.19.018h.283v.31a.67.67 0 01-.145.03 1.924 1.924 0 01-.238.013.964.964 0 01-.415-.073.413.413 0 01-.207-.215.938.938 0 01-.058-.35v-1.623h-.42v-.337h.433l.112-.753h.34v.75h.583v.34zm2.316-.337v2.585h-.447v-2.585h.447zm.01-1.028v.48h-.472v-.48h.472zm1.721 3.663c-.18 0-.347-.027-.502-.083a.907.907 0 01-.383-.262.888.888 0 01-.192-.458h.42a.57.57 0 00.125.255.596.596 0 00.23.153.88.88 0 00.3.05.8.8 0 00.42-.098.327.327 0 00.16-.3.307.307 0 00-.085-.227.504.504 0 00-.258-.128l-.535-.132a1.18 1.18 0 01-.5-.235.558.558 0 01-.187-.448.714.714 0 01.107-.4.742.742 0 01.33-.272c.147-.067.33-.1.548-.1.28 0 .505.063.677.19.173.125.263.309.27.552h-.407a.422.422 0 00-.168-.292.597.597 0 00-.377-.11c-.165 0-.3.033-.403.1-.103.065-.155.167-.155.305 0 .092.037.164.11.217a.97.97 0 00.325.13l.518.131a.97.97 0 01.295.124c.078.052.14.11.185.173a.699.699 0 01.127.397c0 .159-.04.295-.12.41a.758.758 0 01-.34.265 1.373 1.373 0 01-.535.093zm5.616-1.427c0 .291-.048.544-.143.759-.095.214-.249.379-.462.495-.212.116-.493.173-.843.173-.351 0-.633-.058-.845-.175a1.041 1.041 0 01-.46-.503 1.948 1.948 0 01-.14-.775v-2.212h.743v2.267c0 .27.065.468.195.593.13.123.299.185.507.185.139 0 .261-.027.368-.08a.579.579 0 00.25-.253.938.938 0 00.092-.445v-2.267h.738v2.238zm2.083 1.427c-.178 0-.353-.022-.525-.068a1.65 1.65 0 01-.47-.202 1.224 1.224 0 01-.353-.338 1.025 1.025 0 01-.165-.475h.748a.59.59 0 00.142.278c.07.075.159.132.265.172a1.23 1.23 0 00.72.01.61.61 0 00.265-.15.348.348 0 00.1-.255.317.317 0 00-.082-.225.585.585 0 00-.218-.142 1.701 1.701 0 00-.312-.09l-.625-.127a1.188 1.188 0 01-.65-.326c-.16-.166-.243-.388-.248-.665a.959.959 0 01.18-.587 1.19 1.19 0 01.5-.385 1.8 1.8 0 01.71-.135c.312 0 .574.049.785.147.214.097.375.229.485.395.112.165.17.35.173.553h-.733a.54.54 0 00-.115-.303.529.529 0 00-.245-.162 1.053 1.053 0 00-.337-.05 1.04 1.04 0 00-.265.032.627.627 0 00-.2.093.416.416 0 00-.128.137.364.364 0 00-.045.18c0 .105.035.19.105.255.07.065.201.119.393.16l.62.128c.222.043.397.107.527.192a.914.914 0 01.425.615c.022.11.033.212.033.305a.835.835 0 01-.185.528 1.25 1.25 0 01-.51.37c-.218.09-.473.135-.765.135zm4.531 0c-.433 0-.785-.087-1.055-.26-.27-.175-.425-.444-.465-.808l.76-.015c.04.165.126.291.258.378.133.085.3.127.5.127.12 0 .226-.019.317-.057a.544.544 0 00.22-.16.364.364 0 00.08-.233c0-.133-.042-.232-.127-.297a1 1 0 00-.393-.16l-.592-.127a1.292 1.292 0 01-.663-.328c-.165-.165-.249-.386-.252-.663a.941.941 0 01.182-.587c.125-.167.294-.295.508-.385.215-.09.456-.135.722-.135.274 0 .509.049.708.147.2.097.353.228.46.393a.927.927 0 01.157.542l-.737.013a.706.706 0 00-.16-.378c-.084-.091-.222-.137-.415-.137-.1 0-.189.011-.268.032a.649.649 0 00-.202.093.403.403 0 00-.13.137.374.374 0 00-.043.18c0 .105.035.189.105.25.072.06.206.116.403.168l.582.142c.329.079.565.213.71.403.147.19.22.421.22.692 0 .209-.057.39-.172.545a1.09 1.09 0 01-.483.36 1.916 1.916 0 01-.735.128zm-.312-4.183h.632v.65h-.632v-.65zm-.013 3.96h.63v.651h-.63v-.651zm2.821.173v-2.708h-.645v-.412c.207 0 .373-.019.5-.058a.61.61 0 00.288-.17.494.494 0 00.112-.267h.485v3.615h-.74zm2.894-3.665c.43 0 .769.161 1.017.482.249.32.373.781.373 1.383 0 .598-.123 1.057-.368 1.377-.245.319-.586.478-1.022.478-.439 0-.781-.159-1.028-.478-.245-.318-.367-.776-.367-1.375 0-.4.056-.739.17-1.017.113-.278.274-.489.482-.633.209-.145.456-.217.743-.217zm0 3.122a.496.496 0 00.472-.287c.1-.193.15-.516.15-.968 0-.461-.051-.792-.152-.992a.5.5 0 00-.473-.3c-.213 0-.372.101-.477.302-.104.202-.155.532-.155.99 0 .45.051.772.155.965.103.194.263.29.48.29zm3.45-3.072h.718v2.203h.557v.612h-.557v.8h-.703l.003-.8h-1.665v-.6l1.647-2.215zm-.972 2.203h.99v-1.326l-.99 1.326zm2.639 1.412v-.795h.8v.795h-.8zm2.647.055c-.225 0-.435-.043-.63-.13a1.229 1.229 0 01-.477-.365.99.99 0 01-.208-.555h.695c.03.14.097.254.2.342.104.087.234.13.39.13.174 0 .325-.04.455-.122a.735.735 0 00.295-.39c.067-.178.09-.412.07-.7a.716.716 0 01-.195.232.926.926 0 01-.287.153c-.11.035-.233.052-.368.052-.245 0-.462-.045-.652-.137a1.08 1.08 0 01-.445-.395 1.13 1.13 0 01-.16-.61c0-.237.056-.448.17-.633a1.17 1.17 0 01.475-.435c.203-.105.441-.157.715-.157.306 0 .571.073.792.22.224.145.394.352.513.62.12.267.18.581.18.942 0 .432-.062.792-.185 1.08a1.362 1.362 0 01-.525.645 1.52 1.52 0 01-.818.213zm.065-1.933a.747.747 0 00.533-.242.33.33 0 00.092-.218.959.959 0 00-.077-.415.603.603 0 00-.22-.267.581.581 0 00-.328-.093.593.593 0 00-.307.08.577.577 0 00-.213.225.71.71 0 00-.077.335c0 .189.055.335.165.44.11.104.254.155.432.155zm3.284-1.787c.43 0 .769.161 1.018.482.248.32.372.781.372 1.383 0 .598-.122 1.057-.367 1.377-.245.319-.586.478-1.023.478-.438 0-.781-.159-1.027-.478-.245-.318-.368-.776-.368-1.375 0-.4.057-.739.17-1.017.113-.278.274-.489.483-.633.208-.145.455-.217.742-.217zm0 3.122a.498.498 0 00.473-.287c.1-.193.15-.516.15-.968 0-.461-.051-.792-.153-.992a.5.5 0 00-.472-.3c-.214 0-.373.101-.478.302-.103.202-.155.532-.155.99 0 .45.052.772.155.965.103.194.263.29.48.29zm1.883.543v-.59h.55v.59h-.55z" fill="#36536B"/><path fill-rule="evenodd" clip-rule="evenodd" d="M73.909 147.228v-1.487l1.211-2.05h-.768l-.792 1.434-.802-1.434h-.761l1.209 2.047v1.49h.703zm2.627.049c.254 0 .47-.056.65-.167.178-.111.316-.263.411-.458.096-.195.144-.42.144-.674 0-.271-.05-.505-.147-.704a1.08 1.08 0 00-.417-.461 1.208 1.208 0 00-.638-.163c-.246 0-.459.056-.64.166-.18.111-.32.266-.419.465a1.548 1.548 0 00-.148.697c0 .266.05.496.148.69.1.194.239.344.42.45.18.106.392.159.636.159zm-.308-.646a.415.415 0 00.31.115.412.412 0 00.3-.11.642.642 0 00.165-.29c.034-.12.051-.251.051-.392 0-.134-.015-.26-.047-.379a.603.603 0 00-.16-.289.425.425 0 00-.308-.11.43.43 0 00-.3.104.602.602 0 00-.167.281 1.483 1.483 0 00-.005.773c.032.121.086.22.161.297zm2.897.646c.098 0 .198-.015.3-.046a.636.636 0 00.272-.163.645.645 0 00.163-.342l.082.502h.53v-2.529h-.696v1.646c0 .13-.04.232-.122.304a.473.473 0 01-.329.109c-.146 0-.257-.037-.332-.112a.39.39 0 01-.113-.289v-1.658h-.703v1.749a.742.742 0 00.303.616c.091.07.193.123.305.159.111.036.225.054.34.054zm2.62-1.433v1.384h-.703v-2.529h.677v.599a1.1 1.1 0 01.17-.339.748.748 0 01.684-.305c.02.002.035.006.044.011v.68a.153.153 0 00-.051-.013l-.054-.004a1.253 1.253 0 00-.355.012.56.56 0 00-.238.1.405.405 0 00-.132.174.614.614 0 00-.041.23zm2.814 1.384l.291-.82h1.252l.285.82h.7l-1.245-3.537H85.1l-1.247 3.537h.706zm.448-1.443h.927l-.46-1.404-.467 1.404zm3.217 2.23v-1.166a.96.96 0 00.124.167.817.817 0 00.358.228c.07.022.146.033.226.033.196 0 .372-.048.528-.142a.95.95 0 00.367-.437c.089-.196.134-.448.134-.754 0-.295-.042-.539-.124-.73a.914.914 0 00-.341-.426.9.9 0 00-.494-.138.922.922 0 00-.773.413l-.002-.364h-.706v3.316h.703zm.237-1.374c.08.075.18.112.303.112.152 0 .28-.064.384-.193.103-.129.155-.333.155-.611 0-.245-.05-.436-.148-.574a.458.458 0 00-.391-.206.441.441 0 00-.406.223 1.07 1.07 0 00-.134.557c0 .142.02.274.06.396.038.122.098.221.177.296zm2.67 1.374v-1.166c.035.06.077.116.124.167a.816.816 0 00.358.228c.07.022.146.033.226.033.196 0 .372-.048.528-.142a.95.95 0 00.367-.437c.089-.196.134-.448.134-.754 0-.295-.042-.539-.125-.73a.914.914 0 00-.34-.426.9.9 0 00-.494-.138.921.921 0 00-.773.413l-.003-.364h-.705v3.316h.703zm.237-1.374c.08.075.18.112.303.112.152 0 .28-.064.384-.193.103-.129.155-.333.155-.611 0-.245-.05-.436-.148-.574a.458.458 0 00-.391-.206.441.441 0 00-.406.223 1.07 1.07 0 00-.134.557c0 .142.02.274.059.396.04.122.099.221.178.296z" fill="#BA4270"/><path opacity=".5" fill-rule="evenodd" clip-rule="evenodd" d="M142.553 147.174c-.107.068-.258.103-.454.103-.124 0-.24-.015-.348-.044a2.649 2.649 0 01-.216-.066l.032-.433c.049.018.107.04.172.067.065.027.145.04.242.04.157 0 .265-.044.324-.132.058-.088.088-.236.088-.445v-2.573h.445v2.703c0 .187-.021.347-.062.479a.538.538 0 01-.223.301zm2.266.05a.931.931 0 01-.329.053 1.253 1.253 0 01-.367-.058.95.95 0 01-.305-.162.766.766 0 01-.208-.268.857.857 0 01-.076-.373v-1.717h.446v1.67c0 .165.05.299.15.401.101.103.252.154.454.154a.649.649 0 00.442-.145c.112-.097.168-.242.168-.434v-1.646h.443v2.529h-.354l-.046-.485a.679.679 0 01-.155.309.665.665 0 01-.263.172zm2.398.053c.202 0 .374-.031.516-.092a.746.746 0 00.328-.259.694.694 0 00.114-.4.723.723 0 00-.028-.195.59.59 0 00-.094-.194.689.689 0 00-.178-.169.955.955 0 00-.285-.122l-.499-.127a.9.9 0 01-.313-.129.247.247 0 01-.106-.211c0-.135.05-.235.15-.3a.702.702 0 01.387-.096c.153 0 .274.035.365.106a.42.42 0 01.16.287h.393c-.006-.238-.093-.418-.259-.541-.166-.123-.384-.185-.654-.185-.21 0-.386.033-.527.098a.71.71 0 00-.318.266.71.71 0 00-.104.392c0 .187.06.333.181.438.12.104.281.18.482.229l.515.13a.486.486 0 01.249.124c.054.056.081.13.081.223 0 .132-.051.23-.154.294a.768.768 0 01-.405.095.82.82 0 01-.289-.05.541.541 0 01-.22-.149.551.551 0 01-.122-.248h-.404a.86.86 0 00.185.446.869.869 0 00.37.257 1.4 1.4 0 00.483.082zm2.754-.049a1.847 1.847 0 01-.23.012.915.915 0 01-.4-.071.396.396 0 01-.199-.21.908.908 0 01-.057-.343v-1.587h-.404v-.33h.416l.109-.736h.327v.734h.562v.332h-.562v1.573c0 .089.01.155.028.197.019.041.05.068.094.079a.784.784 0 00.182.017h.272v.303a.634.634 0 01-.138.03zm2.411 0v-2.788l1.869 2.788h.398v-3.537h-.446v2.749l-1.84-2.749h-.426v3.537h.445zm4.708-.116c-.168.11-.376.165-.623.165-.23 0-.43-.05-.602-.151a1.005 1.005 0 01-.4-.441 1.608 1.608 0 01-.142-.712c0-.264.044-.496.133-.694.088-.199.217-.354.388-.464.171-.11.379-.165.623-.165.23 0 .429.051.599.153.169.102.3.251.393.449.093.197.14.437.14.721 0 .258-.043.484-.129.68a1.031 1.031 0 01-.38.459zm-.623-.192a.611.611 0 01-.402-.128.733.733 0 01-.227-.344 1.543 1.543 0 01-.072-.485c0-.2.027-.372.081-.516a.7.7 0 01.237-.329.638.638 0 01.383-.113c.164 0 .297.042.399.127a.718.718 0 01.222.343c.047.145.07.307.07.488 0 .198-.026.368-.079.511a.702.702 0 01-.234.331.62.62 0 01-.378.115zm3.232-1.558l-.539 1.866h-.436l-.769-2.529h.412l.571 1.944h.039l.561-1.944h.337l.583 1.939h.038l.547-1.939h.417l-.754 2.529h-.439l-.568-1.866z" fill="#36536B"/></g><defs><linearGradient id="paint0_linear" x1="58.844" y1="55" x2="58.844" y2="60.916" gradientUnits="userSpaceOnUse"><stop stop-color="#454545"/><stop offset=".226" stop-color="#999"/><stop offset="1" stop-color="#fff"/></linearGradient><linearGradient id="paint1_linear" x1="179.799" y1="96.159" x2="175.223" y2="96.159" gradientUnits="userSpaceOnUse"><stop stop-color="#fff" stop-opacity=".01"/><stop offset=".222" stop-color="#BABABA"/><stop offset=".547" stop-color="#fff" stop-opacity=".01"/><stop offset="1" stop-color="#fff" stop-opacity=".01"/></linearGradient><linearGradient id="paint2_linear" x1="55.242" y1="96.034" x2="59.825" y2="96.034" gradientUnits="userSpaceOnUse"><stop stop-color="#fff" stop-opacity=".01"/><stop offset=".222" stop-color="#BABABA"/><stop offset=".547" stop-color="#fff" stop-opacity=".01"/><stop offset="1" stop-color="#fff" stop-opacity=".01"/></linearGradient><linearGradient id="paint3_linear" x1="61.44" y1="61" x2="61.44" y2="282.264" gradientUnits="userSpaceOnUse"><stop stop-color="#9CB6CD"/><stop offset=".421" stop-color="#9AB3CA"/><stop offset=".717" stop-color="#557496"/><stop offset="1" stop-color="#475178"/></linearGradient><filter id="filter0_d" x=".242" y=".273" width="284.612" height="399.453" filterUnits="userSpaceOnUse" color-interpolation-filters="sRGB"><feFlood flood-opacity="0" result="BackgroundImageFix"/><feColorMatrix in="SourceAlpha" values="0 0 0 0 0 0 0 0 0 0 0 0 0 0 0 0 0 0 127 0"/><feOffset dx="25" dy="25"/><feGaussianBlur stdDeviation="40"/><feColorMatrix values="0 0 0 0 0.212302 0 0 0 0 0.32521 0 0 0 0 0.419299 0 0 0 0.300727 0"/><feBlend in2="BackgroundImageFix" result="effect1_dropShadow"/><feBlend in="SourceGraphic" in2="effect1_dropShadow" result="shape"/></filter><filter id="filter1_d" x="59.244" y="130" width="135.004" height="72.553" filterUnits="userSpaceOnUse" color-interpolation-filters="sRGB"><feFlood flood-opacity="0" result="BackgroundImageFix"/><feColorMatrix in="SourceAlpha" values="0 0 0 0 0 0 0 0 0 0 0 0 0 0 0 0 0 0 127 0"/><feMorphology radius="10" in="SourceAlpha" result="effect1_dropShadow"/><feOffset dx="10" dy="10"/><feGaussianBlur stdDeviation="12.5"/><feColorMatrix values="0 0 0 0 0.212302 0 0 0 0 0.32521 0 0 0 0 0.419299 0 0 0 0.25 0"/><feBlend in2="BackgroundImageFix" result="effect1_dropShadow"/><feBlend in="SourceGraphic" in2="effect1_dropShadow" result="shape"/></filter><clipPath id="clip0"><path fill="#fff" transform="translate(64.244 135)" d="M0 0h105v43H0z"/></clipPath></defs></svg>