<svg width="520" height="480" fill="none" xmlns="http://www.w3.org/2000/svg"><g filter="url(#filter0_d)"><path fill-rule="evenodd" clip-rule="evenodd" d="M270.817 55.364h122.389c11.738 0 21.253 9.11 21.253 20.35v278.572c0 11.239-9.515 20.349-21.253 20.349H270.817c-11.738 0-21.254-9.11-21.254-20.349V75.713c0-11.238 9.516-20.349 21.254-20.349z" fill="#213648"/></g><path opacity=".596" fill-rule="evenodd" clip-rule="evenodd" d="M393.679 55H270.271c-5.762.351-11.076 2.98-15.942 7.887 3.13-2.731 8.711-6.386 16.09-6.386h123.112c7.379 0 12.96 3.655 16.089 6.386-4.865-4.907-10.179-7.536-15.941-7.887z" fill="url(#paint0_linear)" fill-opacity=".65"/><path opacity=".75" fill-rule="evenodd" clip-rule="evenodd" d="M411.12 351.109V77.389c0-7.345-2.7-10.06-4.31-11.803-1.61-1.743-1.678-2.632.635-1.316 2.314 1.316 6.941 5.15 6.941 13.118V351.11c0 7.969-4.627 11.803-6.941 13.119-2.313 1.316-2.245.427-.635-1.316s4.31-4.458 4.31-11.803z" fill="url(#paint1_linear)"/><path opacity=".75" fill-rule="evenodd" clip-rule="evenodd" d="M252.83 351.109V77.389c0-7.345 2.699-10.06 4.309-11.803 1.611-1.743 1.679-2.632-.635-1.316-2.313 1.316-6.941 5.15-6.941 13.118V351.11c0 7.969 4.628 11.803 6.941 13.119 2.314 1.316 2.246.427.635-1.316-1.61-1.743-4.309-4.458-4.309-11.803z" fill="url(#paint2_linear)"/><path fill-rule="evenodd" clip-rule="evenodd" d="M247.92 121.585a1.588 1.588 0 113.177 0v38.007a1.589 1.589 0 11-3.177 0v-38.007zM412.743 155.176a1.589 1.589 0 113.177 0v26.871a1.588 1.588 0 01-3.177 0v-26.871z" fill="#2E423C"/><path fill-rule="evenodd" clip-rule="evenodd" d="M317.473 62.964h-47.62c-7.107 0-12.285 4.84-12.285 11.163v270.329c0 8.243 8.001 15.547 17.049 15.547H389.39c8.715 0 17.049-7.36 17.049-15.547V74.858c0-7.578-5.625-11.849-12.285-11.894h-48.375c-.184.03-3.507 1.397-4.911 4.84-1.405 3.445-4.231 6.19-7.325 6.19h-3.593c-1.471 0-5.343-1.426-7.303-6.19-1.961-4.762-4.991-4.81-5.174-4.84z" fill="#36536B"/><mask id="a" maskUnits="userSpaceOnUse" x="257" y="62" width="150" height="299"><path fill-rule="evenodd" clip-rule="evenodd" d="M317.473 62.964h-47.62c-7.107 0-12.285 4.84-12.285 11.163v270.329c0 8.243 8.001 15.547 17.049 15.547H389.39c8.715 0 17.049-7.36 17.049-15.547V74.858c0-7.578-5.625-11.849-12.285-11.894h-48.375c-.184.03-3.507 1.397-4.911 4.84-1.405 3.445-4.231 6.19-7.325 6.19h-3.593c-1.471 0-5.343-1.426-7.303-6.19-1.961-4.762-4.991-4.81-5.174-4.84z" fill="#fff"/></mask><g filter="url(#filter1_d)"><rect x="275.44" y="145.88" width="112.64" height="122.24" rx="5" fill="#FBFCFE"/></g><path fill-rule="evenodd" clip-rule="evenodd" d="M344.648 221.452v.742h-1.049v-.741l-.018-.002c-.471-.058-.87-.192-1.196-.403-.45-.289-.708-.737-.774-1.341l1.265-.025c.066.274.21.483.43.626.221.143.497.214.83.214.2 0 .377-.032.53-.098a.894.894 0 00.364-.266.601.601 0 00.134-.385c0-.222-.071-.387-.213-.497-.141-.109-.359-.197-.653-.264l-.986-.212c-.457-.092-.824-.274-1.1-.547-.276-.273-.417-.64-.422-1.1a1.564 1.564 0 01.306-.98 1.99 1.99 0 01.844-.639l.155-.059c.159-.055.325-.097.499-.124l.026-.003v-.825h1.053v.83l.103.018c.197.04.378.101.544.182.331.162.586.38.765.653.179.273.266.575.26.905l-1.227.021c-.039-.266-.128-.476-.266-.628-.139-.153-.369-.229-.691-.229-.166 0-.315.018-.445.054a1.11 1.11 0 00-.337.152.669.669 0 00-.214.231.605.605 0 00-.073.299c0 .175.059.313.177.414.118.101.34.195.667.281l.97.237c.546.13.941.354 1.183.67.243.316.364.7.364 1.152 0 .347-.095.649-.285.907-.19.258-.458.458-.805.599l-.152.056a2.904 2.904 0 01-.502.117l-.061.008zm-46.918-2.257v2.205h-.907v-6.015h2.084c.43 0 .815.073 1.155.22.34.147.607.363.803.649.195.286.293.636.293 1.052 0 .4-.089.74-.268 1.022a1.732 1.732 0 01-.749.645c-.32.148-.691.222-1.113.222h-1.298zm-.004-.728h1.277c.383 0 .695-.11.936-.331.241-.22.362-.513.362-.879 0-.372-.125-.657-.374-.855-.25-.199-.569-.298-.957-.298h-1.244v2.363zm5.326 3.016c.308 0 .585-.063.83-.189s.449-.354.609-.684l.071.79h.753v-3.008c0-.294-.062-.543-.185-.749a1.158 1.158 0 00-.564-.468c-.252-.106-.574-.16-.965-.16-.352 0-.659.05-.919.15-.261.1-.465.248-.614.443a1.287 1.287 0 00-.247.722h.773c.056-.241.173-.415.352-.52a1.18 1.18 0 01.614-.158c.305-.003.531.066.678.208.147.141.22.335.22.582v.312l-.707.021c-.741.014-1.28.139-1.618.374-.339.236-.508.592-.508 1.069 0 .267.061.494.183.683.122.188.291.333.506.432.215.1.461.15.738.15zm-.329-.813a.942.942 0 00.608.193c.136 0 .27-.024.403-.073.133-.048.254-.115.362-.199.108-.085.195-.18.26-.285a.648.648 0 00.102-.325v-.711l-.582.012a2.932 2.932 0 00-.755.092.975.975 0 00-.475.27.705.705 0 00-.164.487c0 .23.081.41.241.539zm4.126 2.103c.206 0 .395-.032.57-.096.175-.064.335-.177.481-.341.145-.164.279-.395.401-.695l1.793-4.543h-.874l-1.198 3.179-1.206-3.179h-.89l1.676 4.177-.133.362a.86.86 0 01-.075.154.59.59 0 01-.143.156.697.697 0 01-.254.114 1.362 1.362 0 01-.41.029l-.437-.008v.574l.152.058c.101.039.284.059.547.059zm4.841-4.214v2.841h-.89v-4.302h.865v.62c.122-.188.289-.353.499-.493.211-.14.483-.21.816-.21a1.522 1.522 0 01.913.314c.134.104.241.233.318.385a1.59 1.59 0 01.545-.503c.228-.131.483-.196.766-.196.152 0 .31.025.474.073a1.226 1.226 0 01.796.722c.088.202.131.459.131.769v2.821h-.894v-2.725c0-.236-.039-.42-.118-.553a.664.664 0 00-.308-.281 1.013 1.013 0 00-.402-.081c-.127 0-.26.025-.399.075a.814.814 0 00-.354.249c-.097.117-.145.275-.145.475v2.841h-.891v-2.916a.635.635 0 00-.126-.4.79.79 0 00-.317-.243.947.947 0 00-.376-.081c-.139 0-.277.028-.416.083a.82.82 0 00-.347.26.715.715 0 00-.14.456zm8.153 2.924c.286 0 .559-.052.82-.156.261-.104.483-.258.668-.464.184-.205.301-.455.351-.749h-.823a.82.82 0 01-.369.52 1.224 1.224 0 01-.663.175c-.255 0-.469-.059-.641-.177a1.06 1.06 0 01-.385-.482 1.806 1.806 0 01-.126-.693h3.028v-.295c0-.436-.073-.813-.22-1.134a1.685 1.685 0 00-.647-.746c-.285-.178-.635-.267-1.051-.267-.421 0-.782.097-1.081.291-.3.195-.529.463-.687.805a2.8 2.8 0 00-.237 1.184c0 .452.087.842.26 1.169.173.327.415.579.726.755.311.176.67.264 1.077.264zm-1.168-2.604h2.179c0-.225-.038-.429-.116-.614a.957.957 0 00-.356-.436 1.055 1.055 0 00-.601-.161c-.247 0-.452.06-.616.179a1.12 1.12 0 00-.368.458 1.407 1.407 0 00-.122.574zm4.848 2.521v-2.841c0-.178.049-.326.146-.443a.88.88 0 01.382-.265 1.44 1.44 0 01.499-.087c.261 0 .474.075.639.225.165.149.248.378.248.686v2.725h.89v-2.821c0-.357-.07-.649-.208-.875a1.266 1.266 0 00-.551-.499 1.743 1.743 0 00-.747-.161c-.228 0-.428.032-.601.096a1.38 1.38 0 00-.718.578v-.62h-.869v4.302h.89zm5.765.004c-.11.017-.25.025-.422.025-.319 0-.567-.043-.743-.129a.72.72 0 01-.366-.372 1.523 1.523 0 01-.102-.589v-2.6h-.699v-.641h.724l.221-1.264h.644v1.26h.965v.645h-.965l.005 2.567c0 .141.014.245.043.31a.214.214 0 00.15.125c.071.018.167.027.289.027h.503v.578a1.221 1.221 0 01-.247.058zm4.674.079c.43 0 .792-.093 1.088-.281a1.79 1.79 0 00.674-.78c.154-.332.23-.717.23-1.152 0-.477-.081-.884-.245-1.221a1.775 1.775 0 00-.69-.77c-.297-.176-.648-.264-1.053-.264-.424 0-.786.094-1.086.281-.299.187-.527.45-.684.788-.157.339-.235.734-.235 1.186 0 .469.082.868.247 1.198.165.33.398.582.699.755.301.173.653.26 1.055.26zm-.649-.898c.166.141.384.212.653.212a.967.967 0 00.614-.194 1.16 1.16 0 00.372-.545c.083-.234.125-.505.125-.813 0-.286-.037-.546-.111-.78a1.17 1.17 0 00-.355-.559c-.164-.139-.379-.208-.645-.208-.25 0-.458.063-.624.189a1.143 1.143 0 00-.376.536 2.39 2.39 0 00-.127.822c0 .28.037.538.112.774.075.236.195.424.362.566zm4.851.815v-3.661h1.007v-.641h-1.024v-.549c0-.185.031-.323.094-.414.062-.09.179-.135.351-.135h.62l-.004-.615h-.857c-.355 0-.624.09-.807.272-.183.182-.274.444-.274.788v.653h-.878v.641h.878v3.661h.894zm11.208.091c.527 0 .98-.118 1.36-.355.38-.237.672-.595.876-1.074.204-.478.306-1.076.306-1.795 0-.601-.099-1.125-.298-1.57a2.328 2.328 0 00-.853-1.032c-.37-.242-.81-.364-1.32-.364-.455 0-.852.088-1.19.262a1.966 1.966 0 00-.791.724 1.98 1.98 0 00-.282 1.053c0 .391.089.728.268 1.013.179.284.426.503.74.657.315.154.676.231 1.084.231.225 0 .429-.03.612-.09.183-.059.343-.144.48-.253.137-.11.245-.238.322-.385.034.48-.004.868-.114 1.165-.109.296-.273.513-.491.649a1.403 1.403 0 01-.759.203.967.967 0 01-.649-.218.996.996 0 01-.333-.568h-1.156c.025.352.14.66.345.922.205.262.47.465.795.609a2.55 2.55 0 001.048.216zm-.612-3.475c.183.173.423.26.72.26.169 0 .334-.038.493-.115.159-.076.291-.172.393-.289a.541.541 0 00.154-.362c.003-.269-.039-.5-.127-.692a1.003 1.003 0 00-.366-.443.973.973 0 00-.547-.154.943.943 0 00-.865.507 1.166 1.166 0 00-.129.558c0 .313.091.556.274.73zm8.344 3.384v-1.023h-3.066v-.055c0-.183.055-.339.166-.47.111-.13.258-.247.441-.351.183-.104.384-.206.601-.306.218-.1.436-.208.655-.324.22-.117.421-.253.604-.408.183-.155.33-.343.441-.562.111-.219.166-.479.166-.782 0-.363-.089-.681-.266-.952a1.779 1.779 0 00-.755-.637c-.326-.152-.714-.229-1.163-.229-.524 0-.96.092-1.306.275a1.85 1.85 0 00-.78.742c-.174.312-.263.66-.269 1.043h1.161c.05-.353.18-.616.391-.791.211-.175.467-.262.77-.262.291 0 .52.076.688.229a.76.76 0 01.252.591.747.747 0 01-.171.49 1.698 1.698 0 01-.451.377 8.667 8.667 0 01-.618.335 16.69 16.69 0 00-.672.353c-.223.125-.428.27-.615.435a1.95 1.95 0 00-.452.583c-.113.223-.17.487-.17.792v.907h4.418zm4.72-.705c-.408.531-.975.796-1.702.796-.729 0-1.298-.264-1.707-.794-.409-.53-.614-1.292-.614-2.288 0-.666.094-1.23.283-1.693.188-.463.456-.815.803-1.055.346-.24.758-.36 1.235-.36.716 0 1.28.267 1.693.801.414.534.62 1.302.62 2.303 0 .995-.204 1.759-.611 2.29zm-1.702-.198c-.36 0-.626-.161-.798-.482-.172-.322-.258-.857-.258-1.606 0-.763.086-1.312.26-1.647.173-.336.437-.504.792-.504.355 0 .617.167.786.499.17.333.254.884.254 1.652 0 .751-.083 1.287-.249 1.608-.167.32-.429.48-.787.48zm6.875-.428v1.331h-1.169l.004-1.331h-2.77v-.999l2.741-3.685h1.194v3.665h.928v1.019h-.928zm-1.165-1.019h-1.647l1.647-2.205v2.205zm-64.681 7.859v.877h-.895v-.877h.895zm-.017 6.011v-4.302h-.857v4.302h.857zm3.7-.073a2.38 2.38 0 01-.905.156c-.299 0-.58-.047-.842-.141a1.56 1.56 0 01-.657-.445 1.466 1.466 0 01-.331-.778h.795a.84.84 0 00.205.405.931.931 0 00.367.237c.142.052.296.077.459.077.272 0 .492-.049.66-.147a.494.494 0 00.251-.456.472.472 0 00-.135-.353c-.09-.089-.232-.154-.426-.196l-.857-.204c-.355-.083-.64-.215-.853-.397-.214-.182-.322-.436-.325-.763 0-.253.064-.477.19-.674.126-.197.314-.352.563-.464.25-.113.561-.169.932-.169.486 0 .875.108 1.169.325.294.216.447.529.458.94h-.77a.67.67 0 00-.268-.464c-.151-.112-.35-.168-.597-.168-.255 0-.465.05-.628.151a.509.509 0 00-.246.464c0 .142.06.253.179.335.119.082.298.149.537.202l.815.204c.211.055.384.128.52.218s.243.189.321.298c.077.108.132.22.164.337.032.116.048.226.048.328 0 .272-.069.504-.206.697a1.307 1.307 0 01-.587.445zm5.175.156c.316 0 .599-.061.85-.183a1.566 1.566 0 00.893-1.273h-.757a1.01 1.01 0 01-.154.379.935.935 0 01-.327.299.965.965 0 01-.485.117c-.385 0-.678-.142-.879-.425-.201-.283-.302-.662-.302-1.139 0-.522.108-.909.324-1.161.217-.252.497-.379.841-.379.188 0 .351.037.489.111a.895.895 0 01.328.293c.082.122.135.254.16.395h.77a1.685 1.685 0 00-.283-.786 1.594 1.594 0 00-.609-.526 1.878 1.878 0 00-.859-.19c-.419 0-.779.095-1.08.283-.301.189-.53.452-.688.791a2.75 2.75 0 00-.237 1.177c0 .474.085.877.255 1.208.171.332.407.583.71.753.302.171.649.256 1.04.256zm5.51-.281c-.296.188-.658.281-1.088.281-.402 0-.754-.087-1.055-.26a1.745 1.745 0 01-.698-.755c-.166-.33-.248-.729-.248-1.198 0-.452.078-.847.235-1.186.157-.338.385-.601.684-.788.3-.187.662-.281 1.086-.281.405 0 .756.088 1.053.264.296.177.527.433.69.77.164.337.246.744.246 1.221 0 .435-.077.82-.231 1.152a1.79 1.79 0 01-.674.78zm-1.084-.405c-.269 0-.487-.071-.653-.212a1.204 1.204 0 01-.362-.566 2.544 2.544 0 01-.112-.774c0-.316.042-.59.127-.822.084-.231.21-.41.376-.536.167-.126.375-.189.624-.189.266 0 .481.069.645.208.164.138.282.325.356.559.073.234.11.494.11.78 0 .308-.042.579-.125.813a1.16 1.16 0 01-.372.545.967.967 0 01-.614.194zm3.765-2.238v2.841h-.89v-4.302h.865v.62c.122-.188.289-.353.5-.493.21-.14.482-.21.815-.21a1.517 1.517 0 01.913.314c.135.104.241.233.318.385a1.59 1.59 0 01.545-.503c.228-.131.483-.196.766-.196.152 0 .31.025.474.073a1.236 1.236 0 01.797.722c.087.202.131.459.131.769v2.821h-.895v-2.725c0-.236-.039-.42-.118-.553a.66.66 0 00-.308-.281 1.01 1.01 0 00-.402-.081c-.127 0-.26.025-.399.075a.82.82 0 00-.354.249c-.097.117-.145.275-.145.475v2.841h-.89v-2.916a.636.636 0 00-.127-.4.794.794 0 00-.316-.243.956.956 0 00-.377-.081c-.139 0-.277.028-.416.083a.826.826 0 00-.347.26.715.715 0 00-.14.456zm7.205 4.18v-2.08c.05.095.113.19.189.285.077.096.169.185.277.267a1.39 1.39 0 00.853.272c.369 0 .688-.087.957-.26.269-.173.476-.429.622-.767.145-.339.218-.758.218-1.257 0-.496-.073-.906-.218-1.229-.146-.323-.348-.563-.608-.72a1.704 1.704 0 00-.896-.235c-.18 0-.345.024-.493.071-.149.047-.28.11-.395.189a1.647 1.647 0 00-.502.539l-.008-.716h-.89v5.641h.894zm.504-2.15a.934.934 0 00.628.216c.33 0 .601-.128.813-.385.212-.256.318-.658.318-1.204 0-.469-.098-.84-.293-1.113-.196-.273-.475-.41-.838-.41-.375 0-.658.142-.849.427-.191.284-.287.649-.287 1.096 0 .291.042.557.127.797.085.239.211.432.381.576zm4.665.869c.064 0 .133-.007.206-.021a1.81 1.81 0 00.214-.054v-.565l-.224-.009c-.164-.014-.285-.073-.364-.179-.079-.105-.119-.258-.119-.457v-4.955h-.878v5.046c0 .153.014.3.04.443.026.143.08.271.16.383a.82.82 0 00.352.268c.154.067.358.1.613.1zm3.905-.131c-.26.104-.533.156-.819.156a2.15 2.15 0 01-1.078-.264 1.833 1.833 0 01-.725-.755c-.174-.327-.26-.717-.26-1.169a2.8 2.8 0 01.237-1.184c.158-.342.387-.61.686-.805.3-.194.66-.291 1.082-.291.416 0 .766.089 1.05.267.284.177.5.426.647.746.147.321.22.698.22 1.134v.295h-3.028c0 .258.042.489.127.693.084.204.213.365.385.482.172.118.385.177.64.177s.477-.058.664-.175a.82.82 0 00.368-.52h.824c-.05.294-.168.544-.352.749a1.75 1.75 0 01-.668.464zm.192-2.448h-2.18c0-.197.041-.388.123-.574.081-.186.204-.338.368-.458.163-.119.369-.179.615-.179.242 0 .442.054.602.161a.955.955 0 01.355.436c.078.185.117.389.117.614zm3.727 2.525c-.109.017-.25.025-.422.025-.319 0-.567-.043-.743-.129a.72.72 0 01-.366-.372 1.523 1.523 0 01-.102-.589v-2.6h-.699v-.641h.724l.221-1.264h.645v1.26h.965v.645h-.965l.004 2.567c0 .141.014.245.043.31a.214.214 0 00.15.125c.071.018.167.027.289.027h.504v.578a1.234 1.234 0 01-.248.058zm2.928.079c.285 0 .558-.052.819-.156.261-.104.483-.258.668-.464.184-.205.301-.455.351-.749h-.823a.823.823 0 01-.368.52 1.23 1.23 0 01-.664.175c-.255 0-.469-.059-.641-.177a1.052 1.052 0 01-.384-.482 1.787 1.787 0 01-.127-.693h3.028v-.295c0-.436-.073-.813-.22-1.134a1.685 1.685 0 00-.647-.746c-.284-.178-.635-.267-1.051-.267-.421 0-.782.097-1.081.291-.3.195-.529.463-.687.805a2.8 2.8 0 00-.237 1.184c0 .452.087.842.26 1.169.174.327.416.579.726.755.311.176.67.264 1.078.264zm-1.169-2.604h2.18c0-.225-.039-.429-.117-.614a.957.957 0 00-.356-.436 1.053 1.053 0 00-.601-.161c-.247 0-.452.06-.615.179-.164.12-.287.272-.369.458a1.423 1.423 0 00-.122.574zm5.526 2.604c.239 0 .443-.032.612-.096a1.276 1.276 0 00.678-.561c.064-.111.111-.214.141-.308l.1.882h.666v-6.182h-.895v2.534a1.374 1.374 0 00-.464-.483 1.593 1.593 0 00-.399-.183 1.744 1.744 0 00-.518-.071c-.383 0-.704.092-.963.275-.259.183-.454.44-.584.772-.131.331-.196.72-.196 1.166 0 .73.162 1.288.487 1.675.324.387.769.58 1.335.58zm-.651-1.086c.19.278.464.416.822.416.399 0 .688-.125.865-.376.178-.251.266-.664.266-1.238a2.63 2.63 0 00-.12-.823 1.006 1.006 0 00-.36-.51c-.162-.115-.375-.173-.639-.173-.33 0-.599.119-.807.356-.208.237-.312.621-.312 1.15 0 .522.095.921.285 1.198zm7.011 1.086c.308 0 .584-.063.83-.189.245-.126.448-.354.609-.684l.071.79h.753v-3.008c0-.294-.062-.543-.185-.749a1.163 1.163 0 00-.564-.468c-.252-.106-.574-.16-.965-.16-.352 0-.659.05-.919.15-.261.1-.465.248-.614.443a1.287 1.287 0 00-.247.722h.773c.056-.241.173-.415.352-.52.179-.106.383-.158.613-.158.306-.003.532.066.679.208.147.141.22.335.22.582v.312l-.707.021c-.741.014-1.28.139-1.618.374-.339.236-.508.592-.508 1.069 0 .267.061.494.183.683.122.188.291.333.506.432.215.1.461.15.738.15zm-.329-.813a.942.942 0 00.608.193c.136 0 .27-.024.403-.073.133-.048.254-.115.362-.199.108-.085.195-.18.26-.285a.648.648 0 00.102-.325v-.711l-.582.012a2.932 2.932 0 00-.755.092.975.975 0 00-.475.27.705.705 0 00-.164.487c0 .23.08.41.241.539zm4.667.73v-2.841c0-.178.049-.326.146-.443a.88.88 0 01.382-.265 1.44 1.44 0 01.5-.087c.26 0 .473.075.638.225.165.149.248.378.248.686v2.725h.89v-2.821c0-.357-.069-.649-.208-.875a1.266 1.266 0 00-.551-.499 1.743 1.743 0 00-.747-.161 1.73 1.73 0 00-.601.096 1.38 1.38 0 00-.718.578v-.62h-.869v4.302h.89zm6.062-.013a1.73 1.73 0 01-.611.096c-.566 0-1.011-.193-1.335-.58-.325-.387-.487-.945-.487-1.675 0-.446.065-.835.195-1.166.131-.332.325-.589.585-.772.259-.183.58-.275.963-.275.194 0 .367.024.518.071.151.047.284.108.399.183a1.4 1.4 0 01.464.483v-2.534h.894v6.182h-.665l-.1-.882a1.675 1.675 0 01-.142.308 1.255 1.255 0 01-.678.561zm-.441-.574c-.357 0-.631-.138-.821-.416-.19-.277-.285-.676-.285-1.198 0-.529.104-.913.312-1.15.208-.237.477-.356.807-.356.263 0 .476.058.638.173a.995.995 0 01.36.51 2.6 2.6 0 01.121.823c0 .574-.089.987-.266 1.238-.178.251-.466.376-.866.376zm-73.112 11.366v2.08h-.894v-5.641h.89l.008.716a1.619 1.619 0 01.502-.539c.115-.079.246-.142.395-.189.148-.047.312-.071.493-.071.338 0 .637.079.896.235.26.157.462.397.608.72.145.323.218.733.218 1.229 0 .499-.073.918-.218 1.257-.146.338-.353.594-.622.767a1.73 1.73 0 01-.957.26 1.398 1.398 0 01-.853-.272 1.567 1.567 0 01-.277-.267 1.801 1.801 0 01-.189-.285zm1.132.146a.939.939 0 01-.629-.216 1.31 1.31 0 01-.38-.576 2.375 2.375 0 01-.127-.797c0-.447.096-.812.287-1.096.191-.285.474-.427.849-.427.363 0 .642.137.838.41.195.273.293.644.293 1.113 0 .546-.106.948-.318 1.204a1.007 1.007 0 01-.813.385zm3.763-1.993v2.588h-.891v-4.302h.853v.882c.072-.21.173-.387.302-.53a1.27 1.27 0 01.451-.324 1.366 1.366 0 01.711-.1.353.353 0 01.125.035v.857a.411.411 0 00-.139-.033 4.365 4.365 0 00-.148-.013 1.833 1.833 0 00-.516.029 1.11 1.11 0 00-.401.167.767.767 0 00-.258.303 1.01 1.01 0 00-.089.441zm3.986 2.671c.429 0 .792-.093 1.087-.281.296-.187.52-.447.674-.78.154-.332.231-.717.231-1.152 0-.477-.082-.884-.245-1.221a1.771 1.771 0 00-.691-.77c-.296-.176-.647-.264-1.052-.264-.425 0-.786.094-1.086.281-.3.187-.528.45-.684.788-.157.339-.235.734-.235 1.186 0 .469.082.868.247 1.198.165.33.398.582.699.755.301.173.652.26 1.055.26zm-.649-.898c.166.141.384.212.653.212a.964.964 0 00.613-.194c.165-.129.289-.31.373-.545.083-.234.124-.505.124-.813a2.58 2.58 0 00-.11-.78 1.17 1.17 0 00-.355-.559c-.164-.139-.379-.208-.645-.208-.25 0-.458.063-.624.189a1.145 1.145 0 00-.377.536 2.415 2.415 0 00-.127.822c0 .28.038.538.113.774.075.236.195.424.362.566zm5.279.898c.316 0 .6-.061.851-.183a1.556 1.556 0 00.892-1.273h-.757a.977.977 0 01-.48.678.967.967 0 01-.485.117c-.386 0-.679-.142-.88-.425-.201-.283-.301-.662-.301-1.139 0-.522.108-.909.324-1.161.216-.252.496-.379.84-.379.189 0 .352.037.489.111a.898.898 0 01.329.293c.082.122.135.254.16.395h.77a1.696 1.696 0 00-.283-.786 1.604 1.604 0 00-.61-.526 1.875 1.875 0 00-.859-.19c-.419 0-.778.095-1.079.283a1.816 1.816 0 00-.689.791 2.75 2.75 0 00-.237 1.177c0 .474.085.877.256 1.208.17.332.407.583.709.753.302.171.649.256 1.04.256zm5.338-.156a2.194 2.194 0 01-.82.156c-.408 0-.767-.088-1.077-.264a1.83 1.83 0 01-.726-.755c-.174-.327-.26-.717-.26-1.169a2.8 2.8 0 01.237-1.184c.158-.342.387-.61.686-.805.3-.194.66-.291 1.082-.291.416 0 .766.089 1.05.267.285.177.5.426.647.746.147.321.221.698.221 1.134v.295h-3.029c0 .258.042.489.127.693.085.204.213.365.385.482.172.118.385.177.641.177.255 0 .476-.058.663-.175a.82.82 0 00.368-.52h.824c-.05.294-.167.544-.352.749-.184.206-.407.36-.667.464zm.191-2.448h-2.18c0-.197.041-.388.123-.574.082-.186.204-.338.368-.458.164-.119.369-.179.616-.179.241 0 .441.054.601.161a.963.963 0 01.356.436c.077.185.116.389.116.614zm4.235 2.448a2.38 2.38 0 01-.905.156c-.299 0-.58-.047-.842-.141a1.563 1.563 0 01-.658-.445 1.465 1.465 0 01-.33-.778h.794a.84.84 0 00.206.405.92.92 0 00.366.237c.143.052.296.077.46.077.272 0 .491-.049.659-.147a.493.493 0 00.252-.456.472.472 0 00-.135-.353c-.09-.089-.233-.154-.427-.196l-.857-.204c-.355-.083-.639-.215-.852-.397-.214-.182-.322-.436-.325-.763 0-.253.063-.477.189-.674.127-.197.314-.352.564-.464.25-.113.56-.169.932-.169.485 0 .875.108 1.169.325.294.216.446.529.457.94h-.769a.67.67 0 00-.268-.464c-.152-.112-.351-.168-.597-.168-.256 0-.465.05-.629.151a.51.51 0 00-.245.464c0 .142.06.253.179.335.119.082.298.149.537.202l.815.204c.211.055.384.128.52.218s.243.189.32.298c.078.108.133.22.165.337.031.116.047.226.047.328 0 .272-.068.504-.206.697a1.299 1.299 0 01-.586.445zm3.249.156c.349 0 .651-.052.905-.156.254-.104.449-.252.586-.445.138-.193.206-.425.206-.697a1.24 1.24 0 00-.048-.328 1.022 1.022 0 00-.164-.337 1.185 1.185 0 00-.32-.298 1.732 1.732 0 00-.52-.218l-.816-.204c-.238-.053-.417-.12-.536-.202a.386.386 0 01-.179-.335.51.51 0 01.245-.464c.164-.101.373-.151.629-.151.246 0 .445.056.597.168a.67.67 0 01.268.464h.769c-.011-.411-.163-.724-.457-.94-.294-.217-.684-.325-1.169-.325-.372 0-.682.056-.932.169-.25.112-.437.267-.564.464a1.222 1.222 0 00-.189.674c.003.327.111.581.325.763.213.182.497.314.852.397l.857.204c.194.042.337.107.427.196.09.088.135.206.135.353a.493.493 0 01-.252.456c-.168.098-.387.147-.659.147-.164 0-.317-.025-.46-.077a.92.92 0 01-.366-.237.84.84 0 01-.206-.405h-.794c.044.316.154.575.33.778.176.202.396.35.658.445.262.094.543.141.842.141zm5.306-.156c-.26.104-.534.156-.819.156a2.15 2.15 0 01-1.078-.264 1.842 1.842 0 01-.726-.755c-.173-.327-.26-.717-.26-1.169 0-.447.08-.841.238-1.184a1.87 1.87 0 01.686-.805c.3-.194.66-.291 1.082-.291.416 0 .766.089 1.05.267.284.177.5.426.647.746.147.321.22.698.22 1.134v.295h-3.028c0 .258.042.489.127.693.084.204.213.365.385.482.171.118.385.177.64.177s.477-.058.664-.175a.82.82 0 00.368-.52h.824c-.05.294-.168.544-.352.749a1.75 1.75 0 01-.668.464zm.192-2.448h-2.18c0-.197.041-.388.123-.574.081-.186.204-.338.368-.458.163-.119.369-.179.615-.179.242 0 .442.054.602.161a.955.955 0 01.355.436c.078.185.117.389.117.614zm3.958 2.508a1.732 1.732 0 01-.612.096c-.565 0-1.01-.193-1.335-.58-.324-.387-.487-.945-.487-1.675 0-.446.065-.835.196-1.166.13-.332.325-.589.584-.772.26-.183.581-.275.963-.275.194 0 .367.024.518.071a1.6 1.6 0 01.4.183 1.428 1.428 0 01.463.483v-2.534h.895v6.182h-.666l-.1-.882c-.03.094-.077.197-.141.308a1.276 1.276 0 01-.678.561zm-.441-.574c-.358 0-.632-.138-.822-.416-.19-.277-.285-.676-.285-1.198 0-.529.104-.913.312-1.15.208-.237.477-.356.807-.356.264 0 .477.058.639.173.162.115.282.285.36.51.077.224.118.499.12.823 0 .574-.088.987-.266 1.238-.177.251-.466.376-.865.376zm7.464.514a2.38 2.38 0 01-.905.156c-.299 0-.58-.047-.842-.141a1.56 1.56 0 01-.657-.445 1.466 1.466 0 01-.331-.778h.795a.84.84 0 00.205.405.931.931 0 00.367.237c.142.052.296.077.459.077.272 0 .492-.049.66-.147a.494.494 0 00.251-.456.472.472 0 00-.135-.353c-.09-.089-.232-.154-.426-.196l-.857-.204c-.355-.083-.64-.215-.853-.397-.214-.182-.322-.436-.325-.763 0-.253.064-.477.19-.674.126-.197.314-.352.563-.464.25-.113.561-.169.932-.169.486 0 .875.108 1.169.325.294.216.447.529.458.94h-.77a.67.67 0 00-.268-.464c-.151-.112-.35-.168-.597-.168-.255 0-.465.05-.628.151a.509.509 0 00-.246.464c0 .142.06.253.179.335.119.082.298.149.537.202l.815.204c.211.055.384.128.52.218s.243.189.321.298c.077.108.132.22.164.337.032.116.048.226.048.328 0 .272-.069.504-.206.697a1.307 1.307 0 01-.587.445zm3.32.156c.197.003.384-.026.56-.085.176-.06.328-.157.457-.291.129-.135.219-.314.269-.539l.099.832h.691v-4.302h-.886v2.8c0 .297-.089.522-.266.676-.178.154-.414.231-.708.231-.324 0-.567-.08-.728-.241a.853.853 0 01-.241-.628v-2.838h-.894v2.933a1.321 1.321 0 00.501 1.082c.154.122.329.213.526.274.197.061.404.093.62.096zm5.756-.183a1.92 1.92 0 01-.851.183c-.391 0-.737-.085-1.04-.256a1.765 1.765 0 01-.709-.753c-.17-.331-.256-.734-.256-1.208 0-.447.079-.839.237-1.177.159-.339.388-.602.689-.791.301-.188.661-.283 1.079-.283.322 0 .609.063.86.19.251.126.454.301.609.526.155.224.25.487.283.786h-.77a1.02 1.02 0 00-.16-.395.89.89 0 00-.329-.293 1.013 1.013 0 00-.488-.111c-.344 0-.624.127-.841.379-.216.252-.324.639-.324 1.161 0 .477.1.856.301 1.139.202.283.495.425.88.425a.965.965 0 00.485-.117.977.977 0 00.48-.678h.758a1.576 1.576 0 01-.281.761 1.6 1.6 0 01-.612.512zm3.576.183c.316 0 .6-.061.851-.183s.454-.293.611-.512c.157-.219.25-.472.281-.761h-.757a.993.993 0 01-.154.379.918.918 0 01-.327.299.961.961 0 01-.484.117c-.386 0-.679-.142-.88-.425-.201-.283-.302-.662-.302-1.139 0-.522.108-.909.325-1.161.216-.252.496-.379.84-.379.189 0 .352.037.489.111a.898.898 0 01.329.293c.081.122.135.254.16.395h.769a1.674 1.674 0 00-.283-.786 1.594 1.594 0 00-.609-.526 1.875 1.875 0 00-.859-.19c-.419 0-.779.095-1.08.283-.3.189-.53.452-.688.791a2.75 2.75 0 00-.237 1.177c0 .474.085.877.256 1.208.17.332.407.583.709.753.302.171.649.256 1.04.256zm5.337-.156c-.26.104-.533.156-.819.156a2.15 2.15 0 01-1.078-.264 1.833 1.833 0 01-.725-.755c-.174-.327-.26-.717-.26-1.169a2.8 2.8 0 01.237-1.184c.158-.342.387-.61.686-.805.3-.194.66-.291 1.082-.291.416 0 .766.089 1.05.267.284.177.5.426.647.746.147.321.22.698.22 1.134v.295h-3.028c0 .258.042.489.127.693.084.204.213.365.385.482.172.118.385.177.64.177s.477-.058.664-.175a.82.82 0 00.368-.52h.824c-.05.294-.167.544-.352.749a1.75 1.75 0 01-.668.464zm.192-2.448h-2.18c0-.197.041-.388.123-.574.081-.186.204-.338.368-.458.163-.119.369-.179.616-.179.241 0 .441.054.601.161a.955.955 0 01.355.436c.078.185.117.389.117.614zm4.235 2.448a2.383 2.383 0 01-.905.156c-.3 0-.58-.047-.843-.141a1.56 1.56 0 01-.657-.445 1.474 1.474 0 01-.331-.778h.795a.84.84 0 00.206.405.92.92 0 00.366.237c.143.052.296.077.46.077.271 0 .491-.049.659-.147a.493.493 0 00.252-.456.472.472 0 00-.135-.353c-.091-.089-.233-.154-.427-.196l-.857-.204c-.355-.083-.639-.215-.853-.397-.213-.182-.321-.436-.324-.763 0-.253.063-.477.189-.674.126-.197.314-.352.564-.464.249-.113.56-.169.932-.169.485 0 .875.108 1.169.325.294.216.446.529.457.94h-.769a.671.671 0 00-.269-.464c-.151-.112-.35-.168-.597-.168-.255 0-.464.05-.628.151a.51.51 0 00-.245.464c0 .142.059.253.179.335.119.082.298.149.536.202l.816.204c.21.055.384.128.52.218a1.2 1.2 0 01.32.298c.078.108.132.22.164.337.032.116.048.226.048.328 0 .272-.069.504-.206.697a1.304 1.304 0 01-.586.445zm3.249.156c.349 0 .651-.052.905-.156.253-.104.449-.252.586-.445.137-.193.206-.425.206-.697a1.24 1.24 0 00-.048-.328 1.041 1.041 0 00-.164-.337 1.2 1.2 0 00-.32-.298 1.743 1.743 0 00-.52-.218l-.816-.204c-.238-.053-.417-.12-.536-.202a.384.384 0 01-.179-.335.51.51 0 01.245-.464c.164-.101.373-.151.628-.151.247 0 .446.056.597.168a.671.671 0 01.269.464h.769c-.011-.411-.163-.724-.457-.94-.294-.217-.684-.325-1.169-.325-.372 0-.683.056-.932.169-.25.112-.438.267-.564.464a1.222 1.222 0 00-.189.674c.003.327.111.581.324.763.214.182.498.314.853.397l.857.204c.194.042.336.107.427.196.09.088.135.206.135.353a.493.493 0 01-.252.456c-.168.098-.388.147-.659.147-.164 0-.317-.025-.46-.077a.92.92 0 01-.366-.237.84.84 0 01-.206-.405h-.795c.045.316.155.575.331.778.176.202.395.35.657.445.263.094.543.141.843.141zm4.121-3.744v3.661h-.895v-3.661h-.878v-.641h.878v-.653c0-.344.092-.606.275-.788.183-.182.452-.272.807-.272h.857l.004.615h-.62c-.172 0-.289.045-.352.135-.062.091-.093.229-.093.414v.549h1.023v.641h-1.006zm3.406 3.744c.197.003.383-.026.559-.085.176-.06.329-.157.458-.291.129-.135.218-.314.268-.539l.1.832h.691v-4.302h-.886v2.8c0 .297-.089.522-.267.676-.177.154-.413.231-.707.231-.324 0-.567-.08-.728-.241a.849.849 0 01-.241-.628v-2.838h-.895v2.933a1.321 1.321 0 00.502 1.082c.154.122.329.213.526.274.197.061.403.093.62.096zm4.57-.046a1.099 1.099 0 01-.206.021c-.255 0-.459-.033-.613-.1a.82.82 0 01-.352-.268.941.941 0 01-.16-.383 2.467 2.467 0 01-.039-.443v-5.046h.877v4.955c0 .199.04.352.119.457.079.106.2.165.364.179l.224.009v.565a1.81 1.81 0 01-.214.054zm2.144.021c.063 0 .132-.007.206-.021.073-.014.144-.032.214-.054v-.565l-.225-.009c-.163-.014-.285-.073-.364-.179-.079-.105-.118-.258-.118-.457v-4.955h-.878v5.046c0 .153.013.3.039.443.027.143.08.271.161.383.08.112.197.202.351.268.154.067.359.1.614.1zm2.191 1.219a1.647 1.647 0 01-.57.096c-.263 0-.446-.02-.547-.059l-.152-.058v-.574l.437.008c.166.009.303-.001.41-.029a.692.692 0 00.253-.114.578.578 0 00.144-.156.934.934 0 00.075-.154l.133-.362-1.677-4.177h.891l1.206 3.179 1.198-3.179h.874l-1.793 4.543c-.122.3-.256.531-.402.695a1.185 1.185 0 01-.48.341z" fill="#36536B"/><circle opacity=".25" cx="331.12" cy="186.84" r="17.92" fill="#BA4270"/><path d="M325.36 187.925l2.929 2.93 8.495-8.495" stroke="#BA4270" stroke-width="3"/><rect x="290.16" y="258.52" width="83.84" height="19.2" rx="9.6" fill="#BA4270"/><path fill-rule="evenodd" clip-rule="evenodd" d="M322.985 270.367c-.395.209-.897.313-1.505.313h-1.485v-5.09h.635l.483.002.403.005c.617.014 1.12.125 1.51.331.389.207.675.495.857.866.182.371.273.81.273 1.317 0 .528-.097.983-.289 1.367a2 2 0 01-.882.889zm-1.955-.517h.472c.291 0 .555-.057.793-.169.239-.113.429-.297.572-.553.143-.256.215-.597.215-1.024 0-.397-.063-.719-.19-.967a1.188 1.188 0 00-.542-.543 1.878 1.878 0 00-.834-.173h-.486v3.429zm4.895-3.33v-.926h-1v.926h1zm-.011.521v3.639h-.982v-3.639h.982zm2.319 3.71c.302 0 .569-.045.799-.134.23-.089.409-.219.538-.389a.993.993 0 00.194-.618c0-.082-.014-.174-.041-.276a.956.956 0 00-.146-.305 1.084 1.084 0 00-.297-.279 1.534 1.534 0 00-.498-.203l-.592-.134a1.492 1.492 0 01-.436-.142c-.094-.055-.141-.131-.141-.227a.31.31 0 01.173-.289.908.908 0 01.44-.095c.171 0 .313.038.427.114a.482.482 0 01.21.326h.859c-.005-.359-.142-.637-.411-.834-.268-.197-.627-.296-1.075-.296-.331 0-.61.051-.838.152-.227.1-.399.238-.515.411-.116.174-.175.37-.175.588.005.301.105.532.3.695.194.164.453.279.774.347l.641.134c.164.03.282.075.353.134a.287.287 0 01.108.235c0 .13-.061.225-.181.287-.121.063-.28.094-.477.094a.999.999 0 01-.296-.048.712.712 0 01-.276-.16.594.594 0 01-.168-.306h-.89c.044.286.148.519.31.698.161.18.36.311.594.395.235.083.479.125.733.125zm3.223-2.401v2.33h-1.028v-3.639h1.006v.513c.111-.159.259-.296.446-.411.186-.115.422-.173.705-.173.125 0 .252.022.381.067.129.045.25.11.364.195a.988.988 0 01.276.322 1.47 1.47 0 01.463-.417c.191-.111.404-.167.639-.167.136 0 .274.022.414.067.139.045.268.117.385.218.117.101.212.236.283.403.072.168.108.375.108.622v2.4h-1.028v-2.274a.636.636 0 00-.086-.35.505.505 0 00-.219-.19.68.68 0 00-.279-.058.767.767 0 00-.278.054.584.584 0 00-.24.175.48.48 0 00-.098.313v2.33h-1.025v-2.365a.436.436 0 00-.088-.278.561.561 0 00-.22-.171.655.655 0 00-.269-.058.73.73 0 00-.282.058.576.576 0 00-.235.18.472.472 0 00-.095.304zm6.267-1.83v-.926h-.999v.926h.999zm-.01.521v3.639h-.982v-3.639h.982zm2.318 3.71c.303 0 .569-.045.799-.134.23-.089.41-.219.539-.389a.992.992 0 00.193-.618c0-.082-.013-.174-.04-.276a.978.978 0 00-.146-.305 1.103 1.103 0 00-.298-.279 1.534 1.534 0 00-.498-.203l-.591-.134a1.5 1.5 0 01-.437-.142c-.093-.055-.14-.131-.14-.227a.31.31 0 01.172-.289.91.91 0 01.44-.095c.171 0 .314.038.428.114a.48.48 0 01.209.326h.859c-.005-.359-.141-.637-.41-.834-.269-.197-.627-.296-1.075-.296-.331 0-.611.051-.838.152-.228.1-.4.238-.516.411-.116.174-.174.37-.174.588.005.301.104.532.299.695.195.164.453.279.775.347l.64.134c.164.03.282.075.354.134a.286.286 0 01.107.235c0 .13-.06.225-.181.287-.121.063-.28.094-.477.094-.094 0-.192-.016-.296-.048a.712.712 0 01-.276-.16.585.585 0 01-.167-.306h-.891c.045.286.148.519.31.698.162.18.36.311.595.395.235.083.479.125.732.125zm4.388-.134c-.23.089-.496.134-.799.134-.253 0-.497-.042-.732-.125a1.435 1.435 0 01-.595-.395 1.318 1.318 0 01-.31-.698h.891c.03.129.086.231.167.306a.712.712 0 00.276.16c.104.032.202.048.296.048.197 0 .356-.031.477-.094a.303.303 0 00.181-.287.286.286 0 00-.107-.235c-.072-.059-.19-.104-.354-.134l-.64-.134c-.322-.068-.58-.183-.775-.347-.195-.163-.294-.394-.299-.695 0-.218.058-.414.174-.588.116-.173.288-.311.516-.411.228-.101.507-.152.838-.152.448 0 .806.099 1.075.296.269.197.405.475.41.834h-.859a.48.48 0 00-.209-.326.756.756 0 00-.428-.114.91.91 0 00-.44.095.31.31 0 00-.172.289c0 .096.047.172.14.227a1.5 1.5 0 00.437.142l.591.134c.204.049.37.117.498.203.128.085.227.178.298.279.07.101.119.203.146.305.027.102.04.194.04.276a.992.992 0 01-.193.618c-.129.17-.309.3-.539.389z" fill="#FBFCFE"/><g filter="url(#filter2_d)"><path fill-rule="evenodd" clip-rule="evenodd" d="M76.897 55.364h122.389c11.738 0 21.253 9.11 21.253 20.35v278.572c0 11.239-9.515 20.349-21.253 20.349H76.896c-11.737 0-21.253-9.11-21.253-20.349V75.713c0-11.238 9.516-20.349 21.254-20.349z" fill="#213648"/></g><path opacity=".596" fill-rule="evenodd" clip-rule="evenodd" d="M199.759 55H76.351c-5.762.351-11.076 2.98-15.942 7.887 3.13-2.731 8.711-6.386 16.09-6.386h123.112c7.379 0 12.96 3.655 16.089 6.386-4.866-4.907-10.179-7.536-15.941-7.887z" fill="url(#paint3_linear)" fill-opacity=".65"/><path opacity=".75" fill-rule="evenodd" clip-rule="evenodd" d="M217.2 351.109V77.389c0-7.345-2.7-10.06-4.31-11.803-1.61-1.743-1.679-2.632.635-1.316s6.941 5.15 6.941 13.118V351.11c0 7.969-4.627 11.803-6.941 13.119-2.314 1.316-2.245.427-.635-1.316s4.31-4.458 4.31-11.803z" fill="url(#paint4_linear)"/><path opacity=".75" fill-rule="evenodd" clip-rule="evenodd" d="M58.91 351.109V77.389c0-7.345 2.7-10.06 4.31-11.803 1.61-1.743 1.678-2.632-.636-1.316-2.313 1.316-6.94 5.15-6.94 13.118V351.11c0 7.969 4.627 11.803 6.94 13.119 2.314 1.316 2.245.427.635-1.316s-4.31-4.458-4.31-11.803z" fill="url(#paint5_linear)"/><path fill-rule="evenodd" clip-rule="evenodd" d="M54 121.585a1.589 1.589 0 113.177 0v38.007a1.59 1.59 0 01-3.177 0v-38.007zM218.823 155.176a1.589 1.589 0 113.177 0v26.871a1.588 1.588 0 01-3.177 0v-26.871z" fill="#2E423C"/><path fill-rule="evenodd" clip-rule="evenodd" d="M123.553 62.964h-47.62c-7.107 0-12.285 4.84-12.285 11.163v270.329c0 8.243 8.001 15.547 17.049 15.547H195.47c8.715 0 17.049-7.36 17.049-15.547V74.858c0-7.578-5.625-11.849-12.285-11.894h-48.375c-.184.03-3.507 1.397-4.911 4.84-1.405 3.445-4.231 6.19-7.325 6.19h-3.593c-1.471 0-5.343-1.426-7.303-6.19-1.961-4.762-4.991-4.81-5.174-4.84z" fill="#EDF3F8"/><mask id="b" maskUnits="userSpaceOnUse" x="63" y="62" width="150" height="299"><path fill-rule="evenodd" clip-rule="evenodd" d="M123.553 62.964h-47.62c-7.107 0-12.285 4.84-12.285 11.163v270.329c0 8.243 8.001 15.547 17.049 15.547H195.47c8.715 0 17.049-7.36 17.049-15.547V74.858c0-7.578-5.625-11.849-12.285-11.894h-48.375c-.184.03-3.507 1.397-4.911 4.84-1.405 3.445-4.231 6.19-7.325 6.19h-3.593c-1.471 0-5.343-1.426-7.303-6.19-1.961-4.762-4.991-4.81-5.174-4.84z" fill="#fff"/></mask><g mask="url(#b)"><g filter="url(#filter3_d)"><rect x="73.2" y="165.72" width="130.56" height="25.6" rx="5" fill="#FBFCFE"/></g><path opacity=".7" fill-rule="evenodd" clip-rule="evenodd" d="M105.223 180.547c-.302.402-.713.603-1.234.603-.522 0-.934-.2-1.235-.6-.301-.4-.451-.989-.451-1.768 0-.522.069-.961.208-1.317.139-.355.334-.623.587-.804a1.49 1.49 0 01.894-.272c.515 0 .924.202 1.228.606.304.404.456.998.456 1.781 0 .779-.151 1.369-.453 1.771zm-4.363-.952l-.224 1.498-.4-.058.217-1.44h-.92l-.225 1.498-.397-.058.217-1.44h-.742v-.394h.802l.139-.918h-.736v-.394h.795l.22-1.446.393.045-.21 1.401h.922l.219-1.446.397.045-.211 1.401h.688v.394h-.747l-.137.918h.679v.394h-.739zm-16.15-3.142v4.627h-.684v-4.627h.684zm2.592 4.63a2.213 2.213 0 01-.325.019c-.245 0-.436-.033-.571-.099a.555.555 0 01-.282-.286 1.172 1.172 0 01-.078-.453v-2h-.538v-.493h.557l.17-.973h.496v.97h.742v.496h-.742l.003 1.974c0 .109.011.189.033.239.023.05.061.082.116.096.054.014.128.02.222.02h.387v.445a.929.929 0 01-.19.045zm2.252.061c.22 0 .43-.04.63-.12.2-.08.372-.199.514-.357.142-.158.232-.35.27-.576h-.633a.634.634 0 01-.284.4.943.943 0 01-.51.134.849.849 0 01-.493-.136.813.813 0 01-.296-.371 1.378 1.378 0 01-.097-.533h2.33v-.227c0-.335-.057-.625-.17-.872a1.296 1.296 0 00-.498-.574c-.219-.137-.488-.205-.808-.205a1.5 1.5 0 00-.832.224c-.23.149-.406.356-.528.619a2.154 2.154 0 00-.182.911c0 .347.066.647.2.899.133.252.319.445.558.581.239.135.515.203.829.203zm-.9-2.003h1.677c0-.173-.03-.33-.09-.472a.739.739 0 00-.273-.336.815.815 0 00-.462-.124.781.781 0 00-.757.49c-.063.143-.094.29-.094.442zm3.73 1.939v-2.186c0-.143.036-.259.107-.35a.636.636 0 01.267-.2.85.85 0 01.32-.064.74.74 0 01.29.062.612.612 0 01.243.187.486.486 0 01.098.308v2.243h.685v-2.186c0-.153.037-.275.112-.365a.635.635 0 01.272-.192.915.915 0 01.307-.057c.109 0 .212.021.309.062a.51.51 0 01.236.216.84.84 0 01.092.426v2.096h.688v-2.17c0-.239-.034-.436-.101-.592a.95.95 0 00-.613-.555 1.292 1.292 0 00-.365-.056c-.217 0-.413.05-.588.15a1.23 1.23 0 00-.42.388.86.86 0 00-.244-.296 1.119 1.119 0 00-.34-.181 1.14 1.14 0 00-.363-.061c-.256 0-.465.054-.627.162-.162.107-.29.234-.384.379v-.477h-.666v3.309h.685zm8.129-1.879h-.921l.137-.918h.923l-.139.918zm3.479 1.367a.785.785 0 01-.718-.419c-.163-.28-.245-.736-.245-1.37 0-.644.082-1.11.247-1.397.164-.287.402-.43.713-.43.314 0 .551.142.711.427.16.285.24.752.24 1.4 0 .636-.079 1.093-.237 1.371a.767.767 0 01-.711.418zm5.119-.021c-.301.402-.713.603-1.233.603-.523 0-.935-.2-1.235-.6-.301-.4-.452-.989-.452-1.768 0-.522.07-.961.208-1.317.139-.355.335-.623.588-.804.252-.182.551-.272.894-.272.514 0 .923.202 1.227.606.304.404.456.998.456 1.781 0 .779-.151 1.369-.453 1.771zm-1.23.021a.784.784 0 01-.718-.419c-.164-.28-.245-.736-.245-1.37 0-.644.082-1.11.246-1.397.164-.287.402-.43.714-.43.313 0 .55.142.71.427.16.285.24.752.24 1.4 0 .636-.079 1.093-.237 1.371a.765.765 0 01-.71.418zm3.802-4.115v4.627h-.701v-3.623h-.876v-.425c.273 0 .488-.022.644-.066a.644.644 0 00.34-.195.55.55 0 00.116-.318h.477z" fill="#36536B"/><path fill-rule="evenodd" clip-rule="evenodd" d="M180.733 181.132v.743h-1.048v-.742l-.019-.002c-.471-.058-.869-.192-1.196-.402-.449-.29-.707-.737-.774-1.342l1.265-.025a.99.99 0 00.43.626c.221.143.497.214.83.214.2 0 .377-.032.531-.097a.91.91 0 00.364-.267.606.606 0 00.133-.384c0-.222-.071-.388-.212-.498-.142-.109-.36-.197-.654-.264l-.986-.212c-.457-.091-.824-.274-1.1-.547-.276-.273-.417-.64-.422-1.1a1.566 1.566 0 01.306-.98 1.99 1.99 0 01.844-.639l.156-.059c.158-.055.324-.096.498-.124l.026-.003v-.824h1.053v.829l.103.018c.197.04.378.101.544.182.331.162.586.38.765.653.179.274.266.575.26.905l-1.227.021c-.039-.266-.128-.476-.266-.628-.139-.153-.369-.229-.691-.229-.166 0-.315.018-.445.054a1.11 1.11 0 00-.337.152.669.669 0 00-.214.231.607.607 0 00-.073.299c0 .175.059.313.177.414.118.101.34.195.667.281l.97.237c.546.13.941.354 1.183.67.243.316.364.7.364 1.152 0 .347-.095.649-.285.907-.19.258-.458.458-.805.599l-.152.056a2.904 2.904 0 01-.502.117l-.061.008zm7.037-1.075v1.023h-4.418v-.907c0-.305.057-.569.171-.792.113-.224.264-.418.451-.583.187-.165.392-.31.616-.434.223-.125.447-.243.671-.354.225-.111.431-.223.618-.335.187-.112.338-.238.452-.376a.756.756 0 00.17-.491.762.762 0 00-.252-.591c-.167-.152-.397-.229-.688-.229-.302 0-.559.088-.77.262-.21.175-.341.439-.391.791h-1.16c.005-.383.095-.73.268-1.042.173-.312.433-.56.78-.743.347-.183.782-.274 1.306-.274.45 0 .837.076 1.163.228.326.153.578.365.755.637.178.272.266.589.266.952 0 .303-.055.563-.166.783a1.783 1.783 0 01-.441.561 3.43 3.43 0 01-.603.408c-.219.116-.438.224-.655.324a7.82 7.82 0 00-.602.306c-.183.104-.33.221-.441.352a.705.705 0 00-.166.47v.054h3.066zm2.906 1.115c.527 0 .981-.119 1.361-.356.379-.237.671-.595.875-1.073.204-.479.306-1.077.306-1.795 0-.602-.099-1.126-.297-1.571a2.333 2.333 0 00-.853-1.031c-.371-.243-.811-.364-1.321-.364-.455 0-.851.087-1.19.262a1.954 1.954 0 00-.79.723 1.972 1.972 0 00-.283 1.053c0 .391.089.729.268 1.013.179.284.426.503.741.657.314.154.676.231 1.083.231.225 0 .429-.03.612-.089.183-.06.343-.145.48-.254a1.22 1.22 0 00.323-.385c.033.48-.005.868-.115 1.165-.109.297-.273.513-.491.649a1.4 1.4 0 01-.759.204.97.97 0 01-.649-.219.986.986 0 01-.332-.568h-1.157c.025.353.14.66.345.922.206.262.47.465.795.609.324.145.674.217 1.048.217zm-.611-3.476c.183.173.423.26.719.26.17 0 .334-.038.493-.114.16-.077.291-.173.393-.29a.541.541 0 00.154-.362 1.612 1.612 0 00-.127-.692 1.003 1.003 0 00-.366-.443.971.971 0 00-.547-.154.945.945 0 00-.865.507 1.166 1.166 0 00-.129.558c0 .313.092.557.275.73z" fill="#36536B"/><g filter="url(#filter4_d)"><rect x="73.2" y="196.44" width="130.56" height="25.6" rx="5" fill="#FBFCFE"/></g><path opacity=".7" fill-rule="evenodd" clip-rule="evenodd" d="M105.223 211.267c-.302.402-.713.603-1.234.603-.522 0-.934-.2-1.235-.6-.301-.4-.451-.989-.451-1.768 0-.522.069-.961.208-1.316.139-.356.334-.624.587-.805.253-.181.551-.272.894-.272.515 0 .924.202 1.228.606.304.405.456.998.456 1.781 0 .779-.151 1.369-.453 1.771zm-4.363-.952l-.224 1.498-.4-.058.217-1.44h-.92l-.225 1.498-.397-.058.217-1.44h-.742v-.393h.802l.139-.919h-.736v-.393h.795l.22-1.447.393.045-.21 1.402h.922l.219-1.447.397.045-.211 1.402h.688v.393h-.747l-.137.919h.679v.393h-.739zm-16.15-3.142v4.627h-.684v-4.627h.684zm2.592 4.63a2.213 2.213 0 01-.325.019c-.245 0-.436-.033-.571-.099a.552.552 0 01-.282-.286 1.172 1.172 0 01-.078-.453v-2h-.538v-.493h.557l.17-.973h.496v.97h.742v.496h-.742l.003 1.974c0 .109.011.189.033.239.023.05.061.082.116.096a.93.93 0 00.222.021h.387v.444a.867.867 0 01-.19.045zm2.252.061c.22 0 .43-.04.63-.12.2-.08.372-.199.514-.357.142-.158.232-.35.27-.576h-.633a.632.632 0 01-.284.4.943.943 0 01-.51.135.856.856 0 01-.493-.136.82.82 0 01-.296-.372 1.373 1.373 0 01-.097-.532h2.33v-.228a2.08 2.08 0 00-.17-.872 1.301 1.301 0 00-.498-.574c-.219-.136-.488-.205-.808-.205a1.5 1.5 0 00-.832.224c-.23.15-.406.356-.528.619a2.154 2.154 0 00-.182.911c0 .348.066.647.2.899.133.252.319.445.558.581.239.135.515.203.829.203zm-.9-2.003h1.677c0-.173-.03-.33-.09-.472a.739.739 0 00-.273-.336.815.815 0 00-.462-.123.787.787 0 00-.474.137.855.855 0 00-.283.352c-.063.143-.094.29-.094.442zm3.73 1.939v-2.186a.55.55 0 01.107-.35.636.636 0 01.267-.2.85.85 0 01.32-.064.74.74 0 01.29.062.606.606 0 01.243.188.481.481 0 01.098.307v2.243h.685v-2.186a.55.55 0 01.384-.556.893.893 0 01.307-.058c.109 0 .212.021.309.062a.51.51 0 01.236.216.84.84 0 01.092.426v2.096h.688v-2.17c0-.238-.034-.436-.101-.592a.957.957 0 00-.263-.366 1.013 1.013 0 00-.35-.189 1.292 1.292 0 00-.365-.056c-.217 0-.413.05-.588.151-.175.1-.315.229-.42.387a.869.869 0 00-.244-.296 1.168 1.168 0 00-.702-.242c-.257 0-.466.054-.628.162a1.32 1.32 0 00-.384.379v-.477h-.666v3.309h.685zm8.129-1.878h-.921l.137-.919h.923l-.139.919zm3.479 1.366a.785.785 0 01-.718-.419c-.163-.28-.245-.736-.245-1.37 0-.644.082-1.11.247-1.397.164-.286.402-.43.713-.43.314 0 .551.142.711.427.16.285.24.752.24 1.4 0 .636-.079 1.093-.237 1.371a.767.767 0 01-.711.418zm5.119-.021c-.301.402-.713.603-1.233.603-.523 0-.935-.2-1.235-.6-.301-.4-.452-.989-.452-1.768 0-.522.07-.961.208-1.316.139-.356.335-.624.588-.805.252-.181.551-.272.894-.272.514 0 .923.202 1.227.606.304.405.456.998.456 1.781 0 .779-.151 1.369-.453 1.771zm-1.23.021a.784.784 0 01-.718-.419c-.164-.28-.245-.736-.245-1.37 0-.644.082-1.11.246-1.397.164-.286.402-.43.714-.43.313 0 .55.142.71.427.16.285.24.752.24 1.4 0 .636-.079 1.093-.237 1.371a.765.765 0 01-.71.418zm5.501-.083v.595h-3.18v-.592c0-.235.044-.438.132-.611a1.55 1.55 0 01.351-.453c.145-.129.304-.244.478-.344.174-.1.347-.196.52-.288.173-.092.332-.187.477-.286.145-.1.262-.212.35-.336a.74.74 0 00.133-.44.693.693 0 00-.233-.541c-.156-.139-.367-.208-.634-.208-.284 0-.514.08-.691.24-.177.16-.28.381-.307.662h-.672c.006-.275.073-.526.201-.752.128-.226.317-.406.567-.541.249-.134.559-.201.928-.201.32 0 .596.056.83.168.234.112.414.268.542.469.128.2.192.434.192.7 0 .237-.043.441-.131.612-.087.17-.202.318-.344.441a2.71 2.71 0 01-.469.328c-.17.095-.341.186-.512.272-.17.087-.327.177-.47.272a1.344 1.344 0 00-.346.322.712.712 0 00-.131.432v.08h2.419z" fill="#36536B"/><path fill-rule="evenodd" clip-rule="evenodd" d="M177.024 212.595l-.001-.743.062-.007c.179-.026.346-.065.502-.117l.152-.057c.347-.141.615-.341.805-.599.19-.258.285-.56.285-.907 0-.452-.121-.836-.364-1.152-.242-.316-.637-.539-1.183-.67l-.97-.237c-.327-.086-.549-.179-.667-.281a.516.516 0 01-.177-.413.611.611 0 01.287-.531 1.11 1.11 0 01.337-.152c.13-.036.279-.054.445-.054.322 0 .552.076.691.229.138.153.227.362.266.628l1.227-.021a1.56 1.56 0 00-.26-.904 1.876 1.876 0 00-.765-.654 2.26 2.26 0 00-.544-.182l-.104-.018.001-.829h-1.053v.824l-.026.003a2.96 2.96 0 00-.499.124l-.155.06a1.98 1.98 0 00-.844.638 1.566 1.566 0 00-.306.98c.005.46.146.827.422 1.1.276.273.643.456 1.1.547l.986.212c.294.067.512.155.653.265.142.109.213.275.213.497a.605.605 0 01-.134.385.894.894 0 01-.364.266c-.153.065-.33.098-.53.098-.333 0-.609-.072-.83-.215a.99.99 0 01-.43-.626l-1.265.025c.066.605.324 1.052.774 1.342.326.211.725.345 1.196.402l.018.002v.742h1.049zm4.811-.795v-6.015h-.807a.802.802 0 01-.187.443c-.105.123-.264.218-.476.283-.212.065-.49.098-.834.098v.686h1.073v4.505h1.231zm5.224-.705c-.408.531-.975.797-1.702.797-.729 0-1.298-.265-1.708-.795-.409-.529-.613-1.292-.613-2.288 0-.665.094-1.23.283-1.693.188-.463.456-.815.803-1.054.346-.24.758-.36 1.235-.36.716 0 1.28.267 1.693.801.414.533.62 1.301.62 2.302 0 .996-.204 1.759-.611 2.29zm-1.702-.197c-.36 0-.627-.161-.799-.483-.171-.322-.257-.857-.257-1.606 0-.762.086-1.312.26-1.647.173-.336.437-.503.792-.503.355 0 .617.166.786.499.169.333.254.883.254 1.651 0 .752-.083 1.288-.25 1.608-.166.32-.428.481-.786.481zm6.761.744c-.351.167-.766.25-1.246.25a3.22 3.22 0 01-1.099-.183 2.78 2.78 0 01-.877-.501 2.169 2.169 0 01-.562-.731l.949-.561c.108.188.23.358.366.509a1.4 1.4 0 001.098.489c.36 0 .65-.095.869-.287a.947.947 0 00.329-.749.944.944 0 00-.148-.522 1.029 1.029 0 00-.405-.364 1.307 1.307 0 00-.603-.133c-.122 0-.238.011-.348.031-.109.021-.22.06-.333.117a2.422 2.422 0 00-.372.243.247.247 0 01-.081.025.264.264 0 01-.085-.029l-.882-.408.274-3.053h3.865l-.046.994h-2.858l-.116 1.452c.222-.125.433-.215.634-.27.201-.056.422-.084.664-.084.402 0 .762.076 1.079.227.318.151.569.372.755.664.186.291.279.646.279 1.065 0 .424-.096.79-.287 1.098a1.877 1.877 0 01-.813.711z" fill="#36536B"/><g filter="url(#filter5_d)"><rect x="73.2" y="227.16" width="130.56" height="25.6" rx="5" fill="#FBFCFE"/></g><path opacity=".7" fill-rule="evenodd" clip-rule="evenodd" d="M105.223 241.987c-.302.402-.713.603-1.234.603-.522 0-.934-.2-1.235-.6-.301-.4-.451-.989-.451-1.768 0-.522.069-.961.208-1.317.139-.355.334-.623.587-.804a1.49 1.49 0 01.894-.272c.515 0 .924.202 1.228.606.304.404.456.998.456 1.781 0 .778-.151 1.369-.453 1.771zm-4.363-.952l-.224 1.498-.4-.058.217-1.44h-.92l-.225 1.498-.397-.058.217-1.44h-.742v-.394h.802l.139-.918h-.736v-.394h.795l.22-1.446.393.045-.21 1.401h.922l.219-1.446.397.045-.211 1.401h.688v.394h-.747l-.137.918h.679v.394h-.739zm-16.15-3.142v4.627h-.684v-4.627h.684zm2.592 4.63a2.213 2.213 0 01-.325.019c-.245 0-.436-.033-.571-.099a.555.555 0 01-.282-.286 1.172 1.172 0 01-.078-.453v-2h-.538v-.493h.557l.17-.973h.496v.97h.742v.496h-.742l.003 1.974a.63.63 0 00.033.239c.023.05.061.082.116.096.054.013.128.02.222.02h.387v.445a.929.929 0 01-.19.045zm2.252.061c.22 0 .43-.04.63-.12.2-.08.372-.199.514-.357.142-.158.232-.35.27-.576h-.633a.634.634 0 01-.284.4.943.943 0 01-.51.134.849.849 0 01-.493-.136.813.813 0 01-.296-.371 1.378 1.378 0 01-.097-.533h2.33v-.227c0-.335-.057-.625-.17-.872a1.296 1.296 0 00-.498-.574c-.219-.137-.488-.205-.808-.205a1.5 1.5 0 00-.832.224c-.23.149-.406.356-.528.619a2.154 2.154 0 00-.182.911c0 .347.066.647.2.899.133.252.319.445.558.581.239.135.515.203.829.203zm-.9-2.003h1.677c0-.173-.03-.331-.09-.472a.739.739 0 00-.273-.336.807.807 0 00-.462-.124.781.781 0 00-.757.49c-.063.143-.094.29-.094.442zm3.73 1.939v-2.186c0-.143.036-.26.107-.35a.627.627 0 01.267-.2.85.85 0 01.32-.064.74.74 0 01.29.062.612.612 0 01.243.187.486.486 0 01.098.308v2.243h.685v-2.186c0-.153.037-.275.112-.365a.635.635 0 01.272-.192.915.915 0 01.307-.057c.109 0 .212.021.309.062a.51.51 0 01.236.216c.061.103.092.244.092.426v2.096h.688v-2.17c0-.239-.034-.436-.101-.592a.942.942 0 00-.613-.555 1.292 1.292 0 00-.365-.056c-.217 0-.413.05-.588.15a1.23 1.23 0 00-.42.388.86.86 0 00-.244-.296 1.119 1.119 0 00-.34-.181 1.14 1.14 0 00-.363-.061c-.256 0-.465.054-.627.162-.162.107-.29.234-.384.379v-.477h-.666v3.309h.685zm8.129-1.879h-.921l.137-.918h.923l-.139.918zm3.479 1.367a.785.785 0 01-.718-.419c-.163-.28-.245-.736-.245-1.37 0-.644.082-1.11.247-1.397.164-.287.402-.43.713-.43.314 0 .551.142.711.427.16.285.24.751.24 1.4 0 .636-.079 1.093-.237 1.371a.767.767 0 01-.711.418zm5.119-.021c-.301.402-.713.603-1.233.603-.523 0-.935-.2-1.235-.6-.301-.4-.452-.989-.452-1.768 0-.522.07-.961.208-1.317.139-.355.335-.623.588-.804.252-.182.551-.272.894-.272.514 0 .923.202 1.227.606.304.404.456.998.456 1.781 0 .778-.151 1.369-.453 1.771zm-1.23.021a.784.784 0 01-.718-.419c-.164-.28-.245-.736-.245-1.37 0-.644.082-1.11.246-1.397.164-.287.402-.43.714-.43.313 0 .55.142.71.427.16.285.24.751.24 1.4 0 .636-.079 1.093-.237 1.371a.765.765 0 01-.71.418zm4.589.496c-.221.06-.461.088-.72.086a2.061 2.061 0 01-.87-.177 1.365 1.365 0 01-.579-.495 1.435 1.435 0 01-.221-.755h.675c.045.279.159.491.341.635.182.144.407.216.674.216.217 0 .405-.033.564-.101a.864.864 0 00.37-.278.681.681 0 00.131-.414.68.68 0 00-.142-.436.89.89 0 00-.391-.273 1.637 1.637 0 00-.555-.101l-.425-.01v-.569l.396-.013c.195-.004.367-.041.517-.11a.918.918 0 00.354-.274.61.61 0 00.128-.374.56.56 0 00-.114-.34.767.767 0 00-.326-.244 1.29 1.29 0 00-.511-.092c-.16 0-.312.03-.456.09a.817.817 0 00-.355.283.912.912 0 00-.152.504h-.672c0-.309.074-.57.223-.782.148-.212.346-.374.595-.485.248-.111.524-.166.827-.166.326 0 .615.045.867.137.252.092.45.227.594.407.144.179.216.4.216.662a.977.977 0 01-.213.616c-.142.182-.362.325-.661.427a1.7 1.7 0 01.515.235c.15.104.267.232.351.386.084.154.126.332.126.534a1.19 1.19 0 01-.521 1.005 1.787 1.787 0 01-.58.266z" fill="#36536B"/><path fill-rule="evenodd" clip-rule="evenodd" d="M177.057 243.315v-.743l.062-.008c.178-.026.345-.065.501-.117l.153-.056c.346-.141.615-.341.805-.599.19-.258.285-.56.285-.907 0-.452-.122-.836-.364-1.152-.243-.316-.638-.54-1.184-.67l-.969-.237c-.328-.086-.55-.18-.668-.281a.516.516 0 01-.177-.414c0-.111.024-.211.073-.299a.679.679 0 01.214-.231c.095-.065.207-.116.337-.152a1.68 1.68 0 01.445-.054c.322 0 .552.076.691.229.139.152.227.362.266.628l1.227-.021a1.563 1.563 0 00-.26-.905 1.874 1.874 0 00-.765-.653 2.267 2.267 0 00-.543-.182l-.104-.018v-.829h-1.052v.824l-.027.003c-.174.028-.34.069-.498.124l-.156.059c-.356.15-.637.363-.844.639a1.566 1.566 0 00-.306.98c.006.46.146.827.422 1.1.276.273.643.456 1.101.547l.986.212c.294.067.511.155.653.264.141.11.212.276.212.497a.6.6 0 01-.133.385.903.903 0 01-.364.267 1.356 1.356 0 01-.531.097c-.332 0-.609-.071-.83-.214a.99.99 0 01-.43-.626l-1.265.025c.067.605.325 1.052.774 1.342.327.21.725.344 1.196.402l.018.002.001.742h1.048zm4.936-.708c.488 0 .915-.071 1.28-.214.364-.143.647-.346.848-.609.201-.264.302-.574.302-.932 0-.23-.057-.449-.171-.655a1.732 1.732 0 00-.434-.524 1.289 1.289 0 00-.539-.273c.247-.116.455-.283.624-.499.169-.216.254-.479.254-.786 0-.366-.095-.675-.283-.926a1.753 1.753 0 00-.772-.572 2.971 2.971 0 00-1.109-.196c-.407 0-.775.066-1.102.196-.327.13-.586.321-.776.572-.19.251-.285.56-.285.926 0 .307.086.57.258.786.172.216.381.383.628.499-.186.039-.366.13-.541.273a1.77 1.77 0 00-.432.524 1.334 1.334 0 00-.171.655c0 .358.101.668.304.932.202.263.485.466.849.609.363.143.786.214 1.268.214zm-.678-3.9c.181.149.407.223.678.223.278 0 .506-.074.685-.223.179-.148.268-.354.268-.617 0-.261-.09-.468-.27-.62a1.02 1.02 0 00-.683-.229c-.271 0-.497.076-.678.229-.18.152-.27.359-.27.62 0 .263.09.469.27.617zm.678 2.985c-.346 0-.621-.08-.823-.239a.765.765 0 01-.304-.634c0-.178.046-.334.137-.468a.93.93 0 01.391-.319c.17-.077.369-.116.599-.116.236 0 .439.039.608.116a.93.93 0 01.391.319c.091.134.137.29.137.468 0 .263-.1.475-.302.634-.201.159-.479.239-.834.239zm5.394-5.187v6.015h-1.231v-4.505h-1.073v-.687c.344 0 .622-.032.834-.097.212-.066.371-.16.476-.283a.805.805 0 00.187-.443h.807zm3.522 6.107c.727 0 1.294-.266 1.702-.797.407-.531.611-1.295.611-2.29 0-1.001-.206-1.769-.62-2.303-.413-.534-.977-.801-1.693-.801-.477 0-.889.12-1.235.36-.347.24-.615.592-.803 1.055-.189.463-.283 1.027-.283 1.693 0 .996.204 1.758.614 2.288.409.53.978.795 1.707.795zm-.798-1.477a.848.848 0 00.798.482c.358 0 .62-.16.786-.48.167-.32.25-.856.25-1.608 0-.768-.085-1.319-.254-1.652-.169-.332-.431-.499-.786-.499-.355 0-.619.168-.792.504-.174.335-.26.884-.26 1.647 0 .749.086 1.284.258 1.606z" fill="#36536B"/><g filter="url(#filter6_d)"><rect x="73.2" y="257.88" width="130.56" height="25.6" rx="5" fill="#FBFCFE"/></g><path opacity=".7" fill-rule="evenodd" clip-rule="evenodd" d="M103.989 273.31c.521 0 .932-.201 1.234-.603.302-.402.453-.992.453-1.771 0-.783-.152-1.377-.456-1.781-.304-.404-.713-.606-1.228-.606-.343 0-.641.09-.894.272-.253.181-.448.449-.587.805-.139.355-.208.794-.208 1.316 0 .779.15 1.368.451 1.768.301.4.713.6 1.235.6zm-3.353-.057l.224-1.498h.739v-.393h-.679l.137-.919h.747v-.393h-.688l.211-1.402-.397-.045-.219 1.447h-.923l.211-1.402-.393-.045-.22 1.447h-.795v.393h.736l-.14.919h-.8v.393h.741l-.217 1.44.397.058.224-1.498h.921l-.217 1.44.4.058zm-15.926-.013v-4.627h-.684v4.627h.684zm2.267.022c.132 0 .24-.006.325-.019a.929.929 0 00.19-.045v-.444h-.387a.93.93 0 01-.222-.021.165.165 0 01-.116-.096.626.626 0 01-.033-.239l-.003-1.974h.742v-.496h-.742v-.97h-.496l-.17.973h-.557v.493h.538v2c0 .177.026.328.078.453.053.125.146.22.282.286.135.066.326.099.571.099zm3.207-.078c-.2.08-.41.12-.63.12-.314 0-.59-.068-.829-.203a1.412 1.412 0 01-.558-.581 1.895 1.895 0 01-.2-.899c0-.344.06-.647.182-.911.122-.263.298-.469.528-.619a1.5 1.5 0 01.832-.224c.32 0 .59.068.808.205.219.137.385.328.498.574.113.247.17.537.17.872v.228h-2.33c0 .198.032.376.097.532a.82.82 0 00.296.372c.132.09.297.136.493.136a.943.943 0 00.51-.135.632.632 0 00.284-.4h.633a1.124 1.124 0 01-.27.576 1.356 1.356 0 01-.514.357zm.147-1.883h-1.676c0-.152.031-.299.094-.442a.78.78 0 01.757-.489c.185 0 .34.041.462.123a.739.739 0 01.274.336c.06.142.09.299.09.472zm2.053-.247v2.186H91.7v-3.309h.666v.477a1.32 1.32 0 01.384-.379c.162-.108.371-.162.627-.162.12 0 .24.02.363.061.123.041.236.101.34.181a.86.86 0 01.244.296c.105-.158.245-.287.42-.387.175-.101.37-.151.588-.151.118 0 .24.019.365.056.126.038.243.1.35.189a.957.957 0 01.263.366c.067.156.1.353.1.592v2.17h-.687v-2.096a.84.84 0 00-.091-.426.51.51 0 00-.237-.216.786.786 0 00-.31-.062c-.097 0-.2.019-.306.058a.55.55 0 00-.384.556v2.186h-.685v-2.243a.481.481 0 00-.098-.307.606.606 0 00-.243-.188.74.74 0 00-.29-.062.85.85 0 00-.32.064.636.636 0 00-.267.2.549.549 0 00-.107.35zm7.208.308h.921l.139-.919h-.923l-.137.919zm3.682.947a.785.785 0 00.718.419.767.767 0 00.711-.418c.158-.278.237-.735.237-1.371 0-.648-.08-1.115-.24-1.4-.16-.285-.397-.427-.711-.427-.311 0-.549.143-.713.43-.165.287-.247.753-.247 1.397 0 .634.082 1.09.245 1.37zm4.604 1.001c.52 0 .932-.201 1.233-.603.302-.402.453-.992.453-1.771 0-.783-.152-1.377-.456-1.781a1.457 1.457 0 00-1.227-.606c-.343 0-.642.09-.894.272-.253.181-.449.449-.588.805-.138.355-.208.794-.208 1.316 0 .779.151 1.368.452 1.768.3.4.712.6 1.235.6zm-.715-1.001a.784.784 0 00.718.419.765.765 0 00.71-.418c.158-.278.237-.735.237-1.371 0-.648-.08-1.115-.24-1.4-.16-.285-.397-.427-.71-.427-.312 0-.55.143-.714.43-.164.287-.246.753-.246 1.397 0 .634.081 1.09.245 1.37zm5.762.931v-1.139h.752v-.592h-.752v-2.896h-.688l-2.144 2.886v.602h2.166v1.139h.666zm-2.186-1.731h1.511v-2.026l-1.511 2.026z" fill="#36536B"/><path fill-rule="evenodd" clip-rule="evenodd" d="M171.817 273.292v.743h-1.048v-.742l-.019-.002c-.471-.057-.869-.191-1.196-.402-.449-.29-.707-.737-.774-1.342l1.265-.025a.99.99 0 00.43.626c.221.143.498.214.83.214.2 0 .377-.032.531-.097a.894.894 0 00.364-.267.6.6 0 00.133-.384c0-.222-.071-.388-.212-.497-.142-.11-.359-.198-.653-.265l-.986-.212c-.458-.091-.825-.274-1.101-.547s-.416-.64-.422-1.1a1.566 1.566 0 01.306-.98c.207-.276.488-.489.844-.638l.156-.06c.158-.055.324-.096.498-.124l.026-.003.001-.824h1.052v.829l.104.018c.196.04.377.101.543.182.331.163.586.38.765.653.179.274.266.575.26.905l-1.227.021c-.039-.266-.127-.476-.266-.628-.139-.153-.369-.229-.691-.229a1.68 1.68 0 00-.445.054c-.13.036-.242.087-.337.152a.621.621 0 00-.287.53c0 .175.059.313.177.414.118.102.34.195.668.281l.969.237c.546.131.941.354 1.184.67.242.316.364.7.364 1.152 0 .347-.095.649-.285.907-.19.258-.459.458-.805.599l-.153.057a2.824 2.824 0 01-.501.116l-.062.008zm4.812-6.067v6.015h-1.232v-4.505h-1.073v-.686c.344 0 .622-.033.834-.098.212-.065.371-.16.476-.283a.803.803 0 00.188-.443h.807zm3.522 6.107c.726 0 1.293-.266 1.701-.797.408-.531.611-1.294.611-2.29 0-1.001-.206-1.769-.619-2.303-.414-.533-.978-.8-1.693-.8-.477 0-.889.12-1.236.36-.347.239-.614.591-.803 1.054-.188.463-.283 1.028-.283 1.693 0 .996.205 1.759.614 2.288.409.53.978.795 1.708.795zm-.799-1.477c.172.322.438.483.799.483.357 0 .619-.161.786-.481.166-.32.249-.856.249-1.608 0-.768-.084-1.319-.253-1.651-.17-.333-.432-.5-.787-.5-.355 0-.619.168-.792.504-.173.335-.26.885-.26 1.647 0 .749.086 1.284.258 1.606zm7.673 1.385v-1.331h.928v-1.019h-.928v-3.665h-1.194l-2.741 3.686v.998h2.771l-.005 1.331h1.169zm-2.812-2.35h1.648v-2.205l-1.648 2.205zm8.206 2.35v-1.331h.928v-1.019h-.928v-3.665h-1.194l-2.741 3.686v.998h2.771l-.005 1.331h1.169zm-2.812-2.35h1.648v-2.205l-1.648 2.205z" fill="#36536B"/><g filter="url(#filter7_d)"><rect x="73.2" y="288.6" width="130.56" height="25.6" rx="5" fill="#FBFCFE"/></g><path opacity=".7" fill-rule="evenodd" clip-rule="evenodd" d="M105.223 303.427c-.302.402-.713.603-1.234.603-.522 0-.934-.2-1.235-.6-.301-.4-.451-.989-.451-1.768 0-.523.069-.961.208-1.317.139-.355.334-.623.587-.804a1.49 1.49 0 01.894-.272c.515 0 .924.202 1.228.606.304.404.456.998.456 1.781 0 .778-.151 1.369-.453 1.771zm-4.363-.952l-.224 1.498-.4-.058.217-1.44h-.92l-.225 1.498-.397-.058.217-1.44h-.742v-.394h.802l.139-.918h-.736v-.394h.795l.22-1.446.393.045-.21 1.401h.922l.219-1.446.397.045-.211 1.401h.688v.394h-.747l-.137.918h.679v.394h-.739zm-16.15-3.142v4.627h-.684v-4.627h.684zm2.592 4.63a2.213 2.213 0 01-.325.019c-.245 0-.436-.033-.571-.099a.555.555 0 01-.282-.286 1.172 1.172 0 01-.078-.453v-2h-.538v-.493h.557l.17-.973h.496v.97h.742v.496h-.742l.003 1.974a.63.63 0 00.033.239c.023.05.061.082.116.096.054.013.128.02.222.02h.387v.445a.929.929 0 01-.19.045zm2.252.061c.22 0 .43-.04.63-.12.2-.08.372-.199.514-.357.142-.158.232-.35.27-.576h-.633a.634.634 0 01-.284.4.943.943 0 01-.51.134.849.849 0 01-.493-.136.813.813 0 01-.296-.371 1.378 1.378 0 01-.097-.533h2.33v-.227c0-.335-.057-.625-.17-.872a1.296 1.296 0 00-.498-.574c-.219-.137-.488-.205-.808-.205a1.5 1.5 0 00-.832.224c-.23.149-.406.356-.528.619a2.154 2.154 0 00-.182.911c0 .347.066.647.2.899.133.251.319.445.558.581.239.135.515.203.829.203zm-.9-2.003h1.677c0-.173-.03-.331-.09-.472a.739.739 0 00-.273-.336.807.807 0 00-.462-.124.781.781 0 00-.757.49c-.063.143-.094.29-.094.442zm3.73 1.939v-2.186c0-.143.036-.26.107-.35a.627.627 0 01.267-.2.85.85 0 01.32-.064.74.74 0 01.29.062.612.612 0 01.243.187.486.486 0 01.098.308v2.243h.685v-2.186c0-.153.037-.275.112-.365a.635.635 0 01.272-.192.915.915 0 01.307-.057c.109 0 .212.021.309.062a.51.51 0 01.236.216c.061.103.092.244.092.426v2.096h.688v-2.17c0-.239-.034-.436-.101-.592a.942.942 0 00-.613-.555 1.292 1.292 0 00-.365-.056c-.217 0-.413.05-.588.15a1.23 1.23 0 00-.42.388.86.86 0 00-.244-.296 1.119 1.119 0 00-.34-.181 1.14 1.14 0 00-.363-.061c-.256 0-.465.054-.627.162-.162.107-.29.234-.384.379v-.477h-.666v3.309h.685zm8.129-1.879h-.921l.137-.918h.923l-.139.918zm3.479 1.367a.785.785 0 01-.718-.419c-.163-.28-.245-.736-.245-1.37 0-.644.082-1.11.247-1.397.164-.287.402-.43.713-.43.314 0 .551.142.711.427.16.285.24.751.24 1.4 0 .636-.079 1.093-.237 1.371a.767.767 0 01-.711.418zm5.119-.021c-.301.402-.713.603-1.233.603-.523 0-.935-.2-1.235-.6-.301-.4-.452-.989-.452-1.768 0-.523.07-.961.208-1.317.139-.355.335-.623.588-.804.252-.182.551-.272.894-.272.514 0 .923.202 1.227.606.304.404.456.998.456 1.781 0 .778-.151 1.369-.453 1.771zm-1.23.021a.784.784 0 01-.718-.419c-.164-.28-.245-.736-.245-1.37 0-.644.082-1.11.246-1.397.164-.287.402-.43.714-.43.313 0 .55.142.71.427.16.285.24.751.24 1.4 0 .636-.079 1.093-.237 1.371a.765.765 0 01-.71.418zm4.981.387c-.257.13-.559.195-.907.195-.29 0-.559-.049-.806-.149a1.93 1.93 0 01-.639-.409 1.646 1.646 0 01-.395-.603l.573-.272c.077.166.172.315.285.446.113.131.246.234.4.307.153.074.329.111.528.111.313 0 .566-.09.758-.268.192-.178.288-.419.288-.724a.928.928 0 00-.134-.5.932.932 0 00-.362-.334 1.071 1.071 0 00-.509-.12c-.117 0-.227.01-.329.03a1.01 1.01 0 00-.306.119 1.52 1.52 0 00-.321.261.106.106 0 01-.037.012.114.114 0 01-.043-.016l-.548-.198.212-2.39h2.819l-.023.579h-2.23l-.109 1.392c.158-.128.324-.221.499-.277a1.83 1.83 0 01.57-.085c.288 0 .551.058.789.173.238.115.428.284.571.507.143.223.214.498.214.824 0 .322-.07.602-.211.839-.141.236-.34.42-.597.55z" fill="#36536B"/><path fill-rule="evenodd" clip-rule="evenodd" d="M180.679 304.755l-.001-.743.062-.008c.179-.026.346-.065.502-.117l.152-.056c.347-.141.615-.341.805-.599.19-.258.285-.56.285-.907 0-.452-.121-.836-.364-1.152-.242-.316-.637-.54-1.183-.67l-.97-.237c-.327-.086-.549-.18-.667-.281a.516.516 0 01-.177-.414c0-.111.024-.211.073-.299a.669.669 0 01.214-.231 1.11 1.11 0 01.337-.152c.13-.036.279-.054.445-.054.322 0 .552.076.691.229.138.152.227.362.266.628l1.227-.021a1.563 1.563 0 00-.26-.905 1.874 1.874 0 00-.765-.653 2.26 2.26 0 00-.544-.182l-.104-.018.001-.83h-1.053v.825l-.026.003a2.96 2.96 0 00-.499.124l-.155.059a1.99 1.99 0 00-.844.639 1.564 1.564 0 00-.306.98c.005.46.146.827.422 1.1.276.273.643.455 1.1.547l.986.212c.294.067.512.155.653.264.142.11.213.276.213.497a.601.601 0 01-.134.385.885.885 0 01-.364.266 1.33 1.33 0 01-.53.098c-.333 0-.609-.071-.83-.214a.993.993 0 01-.43-.626l-1.265.025c.067.604.324 1.052.774 1.341.326.211.725.345 1.196.403l.018.002v.742h1.049zm6.442-.795v-1.331h.928v-1.019h-.928v-3.665h-1.194l-2.741 3.685v.999h2.77l-.004 1.331h1.169zm-2.812-2.35h1.647v-2.205l-1.647 2.205zm6.6 2.441c.727 0 1.294-.265 1.702-.796.407-.531.611-1.295.611-2.29 0-1.001-.206-1.769-.62-2.303-.413-.534-.977-.801-1.693-.801-.477 0-.889.12-1.235.36-.347.24-.615.592-.803 1.055-.189.463-.283 1.027-.283 1.693 0 .996.204 1.758.613 2.288.41.53.979.794 1.708.794zm-.799-1.476a.85.85 0 00.799.482c.358 0 .62-.16.786-.48.167-.321.25-.856.25-1.608 0-.768-.085-1.319-.254-1.652-.169-.332-.431-.499-.786-.499-.355 0-.619.168-.792.504-.174.335-.26.884-.26 1.647 0 .749.086 1.284.257 1.606z" fill="#36536B"/><g filter="url(#filter8_d)"><rect x="73.2" y="319.32" width="130.56" height="25.6" rx="5" fill="#FBFCFE"/></g><path opacity=".7" fill-rule="evenodd" clip-rule="evenodd" d="M103.989 334.75c.521 0 .932-.201 1.234-.603.302-.402.453-.992.453-1.771 0-.783-.152-1.377-.456-1.781-.304-.404-.713-.606-1.228-.606-.343 0-.641.09-.894.272-.253.181-.448.449-.587.805-.139.355-.208.794-.208 1.316 0 .779.15 1.368.451 1.768.301.4.713.6 1.235.6zm-3.353-.057l.224-1.498h.739v-.393h-.679l.137-.919h.747v-.393h-.688l.211-1.402-.397-.045-.219 1.447h-.923l.211-1.402-.393-.045-.22 1.447h-.795v.393h.736l-.14.919h-.8v.393h.741l-.217 1.44.397.058.224-1.498h.921l-.217 1.44.4.058zm-15.926-.013v-4.627h-.684v4.627h.684zm2.267.022c.132 0 .24-.006.325-.019a.929.929 0 00.19-.045v-.444h-.387a.93.93 0 01-.222-.021.165.165 0 01-.116-.096.626.626 0 01-.033-.239l-.003-1.974h.742v-.496h-.742v-.97h-.496l-.17.973h-.557v.493h.538v2c0 .177.026.328.078.453.053.125.146.22.282.286.135.066.326.099.571.099zm3.207-.078c-.2.08-.41.12-.63.12-.314 0-.59-.068-.829-.203a1.412 1.412 0 01-.558-.581 1.895 1.895 0 01-.2-.899c0-.344.06-.647.182-.911.122-.263.298-.469.528-.619a1.5 1.5 0 01.832-.224c.32 0 .59.068.808.205.219.137.385.328.498.574.113.247.17.537.17.872v.228h-2.33c0 .198.032.376.097.532a.82.82 0 00.296.372c.132.09.297.136.493.136a.943.943 0 00.51-.135.632.632 0 00.284-.4h.633a1.124 1.124 0 01-.27.576 1.356 1.356 0 01-.514.357zm.147-1.883h-1.676c0-.152.031-.299.094-.442a.78.78 0 01.757-.489c.185 0 .34.041.462.123a.739.739 0 01.274.336c.06.142.09.299.09.472zm2.053-.247v2.186H91.7v-3.309h.666v.477a1.32 1.32 0 01.384-.379c.162-.108.371-.162.627-.162.12 0 .24.02.363.061.123.041.236.101.34.181a.86.86 0 01.244.296c.105-.158.245-.287.42-.387.175-.101.37-.151.588-.151.118 0 .24.019.365.056.126.038.243.1.35.189a.957.957 0 01.263.366c.067.156.1.353.1.592v2.17h-.687v-2.096a.84.84 0 00-.091-.426.51.51 0 00-.237-.216.786.786 0 00-.31-.062c-.097 0-.2.019-.306.058a.55.55 0 00-.384.556v2.186h-.685v-2.243a.481.481 0 00-.098-.307.606.606 0 00-.243-.188.74.74 0 00-.29-.062.85.85 0 00-.32.064.636.636 0 00-.267.2.549.549 0 00-.107.35zm7.208.308h.921l.139-.919h-.923l-.137.919zm3.682.947a.785.785 0 00.718.419.767.767 0 00.711-.418c.158-.278.237-.735.237-1.371 0-.648-.08-1.115-.24-1.4-.16-.285-.397-.427-.711-.427-.311 0-.549.143-.713.43-.165.287-.247.753-.247 1.397 0 .634.082 1.09.245 1.37zm4.604 1.001c.52 0 .932-.201 1.233-.603.302-.402.453-.992.453-1.771 0-.783-.152-1.377-.456-1.781a1.457 1.457 0 00-1.227-.606c-.343 0-.642.09-.894.272-.253.181-.449.449-.588.805-.138.355-.208.794-.208 1.316 0 .779.151 1.368.452 1.768.3.4.712.6 1.235.6zm-.715-1.001a.784.784 0 00.718.419.765.765 0 00.71-.418c.158-.278.237-.735.237-1.371 0-.648-.08-1.115-.24-1.4-.16-.285-.397-.427-.71-.427-.312 0-.55.143-.714.43-.164.287-.246.753-.246 1.397 0 .634.081 1.09.245 1.37zm4.715 1.001c.335 0 .627-.067.874-.203a1.44 1.44 0 00.574-.56c.136-.238.204-.51.204-.817 0-.299-.065-.557-.194-.775a1.3 1.3 0 00-.539-.502 1.748 1.748 0 00-.807-.176c-.172 0-.335.029-.486.086a1.27 1.27 0 00-.402.245 1.057 1.057 0 00-.264.37c-.027-.395-.002-.732.076-1.012.077-.279.203-.492.377-.638a.974.974 0 01.648-.219c.233 0 .426.06.581.181.155.12.262.287.322.5h.636a1.265 1.265 0 00-.26-.67 1.424 1.424 0 00-.557-.424 1.82 1.82 0 00-.735-.147c-.394 0-.729.1-1.004.301-.276.2-.485.484-.628.852-.143.368-.214.802-.214 1.301 0 .476.073.886.219 1.231.146.344.354.61.624.796.27.187.588.28.955.28zm-.516-.696a.88.88 0 00.504.146.91.91 0 00.478-.126.906.906 0 00.331-.352c.081-.151.122-.324.122-.52a1.08 1.08 0 00-.112-.509.76.76 0 00-.322-.323 1.044 1.044 0 00-.501-.112.99.99 0 00-.457.11c-.145.074-.264.17-.355.29a.624.624 0 00-.138.39c-.004.228.034.429.114.602.08.172.192.307.336.404z" fill="#36536B"/><path fill-rule="evenodd" clip-rule="evenodd" d="M169.762 335.475v-.743l.061-.008a3 3 0 00.502-.116l.153-.057c.346-.141.615-.341.804-.599.19-.258.285-.56.285-.907 0-.452-.121-.836-.364-1.152-.242-.316-.637-.539-1.183-.67l-.969-.237c-.328-.086-.55-.179-.668-.281a.516.516 0 01-.177-.414c0-.111.024-.21.073-.299a.679.679 0 01.214-.231c.095-.065.207-.116.337-.152a1.68 1.68 0 01.445-.054c.322 0 .552.076.691.229.139.152.227.362.266.628l1.227-.021a1.565 1.565 0 00-.26-.905 1.882 1.882 0 00-.765-.653 2.26 2.26 0 00-.544-.182l-.103-.018v-.829h-1.053v.824l-.026.003c-.174.028-.34.069-.498.124l-.156.06a1.98 1.98 0 00-.844.638 1.566 1.566 0 00-.306.98c.006.46.146.827.422 1.1.276.273.643.456 1.101.547l.986.212c.294.067.511.155.653.265.141.109.212.275.212.497a.606.606 0 01-.133.384.903.903 0 01-.364.267 1.356 1.356 0 01-.531.097c-.332 0-.609-.071-.83-.214a.99.99 0 01-.43-.626l-1.265.025c.067.605.325 1.052.774 1.342.327.21.725.345 1.196.402l.019.002v.742h1.048zm7.037-.795v-1.023h-3.066v-.054a.7.7 0 01.167-.47c.111-.131.258-.248.441-.352.183-.104.383-.206.601-.306.217-.099.436-.208.655-.324.219-.117.42-.252.603-.408.183-.155.33-.342.441-.561.111-.219.166-.48.166-.782 0-.364-.088-.681-.266-.953a1.773 1.773 0 00-.755-.637c-.326-.152-.713-.228-1.163-.228-.524 0-.959.091-1.306.274a1.863 1.863 0 00-.78.743 2.172 2.172 0 00-.268 1.042h1.161c.049-.352.18-.616.391-.791.21-.174.467-.262.769-.262.291 0 .521.077.689.229.167.153.251.35.251.591a.756.756 0 01-.17.491 1.72 1.72 0 01-.452.376 8.458 8.458 0 01-.617.335 14.44 14.44 0 00-.672.354 3.552 3.552 0 00-.616.434c-.187.165-.338.36-.451.583a1.72 1.72 0 00-.171.792v.907h4.418zm4.481-.158c-.351.167-.766.25-1.246.25a3.21 3.21 0 01-1.098-.183 2.757 2.757 0 01-.878-.502 2.156 2.156 0 01-.562-.73l.949-.561c.108.188.23.358.366.509.136.151.293.271.472.358.179.087.388.131.626.131.361 0 .651-.096.87-.287a.946.946 0 00.328-.749.952.952 0 00-.147-.522 1.038 1.038 0 00-.406-.364 1.295 1.295 0 00-.603-.133c-.122 0-.238.01-.348.031-.109.021-.22.06-.332.117a2.38 2.38 0 00-.373.243.24.24 0 01-.081.025.272.272 0 01-.085-.029l-.882-.408.275-3.053h3.864l-.046.994h-2.857l-.117 1.452c.222-.125.433-.215.634-.27.202-.056.423-.084.664-.084.402 0 .762.076 1.08.227.317.151.569.372.755.664.185.291.278.646.278 1.065 0 .424-.095.79-.287 1.098a1.871 1.871 0 01-.813.711zm4.244.25c.452 0 .85-.09 1.194-.269.343-.178.612-.423.804-.732a1.95 1.95 0 00.29-1.054c0-.372-.086-.696-.258-.974a1.722 1.722 0 00-.716-.642c-.305-.152-.661-.227-1.069-.227-.189 0-.37.025-.545.075-.175.05-.333.121-.474.214a1.258 1.258 0 00-.35.339 2.797 2.797 0 01.067-1.028c.083-.294.22-.522.412-.686.191-.164.431-.245.719-.245.264 0 .482.065.654.197.172.132.294.324.366.576h1.11a1.626 1.626 0 00-.33-.934 1.932 1.932 0 00-.78-.594 2.6 2.6 0 00-1.044-.206c-.527 0-.979.129-1.357.389-.377.259-.666.628-.867 1.108-.201.48-.302 1.05-.302 1.71 0 .602.1 1.126.298 1.572.198.447.483.794.855 1.04.371.247.812.371 1.323.371zm-.585-1.088a.96.96 0 00.543.156 1.025 1.025 0 00.903-.512c.094-.161.141-.345.141-.553 0-.222-.046-.406-.137-.553a.863.863 0 00-.372-.331 1.23 1.23 0 00-1.419.295.553.553 0 00-.152.36c-.003.269.04.5.127.693.087.192.209.341.366.445zm5.991 1.088c.452 0 .85-.09 1.194-.269a1.95 1.95 0 001.094-1.786c0-.372-.086-.696-.258-.974a1.72 1.72 0 00-.715-.642c-.305-.152-.662-.227-1.07-.227-.188 0-.37.025-.544.075-.175.05-.333.121-.475.214a1.254 1.254 0 00-.349.339 2.777 2.777 0 01.066-1.028c.084-.294.221-.522.412-.686.192-.164.431-.245.72-.245.263 0 .481.065.653.197.172.132.294.324.366.576h1.111a1.634 1.634 0 00-.331-.934 1.932 1.932 0 00-.78-.594 2.6 2.6 0 00-1.044-.206c-.527 0-.979.129-1.356.389-.377.259-.667.628-.868 1.108-.201.48-.301 1.05-.301 1.71 0 .602.099 1.126.297 1.572.199.447.484.794.855 1.04.372.247.813.371 1.323.371zm-.584-1.088a.955.955 0 00.542.156 1.022 1.022 0 00.903-.512c.094-.161.142-.345.142-.553 0-.222-.046-.406-.138-.553a.852.852 0 00-.372-.331 1.229 1.229 0 00-1.419.295.552.552 0 00-.151.36c-.003.269.039.5.126.693.088.192.21.341.367.445z" fill="#36536B"/><g filter="url(#filter9_d)"><rect x="73.2" y="350.04" width="130.56" height="25.6" rx="5" fill="#FBFCFE"/></g><path fill-rule="evenodd" clip-rule="evenodd" d="M171.667 365.452v.742h-1.048v-.741l-.019-.002c-.47-.058-.869-.192-1.196-.403-.449-.289-.707-.737-.774-1.341l1.265-.025c.067.274.21.483.431.626.22.143.497.214.83.214.199 0 .376-.032.53-.098a.9.9 0 00.364-.266.6.6 0 00.133-.385c0-.222-.071-.387-.212-.497-.141-.109-.359-.197-.653-.264l-.986-.212c-.458-.092-.824-.274-1.1-.547-.276-.273-.417-.64-.423-1.1-.002-.378.1-.704.306-.98.207-.276.488-.489.845-.639l.155-.059c.158-.055.324-.097.498-.124l.026-.003.001-.825h1.052v.83l.104.018c.196.04.377.101.543.182.332.162.587.38.766.653.178.273.265.575.26.905l-1.228.021c-.038-.266-.127-.476-.266-.628-.139-.153-.369-.229-.69-.229-.167 0-.315.018-.446.054-.13.036-.242.087-.337.152a.616.616 0 00-.287.53c0 .175.059.313.177.414.118.101.341.195.668.281l.969.237c.547.13.941.354 1.184.67.242.316.364.7.364 1.152 0 .347-.095.649-.285.907-.19.258-.459.458-.805.599l-.152.056a2.948 2.948 0 01-.502.117l-.062.008zm6.443-1.383v1.331h-1.169l.004-1.331h-2.771v-.999l2.742-3.685h1.194v3.665h.927v1.019h-.927zm-1.165-1.019h-1.648l1.648-2.205v2.205zm4.928-3.665v6.015h-1.232v-4.505h-1.073v-.687c.344 0 .622-.032.834-.098.212-.065.371-.159.476-.282a.807.807 0 00.188-.443h.807zm3.409 6.106c.527 0 .981-.118 1.361-.355s.671-.595.875-1.074c.204-.478.306-1.076.306-1.795 0-.601-.099-1.125-.297-1.57a2.341 2.341 0 00-.853-1.032c-.37-.242-.811-.364-1.321-.364-.455 0-.851.088-1.19.262a1.957 1.957 0 00-.79.724 1.972 1.972 0 00-.283 1.053c0 .391.089.728.268 1.013.179.284.426.503.741.657.315.154.676.231 1.083.231.225 0 .429-.03.612-.09.183-.059.343-.144.48-.253a1.22 1.22 0 00.323-.385c.033.48-.005.868-.115 1.165-.109.296-.273.513-.49.649a1.404 1.404 0 01-.76.203.969.969 0 01-.649-.218 1 1 0 01-.332-.568h-1.157c.025.352.14.66.345.922.206.262.471.465.795.609.324.144.674.216 1.048.216zm-.611-3.475c.183.173.423.26.719.26.17 0 .334-.038.493-.115.16-.076.291-.172.394-.289a.545.545 0 00.153-.362c.003-.269-.039-.5-.126-.692a1.017 1.017 0 00-.366-.443.977.977 0 00-.548-.154.939.939 0 00-.865.507 1.166 1.166 0 00-.129.558c0 .313.092.556.275.73zm6.005 3.475c.527 0 .981-.118 1.361-.355s.671-.595.875-1.074c.204-.478.306-1.076.306-1.795 0-.601-.099-1.125-.297-1.57a2.341 2.341 0 00-.853-1.032c-.37-.242-.811-.364-1.321-.364-.455 0-.851.088-1.19.262a1.957 1.957 0 00-.79.724 1.972 1.972 0 00-.283 1.053c0 .391.089.728.268 1.013.179.284.426.503.741.657.315.154.676.231 1.083.231.225 0 .429-.03.612-.09.183-.059.343-.144.48-.253a1.22 1.22 0 00.323-.385c.033.48-.005.868-.115 1.165-.109.296-.273.513-.49.649a1.404 1.404 0 01-.76.203.969.969 0 01-.649-.218.99.99 0 01-.332-.568h-1.157c.025.352.14.66.345.922.206.262.47.465.795.609.324.144.674.216 1.048.216zm-.611-3.475c.183.173.423.26.719.26.17 0 .334-.038.493-.115.16-.076.291-.172.393-.289a.541.541 0 00.154-.362c.003-.269-.039-.5-.126-.692a1.012 1.012 0 00-.367-.443.971.971 0 00-.547-.154.939.939 0 00-.865.507 1.166 1.166 0 00-.129.558c0 .313.092.556.275.73z" fill="#36536B"/><path fill="#36536B" d="M63.648 62.964h149.12v72.96H63.648z"/><g filter="url(#filter10_d)"><rect x="73.2" y="114.52" width="130.56" height="35.84" rx="5" fill="#FBFCFE"/></g><path opacity=".7" fill-rule="evenodd" clip-rule="evenodd" d="M97.983 135.029a1.21 1.21 0 01-.63-.061.624.624 0 01-.27-.207.718.718 0 01-.124-.294 1.87 1.87 0 01-.03-.341v-3.881h.675v3.811c0 .153.03.271.091.352.061.081.154.127.28.137l.173.007v.435a1.466 1.466 0 01-.165.042zM85.886 135v-4.003h1.398v-.624H83.73v.624h1.466V135h.69zm2.84.064c.331 0 .61-.072.838-.216.227-.144.4-.344.518-.6s.178-.552.178-.887c0-.367-.064-.68-.19-.939a1.361 1.361 0 00-.53-.592 1.562 1.562 0 00-.81-.203c-.327 0-.605.072-.835.216a1.38 1.38 0 00-.527.606c-.12.261-.18.565-.18.912 0 .361.063.668.19.922s.306.447.537.581c.232.133.502.2.812.2zm-.498-.691a.753.753 0 00.502.163c.188 0 .345-.05.472-.149a.896.896 0 00.286-.419c.064-.18.096-.389.096-.626 0-.22-.028-.42-.085-.6a.9.9 0 00-.273-.43.74.74 0 00-.496-.16.772.772 0 00-.48.145.881.881 0 00-.29.413 1.842 1.842 0 00-.097.632c0 .216.028.414.086.595.058.182.15.327.279.436zm3.888.649c.132 0 .24-.006.325-.019a.927.927 0 00.19-.045v-.445h-.387a.995.995 0 01-.223-.02.165.165 0 01-.115-.096.63.63 0 01-.033-.239l-.004-1.974h.743v-.496h-.743v-.97h-.496l-.17.973h-.556v.493h.538v2c0 .177.026.328.078.453.052.124.146.22.282.286.135.066.326.099.57.099zm2.799-.104a1.377 1.377 0 01-.638.146c-.214 0-.403-.039-.568-.115a.909.909 0 01-.39-.333.945.945 0 01-.14-.525c0-.367.13-.641.39-.822.26-.182.676-.278 1.245-.288l.544-.016v-.24c0-.19-.056-.34-.17-.448-.112-.109-.286-.163-.521-.16a.912.912 0 00-.472.121.592.592 0 00-.27.4h-.596a.989.989 0 01.19-.555c.115-.15.272-.264.473-.341.2-.077.436-.115.707-.115.3 0 .548.041.742.123a.89.89 0 01.434.36 1.1 1.1 0 01.142.576V135h-.579l-.054-.608c-.124.254-.28.429-.469.526zm-.424-.331a.724.724 0 01-.467-.149.5.5 0 01-.186-.414.54.54 0 01.127-.375.758.758 0 01.364-.208c.16-.044.353-.068.581-.07l.448-.01v.548a.492.492 0 01-.078.249.838.838 0 01-.2.219 1.005 1.005 0 01-.279.154.908.908 0 01-.31.056zm6.423 1.443v-1.6c.039.073.087.146.146.219.059.074.13.142.213.205a1.085 1.085 0 00.656.21c.284 0 .529-.067.736-.2a1.28 1.28 0 00.478-.591c.112-.26.168-.582.168-.966 0-.382-.056-.697-.168-.946a1.192 1.192 0 00-.467-.553 1.301 1.301 0 00-.69-.181 1.173 1.173 0 00-.683.2 1.218 1.218 0 00-.385.414l-.007-.55h-.685v4.339h.688zm.388-1.654c.13.111.291.166.483.166a.772.772 0 00.625-.296c.164-.197.245-.506.245-.926 0-.361-.075-.646-.225-.856-.151-.21-.366-.315-.645-.315-.288 0-.506.109-.653.328-.147.218-.221.499-.221.843 0 .224.033.428.098.613.065.184.163.332.293.443zm3.585.688c.237 0 .45-.049.639-.146.189-.097.345-.272.469-.526l.054.608h.579v-2.314c0-.226-.047-.418-.142-.576a.893.893 0 00-.434-.36c-.194-.082-.441-.123-.742-.123-.271 0-.507.038-.707.115a1.046 1.046 0 00-.472.341.991.991 0 00-.191.555h.595a.592.592 0 01.271-.4.911.911 0 01.472-.121c.235-.003.408.051.521.16.114.108.17.258.17.448v.24l-.544.016c-.57.01-.984.106-1.245.288-.26.181-.39.455-.39.822 0 .205.047.38.141.525a.909.909 0 00.388.333c.166.076.355.115.568.115zm-.252-.626a.722.722 0 00.467.149.906.906 0 00.31-.056 1.01 1.01 0 00.279-.154.84.84 0 00.2-.219.491.491 0 00.078-.249v-.548l-.448.01a2.28 2.28 0 00-.581.07.762.762 0 00-.365.208.542.542 0 00-.126.375.5.5 0 00.186.414zm3.173 1.618c.158 0 .304-.025.439-.074a.916.916 0 00.369-.262c.112-.126.215-.304.309-.535l1.379-3.494h-.672l-.921 2.445-.928-2.445h-.685l1.29 3.213-.103.278a.474.474 0 01-.363.327 1.096 1.096 0 01-.315.022l-.336-.006v.441l.117.045c.078.03.218.045.42.045zm3.724-3.242V135h-.685v-3.309h.666v.477a1.31 1.31 0 01.384-.379c.162-.108.371-.162.627-.162.12 0 .241.02.363.061.123.04.236.101.34.181.103.08.185.178.244.296.105-.158.245-.287.42-.388.175-.1.371-.15.588-.15.118 0 .239.019.365.056a.948.948 0 01.613.555c.067.156.101.353.101.592V135h-.688v-2.096a.845.845 0 00-.091-.426.512.512 0 00-.237-.216.786.786 0 00-.309-.062.91.91 0 00-.307.057.628.628 0 00-.272.192.553.553 0 00-.112.365V135h-.685v-2.243a.487.487 0 00-.098-.308.612.612 0 00-.243-.187.737.737 0 00-.289-.062.846.846 0 00-.32.064.63.63 0 00-.268.2.55.55 0 00-.107.35zm6.272 2.25c.22 0 .43-.04.63-.12.201-.08.372-.199.514-.357.142-.158.232-.35.27-.576h-.633a.635.635 0 01-.283.4.945.945 0 01-.511.134.852.852 0 01-.493-.136.815.815 0 01-.296-.371 1.38 1.38 0 01-.097-.533h2.329v-.227c0-.335-.056-.625-.169-.872a1.293 1.293 0 00-.498-.574c-.218-.137-.488-.205-.808-.205-.324 0-.601.075-.832.224-.23.149-.406.356-.528.619a2.163 2.163 0 00-.182.911c0 .347.066.647.2.899.133.252.319.445.558.581.239.135.515.203.829.203zm-.899-2.003h1.677c0-.173-.03-.331-.09-.472a.739.739 0 00-.274-.336.803.803 0 00-.462-.124.783.783 0 00-.757.49c-.063.143-.094.29-.094.442zm3.729 1.939v-2.186c0-.136.038-.25.112-.341a.682.682 0 01.295-.203c.121-.045.249-.067.384-.067.2 0 .364.058.491.173.127.115.19.291.19.528V135h.685v-2.17c0-.275-.053-.5-.16-.673a.974.974 0 00-.424-.384 1.327 1.327 0 00-.574-.124c-.175 0-.329.025-.463.074a1.072 1.072 0 00-.552.445v-.477h-.668V135h.684zm4.435.003a2.216 2.216 0 01-.325.019c-.245 0-.436-.033-.571-.099a.557.557 0 01-.282-.286 1.178 1.178 0 01-.078-.453v-2h-.538v-.493h.557l.17-.973h.496v.97h.742v.496h-.742l.003 1.974c0 .109.011.188.034.239.022.05.06.082.115.096.054.013.128.02.222.02h.387v.445a.917.917 0 01-.19.045z" fill="#36536B"/><path fill-rule="evenodd" clip-rule="evenodd" d="M157.443 137v1.142h-1.613v-1.14l-.011-.002c-.732-.087-1.351-.294-1.858-.621-.691-.446-1.088-1.134-1.19-2.064l1.945-.038c.103.422.324.743.663.963.339.22.765.33 1.277.33.307 0 .579-.051.816-.151.236-.1.423-.237.56-.409a.933.933 0 00.204-.592c0-.342-.108-.597-.326-.765-.218-.169-.553-.304-1.005-.407l-1.517-.326c-.704-.141-1.268-.421-1.692-.842-.425-.42-.642-.984-.65-1.692-.004-.581.152-1.083.47-1.508.318-.424.751-.752 1.3-.982l.185-.073c.25-.091.514-.159.791-.204l.07-.01v-1.268h1.619v1.275l.058.008c.342.062.654.162.937.301.51.249.903.584 1.178 1.005.275.42.408.884.4 1.392l-1.888.032c-.06-.41-.196-.732-.41-.967-.213-.234-.567-.352-1.062-.352-.256 0-.484.028-.685.083-.2.056-.373.134-.518.234a.942.942 0 00-.442.816c0 .269.091.481.272.637.181.156.524.3 1.027.432l1.492.365c.84.2 1.447.544 1.82 1.03.374.486.56 1.077.56 1.773 0 .533-.146.998-.438 1.395-.292.397-.705.704-1.238.922l-.182.068a4.412 4.412 0 01-.794.194l-.125.016zm9.36-.486c-.584.364-1.282.547-2.092.547a3.924 3.924 0 01-1.613-.333 3.143 3.143 0 01-1.223-.938 2.541 2.541 0 01-.531-1.417h1.779c.077.358.248.649.512.873.265.224.598.336.999.336a2.16 2.16 0 001.168-.313c.335-.209.587-.542.755-.999.169-.456.227-1.053.176-1.792a1.854 1.854 0 01-.496.592 2.33 2.33 0 01-.739.391 3.02 3.02 0 01-.941.137c-.627 0-1.183-.118-1.667-.355a2.735 2.735 0 01-1.139-1.011c-.276-.437-.413-.957-.413-1.558 0-.606.145-1.146.435-1.62a3.02 3.02 0 011.216-1.113c.521-.269 1.131-.403 1.83-.403.786 0 1.463.186 2.032.56.57.373 1.007.902 1.312 1.587.306.685.458 1.49.458 2.416 0 1.105-.157 2.025-.47 2.761-.314.736-.763 1.287-1.348 1.652zm-1.926-4.4c-.456 0-.826-.134-1.107-.4-.282-.267-.423-.641-.423-1.124 0-.324.067-.61.199-.857.132-.248.313-.44.544-.576a1.51 1.51 0 01.787-.205c.32 0 .601.079.842.237.241.158.428.385.563.681.134.297.199.652.195 1.066 0 .192-.079.378-.237.557a1.873 1.873 0 01-.605.445 1.742 1.742 0 01-.758.176zm11.729 3.232v1.574h-6.797v-1.395c0-.47.087-.876.262-1.219.175-.344.407-.643.695-.896.288-.254.604-.477.947-.669a21.81 21.81 0 011.034-.544c.345-.171.662-.343.95-.515.288-.173.519-.366.694-.58.175-.213.263-.465.263-.755 0-.371-.129-.674-.387-.909-.259-.234-.612-.352-1.06-.352-.465 0-.859.135-1.184.404-.324.268-.524.674-.601 1.216h-1.786a3.352 3.352 0 01.413-1.604c.267-.48.667-.86 1.2-1.142.533-.282 1.203-.422 2.01-.422.691 0 1.287.117 1.788.352.502.234.889.561 1.162.979.273.418.41.906.41 1.465 0 .465-.086.867-.256 1.204a2.75 2.75 0 01-.679.864 5.172 5.172 0 01-.928.627 19.6 19.6 0 01-1.008.499c-.335.154-.643.31-.925.47-.281.16-.507.341-.678.541a1.079 1.079 0 00-.256.723v.084h4.717zm4.644 1.715c1.118 0 1.99-.409 2.617-1.226.628-.817.941-1.991.941-3.523 0-1.54-.318-2.721-.953-3.542-.636-.822-1.504-1.232-2.605-1.232-.734 0-1.368.184-1.901.553-.533.369-.945.91-1.235 1.623-.29.712-.435 1.58-.435 2.604 0 1.532.314 2.705.944 3.52.629.815 1.505 1.223 2.627 1.223zm-1.229-2.272c.264.495.674.742 1.229.742.55 0 .953-.246 1.209-.739.256-.493.384-1.317.384-2.474 0-1.181-.13-2.028-.39-2.54s-.664-.768-1.21-.768c-.546 0-.952.258-1.219.774-.267.516-.4 1.361-.4 2.534 0 1.152.132 1.976.397 2.471zm11.806 2.131v-2.048h1.427v-1.568h-1.427v-5.638h-1.837l-4.218 5.67v1.536h4.263l-.007 2.048h1.799zm-4.327-3.616h2.535v-3.392l-2.535 3.392z" fill="#BA4270"/><path fill-rule="evenodd" clip-rule="evenodd" d="M165.39 87.912V86.58h-.492v1.332h.492zm-34 10.245v-3.17h.026c.225.328.511.576.86.744.35.169.731.253 1.145.253.492 0 .921-.095 1.287-.285.367-.19.673-.444.919-.763.245-.32.429-.686.549-1.1.121-.413.181-.845.181-1.293 0-.474-.06-.93-.181-1.365a3.319 3.319 0 00-.556-1.144 2.807 2.807 0 00-.944-.79c-.38-.198-.832-.297-1.358-.297-.414 0-.794.082-1.139.246a2.022 2.022 0 00-.853.789h-.026v-.854h-1.746v9.029h1.836zm1.54-3.544c-.294 0-.544-.06-.751-.181a1.47 1.47 0 01-.498-.473 2.037 2.037 0 01-.271-.679 3.719 3.719 0 01-.084-.789c0-.276.026-.543.077-.802a2.02 2.02 0 01.266-.685c.125-.199.288-.36.491-.485s.455-.188.757-.188c.293 0 .541.063.743.188.203.125.369.289.498.491.13.203.223.433.279.692.056.259.084.522.084.79 0 .267-.026.53-.078.788a1.95 1.95 0 01-.265.68 1.47 1.47 0 01-.492.472c-.202.12-.455.18-.756.18zm7.635 1.19c-.397.12-.802.18-1.216.18-.319 0-.616-.038-.892-.116a2.046 2.046 0 01-.725-.362 1.69 1.69 0 01-.485-.62 2.106 2.106 0 01-.174-.893c0-.38.067-.692.2-.938.134-.246.306-.442.518-.589a2.31 2.31 0 01.724-.33c.272-.073.545-.131.821-.174.276-.043.548-.078.815-.103a4.89 4.89 0 00.712-.117 1.24 1.24 0 00.491-.226c.121-.1.177-.244.168-.434 0-.198-.032-.355-.097-.472a.713.713 0 00-.258-.271 1.019 1.019 0 00-.375-.13 3.08 3.08 0 00-.46-.032c-.362 0-.646.078-.853.233-.207.155-.328.414-.363.776h-1.836c.026-.431.133-.79.323-1.074.19-.284.431-.513.724-.685.294-.173.623-.296.99-.369.366-.073.735-.11 1.106-.11.336 0 .677.024 1.022.071.345.048.659.14.944.278.285.138.517.33.698.576.182.246.272.571.272.977v3.479c0 .302.017.59.052.867.034.276.095.483.181.62h-1.863a2.823 2.823 0 01-.129-.646 2.39 2.39 0 01-1.035.633zm-.53-1.035c-.147 0-.289-.013-.427-.039a1.033 1.033 0 01-.362-.136.687.687 0 01-.246-.265.868.868 0 01-.09-.414.9.9 0 01.09-.427.827.827 0 01.239-.278c.1-.073.216-.131.35-.175.133-.043.269-.077.407-.103a7.75 7.75 0 01.44-.065c.146-.017.287-.038.42-.064.134-.026.259-.059.375-.097a.813.813 0 00.291-.162v.685c0 .104-.01.242-.032.414-.022.173-.08.343-.175.511a1.205 1.205 0 01-.439.434c-.199.12-.479.18-.841.18zm7.118 3.04c-.354.232-.845.349-1.475.349-.189 0-.377-.007-.562-.02a27.509 27.509 0 01-.563-.045v-1.513l.53.051c.181.018.363.022.544.013.241-.026.42-.12.536-.284a.913.913 0 00.175-.543c0-.147-.026-.285-.078-.414l-2.341-6.274h1.953l1.514 4.58h.026l1.461-4.58h1.902l-2.794 7.515c-.199.544-.475.932-.828 1.164zm6.083-1.837c.319 0 .612-.04.88-.117.267-.077.506-.185.718-.323.211-.138.39-.295.536-.472.147-.177.259-.364.337-.563h.026v.35c0 .137.01.264.032.38a.763.763 0 00.123.305c.06.086.149.155.265.207.116.052.274.078.472.078.138 0 .272-.018.401-.052v-.414a2.353 2.353 0 01-.362.039.413.413 0 01-.259-.072.391.391 0 01-.129-.187.936.936 0 01-.045-.259 5.402 5.402 0 01-.007-.284v-3.868c0-.509-.183-.92-.55-1.235-.366-.315-.95-.472-1.752-.472s-1.421.183-1.856.55c-.436.366-.671.916-.705 1.649h.491c.035-.595.235-1.04.602-1.333.366-.293.847-.44 1.442-.44.336 0 .621.035.854.104.232.07.422.164.569.285a1.136 1.136 0 01.427.918c0 .233-.013.427-.039.582a.667.667 0 01-.194.382c-.104.099-.257.176-.459.233a4.512 4.512 0 01-.835.122l-.763.065a7.73 7.73 0 00-.834.13c-.289.06-.552.161-.789.303a1.766 1.766 0 00-.589.582c-.155.246-.233.563-.233.951 0 .638.194 1.11.583 1.416.388.307.935.46 1.642.46zm-1.267-.783c.31.237.737.356 1.28.356.561 0 1.005-.102 1.332-.304.328-.203.578-.436.751-.699.172-.263.282-.517.329-.763a3.22 3.22 0 00.072-.498v-1.242c-.121.147-.304.246-.55.298-.246.052-.52.09-.821.116l-.828.078a8.397 8.397 0 00-.725.11 2.11 2.11 0 00-.653.24 1.34 1.34 0 00-.472.459c-.121.194-.181.446-.181.756 0 .492.155.856.466 1.093zm6.329 3.007v-3.763h.026c.198.543.513.935.944 1.177.431.241.922.362 1.474.362.509 0 .951-.087 1.326-.259.375-.172.686-.412.931-.718a3.07 3.07 0 00.55-1.093c.121-.422.181-.888.181-1.397 0-.466-.06-.91-.181-1.332a3.28 3.28 0 00-.55-1.112 2.682 2.682 0 00-.931-.764c-.375-.19-.817-.284-1.326-.284-.362 0-.683.056-.963.168a2.57 2.57 0 00-.718.42 2.266 2.266 0 00-.479.55 2.53 2.53 0 00-.258.543h-.026v-1.526h-.492v9.028h.492zm1.274-2.903c.314.168.705.252 1.17.252.432 0 .804-.082 1.119-.246.315-.164.574-.384.776-.66.203-.276.354-.597.453-.963.099-.367.149-.757.149-1.17 0-.38-.048-.753-.143-1.12a3.074 3.074 0 00-.439-.983 2.268 2.268 0 00-.77-.698c-.315-.177-.696-.265-1.145-.265-.439 0-.815.086-1.125.258a2.19 2.19 0 00-.757.686c-.194.285-.334.61-.42.977a4.994 4.994 0 00-.129 1.144c0 .397.038.778.116 1.145.078.366.209.69.395.97.185.28.435.505.75.673zm5.326-6.125h.492v6.648h-.492v-6.648z" fill="#fff"/><circle cx="118.698" cy="86.461" r="1.213" transform="rotate(45 118.698 86.461)" fill="#fff"/><circle cx="121.556" cy="89.319" r="1.213" transform="rotate(45 121.556 89.32)" fill="#fff"/><circle cx="124.414" cy="92.177" r="1.213" transform="rotate(45 124.414 92.177)" fill="#fff"/><circle cx="115.839" cy="89.319" r="1.213" transform="rotate(45 115.839 89.32)" fill="#fff"/><circle opacity=".5" cx="118.698" cy="92.177" r="1.213" transform="rotate(45 118.698 92.177)" fill="#fff"/><circle opacity=".5" cx="121.556" cy="95.036" r="1.213" transform="rotate(45 121.556 95.036)" fill="#fff"/><circle cx="112.981" cy="92.177" r="1.213" transform="rotate(45 112.981 92.177)" fill="#fff"/><circle opacity=".5" cx="115.839" cy="95.036" r="1.213" transform="rotate(45 115.839 95.036)" fill="#fff"/><circle opacity=".25" cx="118.698" cy="97.894" r="1.213" transform="rotate(45 118.698 97.894)" fill="#fff"/></g><defs><filter id="filter0_d" x="194.563" y=".364" width="324.896" height="479.271" filterUnits="userSpaceOnUse" color-interpolation-filters="sRGB"><feFlood flood-opacity="0" result="BackgroundImageFix"/><feColorMatrix in="SourceAlpha" values="0 0 0 0 0 0 0 0 0 0 0 0 0 0 0 0 0 0 127 0"/><feOffset dx="25" dy="25"/><feGaussianBlur stdDeviation="40"/><feColorMatrix values="0 0 0 0 0.212302 0 0 0 0 0.32521 0 0 0 0 0.419299 0 0 0 0.300727 0"/><feBlend in2="BackgroundImageFix" result="effect1_dropShadow"/><feBlend in="SourceGraphic" in2="effect1_dropShadow" result="shape"/></filter><filter id="filter1_d" x="270.44" y="140.88" width="142.64" height="152.24" filterUnits="userSpaceOnUse" color-interpolation-filters="sRGB"><feFlood flood-opacity="0" result="BackgroundImageFix"/><feColorMatrix in="SourceAlpha" values="0 0 0 0 0 0 0 0 0 0 0 0 0 0 0 0 0 0 127 0"/><feMorphology radius="10" in="SourceAlpha" result="effect1_dropShadow"/><feOffset dx="10" dy="10"/><feGaussianBlur stdDeviation="12.5"/><feColorMatrix values="0 0 0 0 0.212302 0 0 0 0 0.32521 0 0 0 0 0.419299 0 0 0 0.25 0"/><feBlend in2="BackgroundImageFix" result="effect1_dropShadow"/><feBlend in="SourceGraphic" in2="effect1_dropShadow" result="shape"/></filter><filter id="filter2_d" x=".643" y=".364" width="324.896" height="479.271" filterUnits="userSpaceOnUse" color-interpolation-filters="sRGB"><feFlood flood-opacity="0" result="BackgroundImageFix"/><feColorMatrix in="SourceAlpha" values="0 0 0 0 0 0 0 0 0 0 0 0 0 0 0 0 0 0 127 0"/><feOffset dx="25" dy="25"/><feGaussianBlur stdDeviation="40"/><feColorMatrix values="0 0 0 0 0.212302 0 0 0 0 0.32521 0 0 0 0 0.419299 0 0 0 0.300727 0"/><feBlend in2="BackgroundImageFix" result="effect1_dropShadow"/><feBlend in="SourceGraphic" in2="effect1_dropShadow" result="shape"/></filter><filter id="filter3_d" x="68.2" y="160.72" width="160.56" height="55.6" filterUnits="userSpaceOnUse" color-interpolation-filters="sRGB"><feFlood flood-opacity="0" result="BackgroundImageFix"/><feColorMatrix in="SourceAlpha" values="0 0 0 0 0 0 0 0 0 0 0 0 0 0 0 0 0 0 127 0"/><feMorphology radius="10" in="SourceAlpha" result="effect1_dropShadow"/><feOffset dx="10" dy="10"/><feGaussianBlur stdDeviation="12.5"/><feColorMatrix values="0 0 0 0 0.212302 0 0 0 0 0.32521 0 0 0 0 0.419299 0 0 0 0.25 0"/><feBlend in2="BackgroundImageFix" result="effect1_dropShadow"/><feBlend in="SourceGraphic" in2="effect1_dropShadow" result="shape"/></filter><filter id="filter4_d" x="68.2" y="191.44" width="160.56" height="55.6" filterUnits="userSpaceOnUse" color-interpolation-filters="sRGB"><feFlood flood-opacity="0" result="BackgroundImageFix"/><feColorMatrix in="SourceAlpha" values="0 0 0 0 0 0 0 0 0 0 0 0 0 0 0 0 0 0 127 0"/><feMorphology radius="10" in="SourceAlpha" result="effect1_dropShadow"/><feOffset dx="10" dy="10"/><feGaussianBlur stdDeviation="12.5"/><feColorMatrix values="0 0 0 0 0.212302 0 0 0 0 0.32521 0 0 0 0 0.419299 0 0 0 0.25 0"/><feBlend in2="BackgroundImageFix" result="effect1_dropShadow"/><feBlend in="SourceGraphic" in2="effect1_dropShadow" result="shape"/></filter><filter id="filter5_d" x="68.2" y="222.16" width="160.56" height="55.6" filterUnits="userSpaceOnUse" color-interpolation-filters="sRGB"><feFlood flood-opacity="0" result="BackgroundImageFix"/><feColorMatrix in="SourceAlpha" values="0 0 0 0 0 0 0 0 0 0 0 0 0 0 0 0 0 0 127 0"/><feMorphology radius="10" in="SourceAlpha" result="effect1_dropShadow"/><feOffset dx="10" dy="10"/><feGaussianBlur stdDeviation="12.5"/><feColorMatrix values="0 0 0 0 0.212302 0 0 0 0 0.32521 0 0 0 0 0.419299 0 0 0 0.25 0"/><feBlend in2="BackgroundImageFix" result="effect1_dropShadow"/><feBlend in="SourceGraphic" in2="effect1_dropShadow" result="shape"/></filter><filter id="filter6_d" x="68.2" y="252.88" width="160.56" height="55.6" filterUnits="userSpaceOnUse" color-interpolation-filters="sRGB"><feFlood flood-opacity="0" result="BackgroundImageFix"/><feColorMatrix in="SourceAlpha" values="0 0 0 0 0 0 0 0 0 0 0 0 0 0 0 0 0 0 127 0"/><feMorphology radius="10" in="SourceAlpha" result="effect1_dropShadow"/><feOffset dx="10" dy="10"/><feGaussianBlur stdDeviation="12.5"/><feColorMatrix values="0 0 0 0 0.212302 0 0 0 0 0.32521 0 0 0 0 0.419299 0 0 0 0.25 0"/><feBlend in2="BackgroundImageFix" result="effect1_dropShadow"/><feBlend in="SourceGraphic" in2="effect1_dropShadow" result="shape"/></filter><filter id="filter7_d" x="68.2" y="283.6" width="160.56" height="55.6" filterUnits="userSpaceOnUse" color-interpolation-filters="sRGB"><feFlood flood-opacity="0" result="BackgroundImageFix"/><feColorMatrix in="SourceAlpha" values="0 0 0 0 0 0 0 0 0 0 0 0 0 0 0 0 0 0 127 0"/><feMorphology radius="10" in="SourceAlpha" result="effect1_dropShadow"/><feOffset dx="10" dy="10"/><feGaussianBlur stdDeviation="12.5"/><feColorMatrix values="0 0 0 0 0.212302 0 0 0 0 0.32521 0 0 0 0 0.419299 0 0 0 0.25 0"/><feBlend in2="BackgroundImageFix" result="effect1_dropShadow"/><feBlend in="SourceGraphic" in2="effect1_dropShadow" result="shape"/></filter><filter id="filter8_d" x="68.2" y="314.32" width="160.56" height="55.6" filterUnits="userSpaceOnUse" color-interpolation-filters="sRGB"><feFlood flood-opacity="0" result="BackgroundImageFix"/><feColorMatrix in="SourceAlpha" values="0 0 0 0 0 0 0 0 0 0 0 0 0 0 0 0 0 0 127 0"/><feMorphology radius="10" in="SourceAlpha" result="effect1_dropShadow"/><feOffset dx="10" dy="10"/><feGaussianBlur stdDeviation="12.5"/><feColorMatrix values="0 0 0 0 0.212302 0 0 0 0 0.32521 0 0 0 0 0.419299 0 0 0 0.25 0"/><feBlend in2="BackgroundImageFix" result="effect1_dropShadow"/><feBlend in="SourceGraphic" in2="effect1_dropShadow" result="shape"/></filter><filter id="filter9_d" x="68.2" y="345.04" width="160.56" height="55.6" filterUnits="userSpaceOnUse" color-interpolation-filters="sRGB"><feFlood flood-opacity="0" result="BackgroundImageFix"/><feColorMatrix in="SourceAlpha" values="0 0 0 0 0 0 0 0 0 0 0 0 0 0 0 0 0 0 127 0"/><feMorphology radius="10" in="SourceAlpha" result="effect1_dropShadow"/><feOffset dx="10" dy="10"/><feGaussianBlur stdDeviation="12.5"/><feColorMatrix values="0 0 0 0 0.212302 0 0 0 0 0.32521 0 0 0 0 0.419299 0 0 0 0.25 0"/><feBlend in2="BackgroundImageFix" result="effect1_dropShadow"/><feBlend in="SourceGraphic" in2="effect1_dropShadow" result="shape"/></filter><filter id="filter10_d" x="68.2" y="109.52" width="160.56" height="65.84" filterUnits="userSpaceOnUse" color-interpolation-filters="sRGB"><feFlood flood-opacity="0" result="BackgroundImageFix"/><feColorMatrix in="SourceAlpha" values="0 0 0 0 0 0 0 0 0 0 0 0 0 0 0 0 0 0 127 0"/><feMorphology radius="10" in="SourceAlpha" result="effect1_dropShadow"/><feOffset dx="10" dy="10"/><feGaussianBlur stdDeviation="12.5"/><feColorMatrix values="0 0 0 0 0.212302 0 0 0 0 0.32521 0 0 0 0 0.419299 0 0 0 0.25 0"/><feBlend in2="BackgroundImageFix" result="effect1_dropShadow"/><feBlend in="SourceGraphic" in2="effect1_dropShadow" result="shape"/></filter><linearGradient id="paint0_linear" x1="254.329" y1="55" x2="254.329" y2="62.887" gradientUnits="userSpaceOnUse"><stop stop-color="#454545"/><stop offset=".226" stop-color="#999"/><stop offset="1" stop-color="#fff"/></linearGradient><linearGradient id="paint1_linear" x1="414.386" y1="109.879" x2="408.331" y2="109.879" gradientUnits="userSpaceOnUse"><stop stop-color="#fff" stop-opacity=".01"/><stop offset=".222" stop-color="#BABABA"/><stop offset=".547" stop-color="#fff" stop-opacity=".01"/><stop offset="1" stop-color="#fff" stop-opacity=".01"/></linearGradient><linearGradient id="paint2_linear" x1="249.563" y1="109.712" x2="255.628" y2="109.712" gradientUnits="userSpaceOnUse"><stop stop-color="#fff" stop-opacity=".01"/><stop offset=".222" stop-color="#BABABA"/><stop offset=".547" stop-color="#fff" stop-opacity=".01"/><stop offset="1" stop-color="#fff" stop-opacity=".01"/></linearGradient><linearGradient id="paint3_linear" x1="60.409" y1="55" x2="60.409" y2="62.887" gradientUnits="userSpaceOnUse"><stop stop-color="#454545"/><stop offset=".226" stop-color="#999"/><stop offset="1" stop-color="#fff"/></linearGradient><linearGradient id="paint4_linear" x1="220.466" y1="109.879" x2="214.411" y2="109.879" gradientUnits="userSpaceOnUse"><stop stop-color="#fff" stop-opacity=".01"/><stop offset=".222" stop-color="#BABABA"/><stop offset=".547" stop-color="#fff" stop-opacity=".01"/><stop offset="1" stop-color="#fff" stop-opacity=".01"/></linearGradient><linearGradient id="paint5_linear" x1="55.643" y1="109.712" x2="61.708" y2="109.712" gradientUnits="userSpaceOnUse"><stop stop-color="#fff" stop-opacity=".01"/><stop offset=".222" stop-color="#BABABA"/><stop offset=".547" stop-color="#fff" stop-opacity=".01"/><stop offset="1" stop-color="#fff" stop-opacity=".01"/></linearGradient></defs></svg>